<svg xmlns="http://www.w3.org/2000/svg" width="189" height="66" viewBox="0 0 189 66">
  <defs>
    <style>
      .cls-1 {
        fill: #d43eff;
        stroke: #d43eff;
        stroke-linejoin: round;
        stroke-width: 2px;
        fill-rule: evenodd;
      }
    </style>
  </defs>
  <path id="Фигура_18" data-name="Фигура 18" class="cls-1" d="M1243.21,2117.98h161.52l-16.19-16.24a4.261,4.261,0,0,1,0-5.99l2.52-2.52a4.213,4.213,0,0,1,5.95,0l27.76,27.78a4.249,4.249,0,0,1,0,5.98l-27.76,27.78a4.213,4.213,0,0,1-5.95,0l-2.52-2.52a4.149,4.149,0,0,1-1.23-2.98,4.013,4.013,0,0,1,1.23-2.92l16.38-16.34H1243.27a4.364,4.364,0,0,1-4.27-4.32v-3.57a4.279,4.279,0,0,1,4.33-4.16" transform="translate(-1238 -2091)"/>
</svg>
