<svg xmlns="http://www.w3.org/2000/svg" width="52.438" height="51.625" viewBox="0 0 52.438 51.625">
  <defs>
    <style>
      .cls-1 {
        fill: #ddff65;
        fill-rule: evenodd;
      }
    </style>
  </defs>
  <path id="Фигура_15" data-name="Фигура 15" class="cls-1" d="M417.905,378.927a0.66,0.66,0,0,1-.3-0.6,8,8,0,0,1-.892-1.2,5.677,5.677,0,0,1-.894-1.345,16.533,16.533,0,0,1-2.085-2.09c-0.763-.679-1.643-1.242-2.379-1.944-0.7-.69-1.5-1.283-2.233-1.941a14.066,14.066,0,0,0-2.385-1.945c-1.065-.175-1.826-0.655-2.976-0.748a23.127,23.127,0,0,0-3.421-.3,62.393,62.393,0,0,0-7.445-.15c-0.09.008-.174,0.024-0.148,0.15h-0.3a18.626,18.626,0,0,0-4.764.6c-0.1.3-.695,0.1-0.743,0.447-0.474-.025-0.5.4-1.043,0.3-1.9,1.083-3.7,2.26-5.506,3.438a24.2,24.2,0,0,0-4.914,4.035,29.037,29.037,0,0,0-1.935,2.99c-0.135.71-.888,0.8-1.041,1.494-0.518.326-.638,1.054-1.192,1.345a6.544,6.544,0,0,1-.893,1.494,8.388,8.388,0,0,1-.891,1.646,6.507,6.507,0,0,1-.746,1.792,7.117,7.117,0,0,0-.149,1.046c-0.394.052-.133,0.761-0.445,0.895-0.1,1.35-.282,2.61-0.448,3.889,0.243,1.645.056,3.728,0.448,5.23a42.655,42.655,0,0,0,.891,4.783c0.684,1.008,1.094,2.288,1.788,3.286a4.075,4.075,0,0,0,.894,1.646,2.083,2.083,0,0,0,.445.746,1.213,1.213,0,0,1,.446.9,28.261,28.261,0,0,0,15.779,8.817,34.461,34.461,0,0,0,20.84-2.54,18.365,18.365,0,0,1,2.379-1.643,24.475,24.475,0,0,1,2.381-2.54,19.949,19.949,0,0,1,1.192-1.945,10.257,10.257,0,0,1,1.342-1.942,0.734,0.734,0,0,1,.3-0.747,1.22,1.22,0,0,1,.3-0.749,7.367,7.367,0,0,1,.6-1.491c0.315-1.08.66-2.124,1.042-3.14a48.5,48.5,0,0,0,1.339-7.174c0.277-5.959-.5-10.855-2.233-14.8h0Zm-23.518,14.5c-3.366-.059-6.99.142-10.125-0.151a49.973,49.973,0,0,1,.449-10.163c2.881,0.394,6,.55,9.078.749,0.09,3.3.328,6.446,0.6,9.565h0Zm-6.4-22.719a27.967,27.967,0,0,0,2.976-.9c0.553-.095,1.485.193,1.788-0.149H393.2c-0.407,3.736.18,7.393,0.3,11.059-2.663-.264-5.649-0.205-8.187-0.6a49.766,49.766,0,0,1,2.679-9.414h0Zm-8.185,5.83c0.3-.263.291,0.111,0.6-0.15,0.187-.508.527-0.863,0.743-1.345a4.624,4.624,0,0,0,1.488-1.5c1.1-.538,1.754-1.525,2.976-1.941a42.242,42.242,0,0,0-2.528,8.071c-1.821-.115-2.889-0.987-4.615-1.195,0.274-.823,1.083-1.109,1.34-1.944h0Zm-7,10.013a4.452,4.452,0,0,0,.893-2.093c0.682-.412.845-1.342,1.34-1.944s0.927-1.26,1.488-1.793a4.265,4.265,0,0,0,.3-0.446,29.6,29.6,0,0,0,5.509,2.388,69.724,69.724,0,0,0-.891,10.463,37.859,37.859,0,0,1-9.528-1.195c-0.13-2.222.623-3.557,0.892-5.38h0Zm4.166,20.027a2.163,2.163,0,0,1-.743-1.047c-0.716-.476-0.916-1.468-1.49-2.09-0.735-1.654-1.483-3.3-2.082-5.084-0.09-.386.059-0.538,0.448-0.448-0.435-1.008-1.163-1.723-1.191-3.137,2.91,0.761,6.472.872,9.673,1.345a57.54,57.54,0,0,0,1.34,9.414c-1.618.666-3.378,1.191-4.91,1.944a1.879,1.879,0,0,1-1.045-.9h0Zm6.106,5.23a11.027,11.027,0,0,1-2.53-1.643,3.724,3.724,0,0,1-1.042-1.047,9.3,9.3,0,0,0,1.936-.447,8.093,8.093,0,0,0,1.782-.6,0.23,0.23,0,0,1,.3.149c0.293,1.45.841,2.643,1.043,4.186a5.182,5.182,0,0,0-1.488-.6h0Zm1.188-15.691c3.315,0.162,6.774.173,10.273,0.149,0.1,2.24.356,4.323,0.446,6.576-1.573.316-3.335,0.439-4.91,0.748-0.584.359-1.652,0.236-2.236,0.6-0.973-.031-1.375.511-2.381,0.449-0.344-2.892-1.056-5.418-1.192-8.519h0Zm8.189,17.487c-0.556.159-.426-0.374-0.9-0.3h-1.487a11.376,11.376,0,0,0-2.234-.3,10.145,10.145,0,0,1-.594-1.345,6.3,6.3,0,0,0-.448-1.345c0-.6-0.3-0.9-0.3-1.494a10.546,10.546,0,0,0-.445-1.345c0.415-.578,1.388-0.6,2.233-0.748,0.684-.306,1.775-0.208,2.53-0.447,1.3,0.11,2.139-.245,3.425-0.15a1.2,1.2,0,0,0,.446-0.149h0.3c0.6-.007.125,1.07,0.448,1.345a5.556,5.556,0,0,0,.148,1.643v1.945c0.113,0.881.277,1.715,0.446,2.54a18.6,18.6,0,0,1-3.572.15h0Zm2.978-43.194c1.3,0.087,2.96-.185,4.018.149,0.943,0.25,1.035,1.35,1.785,1.792,0.359,0.841,1.017,1.373,1.34,2.243a20.467,20.467,0,0,1,1.936,5.233,25.932,25.932,0,0,1-8.337.894c-0.306-3.376-.661-6.708-0.742-10.311h0Zm9.079,37.065a12.915,12.915,0,0,0-.448,1.942c-0.572.969-.654,2.432-1.337,3.289-1.268.421-3.081,0.3-4.318,0.745a51.074,51.074,0,0,1-.448-7.621c2.389,0.056,4.623-.044,6.848-0.15,0.228,0.414-.238,1.2-0.3,1.795h0Zm1.04-5.081c-2.671,0-5.256.1-7.74,0.3a45.848,45.848,0,0,1-.594-6.575,79.894,79.894,0,0,0,8.334-1.195h0.3a45.446,45.446,0,0,1-.3,7.472h0Zm0.3-9.864c-2.976.25-5.836,0.614-8.93,0.746-0.067-3.271-.39-6.285-0.6-9.414a25.551,25.551,0,0,0,8.485-.9,0.23,0.23,0,0,0,.3-0.149c0.126-.029.139,0.059,0.147,0.149a52.133,52.133,0,0,1,.6,9.566h0ZM405.4,374.591a7.841,7.841,0,0,0-.447-0.749c-0.139-.221-0.272-0.444-0.446-0.745a4.379,4.379,0,0,0-.151-0.448c0.036,0.047-.981-0.81-0.446-0.748,1.555,0.733,2.807,1.766,4.466,2.392,0.713,1.028,2.006,1.473,2.679,2.54a12.879,12.879,0,0,1-1.784,1.2c-0.874.121-1.291,0.7-2.233,0.748a21.676,21.676,0,0,0-1.638-4.186h0Zm3.274,34.823a1.976,1.976,0,0,0-.745.3,2.129,2.129,0,0,0-.743.748c-0.346-.454.266-1.221,0.3-1.792,0.154-.643.271-1.324,0.446-1.944a1.135,1.135,0,0,1,.151-0.447,10.293,10.293,0,0,1,2.381,1.046c-0.363.929-1.218,1.368-1.787,2.091h0Zm6.848-14.347a2.155,2.155,0,0,1-.445,1.047,22.536,22.536,0,0,1-2.531,8.37c-1.413-.424-2.553-1.126-3.872-1.645,0.354-3.073-.069-5.907.148-7.92a13.751,13.751,0,0,0,6.1-1.646c0.266,0.02.312-.183,0.6-0.15v1.944Zm-3.872-2.838h-2.976a62.644,62.644,0,0,0-.745-10.314,24.035,24.035,0,0,0,4.912-2.541,1.01,1.01,0,0,0,.3.149c0.453,1.787,1.249,3.229,1.639,5.081a30.023,30.023,0,0,1,.743,5.83c-1.216.668-2.615,1.157-3.87,1.795h0Zm0,0" transform="translate(-367.75 -366.594)"/>
</svg>
