<svg xmlns="http://www.w3.org/2000/svg" width="32.907" height="55.125" viewBox="0 0 32.907 55.125">
  <defs>
    <style>
      .cls-1 {
        fill: #5bf5ff;
        fill-rule: evenodd;
      }
    </style>
  </defs>
  <path id="Фигура_12" data-name="Фигура 12" class="cls-1" d="M515.263,293.734c-0.01-1.248.469-2.008,0.308-3.406-0.249-.784-0.382-1.682-0.617-2.477a8.071,8.071,0,0,0-2.783-2.787,13.457,13.457,0,0,0-3.863-.31c-0.675.21-.913-0.1-1.546,0.154-0.266-.454-1.587.146-1.855-0.308-2.76-.123-5.158-0.613-8.189-0.464a0.239,0.239,0,0,1-.31.154,23.909,23.909,0,0,0-5.1.31,11.069,11.069,0,0,0-4.946.62,0.241,0.241,0,0,1-.31.154c-0.473.659-1.43,0.839-1.546,1.857a6.674,6.674,0,0,0-1.236,2.323c0.087,4.409-.463,8.878-0.463,13.314,0,4.552.22,9.037,0.463,13.47a62.006,62.006,0,0,0-.154,6.657,51.3,51.3,0,0,0,.154,6.657,15.494,15.494,0,0,0,.31,4.334,1.444,1.444,0,0,1,.463,1.085,10.23,10.23,0,0,0,2.163,2.01,14.148,14.148,0,0,0,2.936,1.395c0.121,0.033.307,0,.31,0.153,3.01,0.134,5.905.383,8.811,0.621,3.023-.12,5.841-0.443,9.118-0.31,0.174-.341,1.019-0.01,1.08-0.464,0.543,0.028.51-.524,0.926-0.618,0.482-.554,1.611-0.454,2.32-0.777,0.622-1.237,1.935-1.777,2.626-2.941,0.883-4.157.469-9.594,0.776-13.932,0.2-4.855.443-9.673,0.617-14.555-0.218-3.908-.179-8.075-0.464-11.919h0Zm-30.6,38.239c-1.062-.167-0.481-1.777-0.156-2.321,0.359,0.467.054,1.6,0.156,2.321h0Zm0.31-2.942c0.08,0.08-.112.2-0.159,0.157-0.079-.079.113-0.2,0.159-0.157h0Zm0,3.252c-0.189.015-.1-0.223,0,0a0.888,0.888,0,0,1,.617.154c-0.043.366-.576-0.013-0.617-0.154h0Zm2.78,4.647c-0.425,0-.369-0.732-0.154-0.931a1.028,1.028,0,0,1,.618.153c0.163,0.58-.325.5-0.464,0.778h0Zm2.627-7.9c-0.274-.112-0.021-0.279,0-0.464,0.276,0.113.023,0.282,0,.464h0Zm0.929,3.1c-0.358-.469.343-1.2,0.461-1.7,0.279,0.019.327-.189,0.621-0.156-0.268.716-.944,1.021-1.082,1.859h0Zm1.853,3.251a0.456,0.456,0,0,0-.31-0.309,0.824,0.824,0,0,1,1.39-.775,0.955,0.955,0,0,1-1.08,1.084h0Zm0.619-4.954c0-.151.19-0.12,0.308-0.156,0,0.152-.19.121-0.308,0.156h0Zm-0.463-1.084a11.161,11.161,0,0,1-1.236.464c-0.164-1.439,1.605-1.1,2.626-.928a1.64,1.64,0,0,1-1.39.464h0Zm4.017,6.038a3.841,3.841,0,0,0-1.39-.93,1.441,1.441,0,0,0-.62-0.929v-2.476c0.7-1.313,2.519-1.5,3.865-2.167a6.911,6.911,0,0,1,1.546.617,9.518,9.518,0,0,1,1.081,3.562c-0.33,2-2.161,2.759-4.482,2.323h0Zm9.427-3.1c-0.261-.765.213-2.277,1.236-1.7-0.158.824-.327,1.631-1.236,1.7h0Zm3.4-2.321v-0.31c0.133,0.028.146-.061,0.156-0.154,0.3-.064.225,0.706-0.156,0.464h0Zm-0.154-6.5c-0.448.634-1.106,1.062-1.546,1.7-3.264.085-6.876-.18-9.891,0.154-1.767-.118-3.059.239-4.79,0.157a8.728,8.728,0,0,1-2.319.153,2.327,2.327,0,0,1-2.009-.464,1.046,1.046,0,0,1-.77-0.928,3.344,3.344,0,0,1-.464-1.239,41.63,41.63,0,0,1-.156-5.728,1.24,1.24,0,0,1-.156-0.311,2.986,2.986,0,0,0,0-.774c-0.208-5.088.156-10.647,0-16.1,0.041-.841.368-1.388,0.465-2.167a10.885,10.885,0,0,1,.155-2.324,12.14,12.14,0,0,1,.465-4.643c1.945-.218,3.973-0.351,6.026-0.465a56.4,56.4,0,0,1,6.338-.154c0.264,0.034.4-.263,0.461,0a40.8,40.8,0,0,1,7.884,0c0.525,1.162.31,2.78,0.31,4.334v4.644a66.092,66.092,0,0,0,.772,8.362,103.964,103.964,0,0,0-.775,15.791h0Zm0,0" transform="translate(-482.812 -284.125)"/>
</svg>
