<svg xmlns="http://www.w3.org/2000/svg" width="54.313" height="45.625" viewBox="0 0 54.313 45.625">
  <defs>
    <style>
      .cls-1 {
        fill: #ddff65;
        fill-rule: evenodd;
      }
    </style>
  </defs>
  <path id="Фигура_4" data-name="Фигура 4" class="cls-1" d="M761.044,649.7A6.451,6.451,0,0,1,760,648.35a2.08,2.08,0,0,1-.748-0.451c-0.44-.01-0.842-0.054-0.749-0.6-0.341-2.241.842-4.35-.152-5.87-0.665-.646-1.582-0.18-2.838-0.3h-3.44c-0.817-.083-1.577-0.222-2.393-0.3-6.054.075-12.059,0.206-18.1,0.3-1.287.206-2.577,0.414-3.888,0.6a10.256,10.256,0,0,1-1.047-1.955,5.125,5.125,0,0,0-1.5-1.656c-1.889-.958-5.188-0.5-7.927-0.6-2.155.44-4.028,1.161-6.578,1.205-0.494.257-.709,0.793-1.2,1.053-0.409.34-1.254,0.24-1.494,0.752-0.226.435-.617,1.326-0.751,1.656-0.325.822,0.016,1.993-.3,3.01,0.008,5.759-.214,11.752.745,16.553,0.6,3.355.218,6.873,0.751,10.381a47.168,47.168,0,0,0,.3,5.418,10.375,10.375,0,0,0,1.646,4.211,3.525,3.525,0,0,1,1.047.6c0.355,0.245.957,0.239,1.346,0.45a16.009,16.009,0,0,0,3.289.3,42.392,42.392,0,0,0,6.729-.3c3.6,0.116,6.742-.234,10.321-0.149a75.407,75.407,0,0,1,11.216-.451,35.366,35.366,0,0,0,6.578.6,6.654,6.654,0,0,0,1.494.3,40.619,40.619,0,0,0,5.237-.151,4.8,4.8,0,0,0,1.347-1.5c0.056-.092.243-0.2,0.3-0.3,0.76-1.416.751-3.147,1.2-4.816,0.059-4.5.579-8.545,0.748-12.941-0.062-4.551.149-9.377-.149-13.694h0Zm-31.257-6.618c3.868-.242,7.858-0.2,11.667-0.152a72.4,72.4,0,0,1,10.765.752h3.591c0.013,1.167-.258,2.05-0.148,3.312-2.109-.487-3.732-1.463-6.43-1.355-0.368-.283-0.63.026-1.349,0h-5.831c-0.619.119-.767-0.232-1.346-0.151H730.235c-0.356-.091-1.085.19-1.2-0.15-0.6.106-.254-0.75-0.6-0.9a7.151,7.151,0,0,0-.3-1.205,8.71,8.71,0,0,1,1.643-.15h0Zm28.565,18.056c-0.066,1.739-.072,3.2-0.3,5.115-0.037.322-.067,0.97-0.149,1.655-0.1.855-.2,2.509-0.45,3.763v2.557c-0.215,2.091-.359,4.253-1.2,5.72-3.289.2-5.741-.443-8.823-0.453-0.2-.7.694-1.478,0.6-2.557a1.462,1.462,0,0,0-.895-1.2c-1.135-.087-1.344.755-1.946,1.2-0.149.8-.655,1.246-0.748,2.106h-3.291c0.645-2.207,2.053-3.651,2.542-6.018a1.348,1.348,0,0,0-.6-0.6c-1.5-.008-1.523,1.478-2.394,2.107-0.445,1.007-1.07,1.834-1.5,2.858a2.049,2.049,0,0,0-.148,1.656,29.864,29.864,0,0,0-4.638.3,3.882,3.882,0,0,1,.747-1.657c0.776-1.506,1.49-3.159,2.393-4.663,0.364-1,1.119-2.1,1.646-3.16,0.121-.24.156-0.614,0.3-0.9,0.325-.665,1.169-1.44.3-2.256-0.907-.06-1.057.641-1.493,1.053-0.373.476-.716,0.987-1.049,1.5a32.384,32.384,0,0,0-1.794,3.31,21.57,21.57,0,0,0-1.794,3.311c-0.556,1.149-1.426,1.976-1.5,3.611-1.815.2-3.607-.008-5.834,0.3a17.763,17.763,0,0,1,1.344-2.71,20.82,20.82,0,0,0,1.2-2.709,25.154,25.154,0,0,1,1.344-2.558,6.643,6.643,0,0,1,.6-1.354c0.209-.443.788-0.51,0.747-1.2-0.125-.693-1.438-0.5-1.794-0.152a10.949,10.949,0,0,1-1.044,1.355,4.109,4.109,0,0,1-.9,1.5,2.447,2.447,0,0,1-.9,1.507c-1.037,2.217-2.634,3.87-3.441,6.32-1.456-.116-2.454.236-3.887,0.148a29.844,29.844,0,0,1,2.544-5.266,22.164,22.164,0,0,0,1.343-2.557c0.517-.528,1.488-1.716.751-2.558-1.488-.144-1.68,1.02-2.545,1.5-0.1.6-.658,0.742-0.895,1.2a9.734,9.734,0,0,0-.748,1.206,64,64,0,0,0-2.841,5.114,2.906,2.906,0,0,0,.3,1.354h-2.843c-0.7-.009.174-0.341,0.148-0.6a7.889,7.889,0,0,1,.451-0.9,16.788,16.788,0,0,0,.6-1.958,27.171,27.171,0,0,0,1.492-3.61,33.339,33.339,0,0,1,1.649-3.611,3.535,3.535,0,0,1,.895-1.656c0.128-.608.8-1.285,0.151-1.8-0.645-.3-1.139.322-1.645,0.6a10.774,10.774,0,0,1-1.2,1.354c-0.184.665-.69,1.01-0.9,1.657a10.385,10.385,0,0,0-.895,1.655,66.8,66.8,0,0,0-2.844,7.374,1.044,1.044,0,0,0,.3,1.053c-0.437.381-.791-0.605-0.9-1.053a13.083,13.083,0,0,1-.448-1.805,0.61,0.61,0,0,1,.448-0.6c0.31-.041.141-0.559,0.448-0.6a33.255,33.255,0,0,1,1.2-3.762,29.248,29.248,0,0,1,1.344-3.613c0.24-1.414.862-2.444,1.2-3.76,0.476-.376.422-1.283,0.895-1.656,0.054-.747.507-1.288,0-1.8-1.256-.07-1.571.97-2.242,1.656-0.481.816-.885,1.714-1.344,2.557a49.654,49.654,0,0,0-2.244,5.416c-0.431-.067.133-1.136-0.3-1.2-0.039-.492.58-0.319,0.6-0.752,0.4-.046.269-0.634,0.6-0.755,0.227-1.176.614-2.188,0.9-3.309,0.437-.911.534-2.171,1.046-3.01,0.239-1.162.758-2.043,1.047-3.16a4.8,4.8,0,0,0,.6-1.5,1.666,1.666,0,0,0,.6-1.355,4.124,4.124,0,0,0-.447-0.752,1.881,1.881,0,0,0-1.646.453c-0.043.3-.4,0.294-0.451,0.6,0,0.232-.4.5-0.3,0a8.717,8.717,0,0,0,.748-2.4,3.684,3.684,0,0,0,.6-2.408c-1.078-.747-1.892-0.033-2.393.752-0.205.322-.484,1.1-0.748,1.5-0.478,1.475-1.077,2.828-1.5,4.365-0.573-.731-0.1-1.813.151-2.56-0.01-1.715.256-3.152,0.151-4.965,0.412-2.441-.123-5.841.3-8.277h2.393c1.687-.158,3.079-0.61,4.786-0.752a37.362,37.362,0,0,1,5.235.152c0,0.147.184,0.116,0.3,0.149,1.365,1.535,1.8,4.01,2.693,6.019a5.167,5.167,0,0,1,1.2.9,1.939,1.939,0,0,1,1.045.3c7.248,0.177,13.955-.5,20.937-0.152a22.057,22.057,0,0,1,4.638,1.053c1.334,0.515,3.156.539,4.336,1.206a4.425,4.425,0,0,1,0,2.107c-0.074,3.074.1,5.827,0,8.426h0Zm0,0" transform="translate(-706.875 -637.5)"/>
</svg>
