<svg xmlns="http://www.w3.org/2000/svg" width="46.031" height="52.624" viewBox="0 0 46.031 52.624">
  <defs>
    <style>
      .cls-1 {
        fill: #7d5bff;
        fill-rule: evenodd;
      }
    </style>
  </defs>
  <path id="Фигура_10" data-name="Фигура 10" class="cls-1" d="M334.133,622.106c-0.9-.706-2.077-1.952-3.175-2.227-0.2-.051-0.335-0.123-0.477-0.159-0.2-.052-0.333-0.123-0.474-0.159a11.743,11.743,0,0,0-2.065-.16,9.005,9.005,0,0,0-1.111-.159,4.276,4.276,0,0,1-1.43.159,18.687,18.687,0,0,0-2.063,1.113,9.313,9.313,0,0,0-1.11.477c-0.511.075-.562,0.607-1.114,0.638-1.149-.972-2.551-1.686-3.652-2.7a4741.637,4741.637,0,0,0-3.811-2.546c-1.439-.68-2.524-1.715-3.971-2.386a12.515,12.515,0,0,0-1.906-1.271c-0.6-.457-1.5-0.622-1.9-1.272a3.626,3.626,0,0,0,.316-1.431c0.328-.735,1.3-0.822,1.746-1.431,0.806-.308,1.275-0.953,2.065-1.274,0.462-.6,1.306-0.811,1.747-1.431,0.79-.321,1.262-0.963,2.064-1.271a30.59,30.59,0,0,1,3.812-2.705c0.6-.517,1.308-0.915,1.9-1.431a2.685,2.685,0,0,0,1.909-1.431,7.494,7.494,0,0,0,2.061,1.749,19.4,19.4,0,0,0,3.494.638,11.347,11.347,0,0,0,3.493-.8,9.079,9.079,0,0,0,2.383-1.908,9.49,9.49,0,0,0,1.906-2.387,9.272,9.272,0,0,0,.792-3.5c-0.066-.781-0.212-1.485-0.315-2.227-2.239-3.723-5.827-6.851-12.068-6.045a0.778,0.778,0,0,1-.795.319,10.771,10.771,0,0,0-3.175,7.156c-1.155.8-2.394,1.527-3.494,2.387a40.2,40.2,0,0,1-3.808,2.225c-0.447.563-1.283,0.732-1.75,1.271a21.175,21.175,0,0,0-1.9,1.115c-0.508.5-1.241,0.773-1.749,1.272a21.508,21.508,0,0,1-1.906,1.112,14.286,14.286,0,0,0-2.383-1.59,21.932,21.932,0,0,0-5.555-.478c-0.029.237-.382,0.146-0.637,0.162a0.774,0.774,0,0,1-.792.316,10.377,10.377,0,0,1-1.588,1.115,13.375,13.375,0,0,0-3.652,7.315,33.929,33.929,0,0,0,.318,5.087c1.129,3.481,3.688,5.531,8.416,5.407a7.776,7.776,0,0,0,3.493-1.271,1.575,1.575,0,0,0,.8,1.749c0.844,0.35,1.185-.141,1.906-0.316a11.823,11.823,0,0,0,1.587,1.272,4.952,4.952,0,0,0,1.588,1.272c0.292,0.662,1.116.791,1.429,1.43,0.761,0.19.962,0.946,1.746,1.113a6.493,6.493,0,0,0,1.588,1.273,6.411,6.411,0,0,0,1.747,1.113,6.312,6.312,0,0,0,1.746,1.115c0.613,0.393,1.418.59,2.065,0.953v3.976a14.807,14.807,0,0,0,.952,1.75,5.567,5.567,0,0,0,1.428,1.431c0.944,0.909,2.5,1.2,4.13,1.43h2.859c4.4-.837,7.457-3.028,8.257-7.475V626.4a10.551,10.551,0,0,0-1.909-4.293h0Zm-6.35-24.175a2.994,2.994,0,0,0,.159-1.271c0.559,0.023.451,0.714,0.634,1.112-0.382-.064-0.344.29-0.793,0.159h0Zm-1.428-8.906a1.66,1.66,0,0,0,0-1.431c2.9,0.065,4.093,1.837,5.714,3.183,0.159,0.532.5,0.874,0.636,1.431,0.113,2.019-.97,2.846-1.747,3.974-0.725.336-1.067,1.053-1.905,1.274-0.388-.938-0.675-1.975-1.111-2.864a1.923,1.923,0,0,0-.954.478c0.018,0.192-.231.1,0,0a2.293,2.293,0,0,0-.318-2.228c-0.485-.112-0.467.275-0.952,0.16a7.857,7.857,0,0,1,1.429-2.862,1.452,1.452,0,0,0-.792-1.115h0Zm-0.319,8.113c0.311,0.072.285,1.114-.318,0.793a2.007,2.007,0,0,0,.318-0.793h0Zm-19.849,6.679c0.5,0.025.53-.425,1.11-0.319a1.624,1.624,0,0,0,.954.319,1.971,1.971,0,0,0,1.429-2.069c1.634-.908,2.971-2.116,4.766-2.861,0.569-.7,1.68-0.861,2.221-1.593a7.041,7.041,0,0,0,2.224-1.431h0.477c0.043,0.751.646,0.941,0.792,1.59h-1.269a26.532,26.532,0,0,0-3.337,2.069c-0.952.793-2.134,1.358-3.016,2.224a5.057,5.057,0,0,0-1.588,1.115c-0.713.134-.875,0.819-1.588,0.953-0.308.591-1.08,0.722-1.429,1.274-0.641.2-.874,0.82-1.587,0.953,0.125-.92-0.231-1.359-0.159-2.224h0Zm-11.114,11.767c0.082-.234.234-0.4,0.316-0.634,0.372,0.108.425,0.526,0.8,0.634-0.188.429-.829,0-1.111,0h0Zm2.38,0.16a4.83,4.83,0,0,0,.8-1.113,2.275,2.275,0,0,1,.318.953,1.709,1.709,0,0,1-1.113.16h0Zm5.876-7.794c0.028,0.56-.536.524-0.635,0.955a1.652,1.652,0,0,0,.317,1.431,8.116,8.116,0,0,1-2.539,4.452c-0.7-1.254-.5-3.422-1.59-4.293a3.313,3.313,0,0,0-1.744.953c-0.262-.108-0.054-0.295,0-0.475,0.049-.161.082-0.39,0.159-0.637,0.026-.085.3-0.416,0.315-0.475,0.047-.2-0.033-0.432,0-0.637a1.065,1.065,0,0,0-1.269-.8c0.054-.581.628-0.64,0.474-1.429-0.146-.624-0.8-0.136-1.269-0.161,0.428-.895,1.587-1.062,1.9-2.066,0.011-.966-0.674-1.236-1.429-1.431,0.347-.395.924-0.559,1.27-0.955a9.519,9.519,0,0,1,4.922.8,1.438,1.438,0,0,0,.637.635,1.6,1.6,0,0,0,.476.955v3.178Zm4.922,10.814c-0.956-.357-0.079-1.5-0.159-2.384,0.334,0.2.619,0.44,0.954,0.638a10.3,10.3,0,0,1-.8,1.746h0Zm1.588,1.115a5.966,5.966,0,0,0,.477-1.749c0.59,0.416.308,1.706,0.634,2.384a3.63,3.63,0,0,1-1.111-.635h0Zm9.529,4.93c-0.326.339-.631-0.044-0.952-0.159a7.651,7.651,0,0,1-.954-0.478c-0.664.036-.752-0.257-1.27,0-0.623-.647-1.59-0.956-2.224-1.59-0.969-.3-1.4-1.146-2.382-1.431a5.569,5.569,0,0,0-.159-2.543c0.135-.031.149,0.059,0.159,0.156,1.487,0.9,2.906,1.863,4.288,2.865,0.677,0.488,1.439.891,2.065,1.431,0.567,0.477,1.963.66,1.429,1.749h0Zm2.541,6.838c-0.554-.082-0.233-1.038-0.32-1.59a1.045,1.045,0,0,1,.32,1.59h0Zm10.8-1.271a0.913,0.913,0,0,1-.318.318c-0.051.043,0.044,0.262,0,.318a6.432,6.432,0,0,1-1.269,1.113,3.625,3.625,0,0,1-1.748.8,10.841,10.841,0,0,0-.951-1.75,1.035,1.035,0,0,0-.159-1.272c-1.7-.023-2.506,2.351-1.588,3.5,0.606,0.275.993-.469,1.111-0.156,0.021,0.657-1.105.164-1.587,0.318-0.629-.058-1.522.144-1.9-0.162-0.056-1.484.675-2.183,0.952-3.339a11.338,11.338,0,0,1,.792-1.431,3.159,3.159,0,0,0,.8-1.43c0.011-.543-0.589-0.471-1.113-0.479,0.247-1.024,1.078-1.466,1.429-2.383-0.175-.738-1.285-0.984-2.062-0.638,0.013,0.193-.233.1,0,0a3.458,3.458,0,0,1,2.221-1.112c1.139-.128,3.045.121,3.334,0.476a1.607,1.607,0,0,0,.318,0,0.807,0.807,0,0,0,.636.318,12.007,12.007,0,0,1,1.747,2.384,8.78,8.78,0,0,1-.636,4.614h0Zm0,0" transform="translate(-290 -584.438)"/>
</svg>
