<svg xmlns="http://www.w3.org/2000/svg" width="57.68" height="41.344" viewBox="0 0 57.68 41.344">
  <defs>
    <style>
      .cls-1 {
        fill: #fdff40;
        fill-rule: evenodd;
      }
    </style>
  </defs>
  <path id="Фигура_14" data-name="Фигура 14" class="cls-1" d="M1181.33,650.37c-0.44-.958-2.29-0.5-3.17-1.012-0.91-.186-0.88.574-1.67,0.508-0.14-.42-1.16.049-1.33-0.34h-1.67a2.84,2.84,0,0,0-1.51-.168c-0.45-.1-1.32.215-1.5-0.168-6.26-.243-13.28-0.274-19.53,0-3.94.083-8.02,0.988-12.36,1.012a89.465,89.465,0,0,0-12.68.5c-0.77.583-1,1.7-1.67,2.363-0.24,1.332-.08,3.074-0.34,4.387,0.76,8.009,1.16,16.375,1.84,24.46,0.02,0.709.64,0.809,0.66,1.519a18.581,18.581,0,0,0,.67,3.206,2.663,2.663,0,0,0,1.51.5c-0.02-.2.24-0.1,0,0a1.011,1.011,0,0,1-.34.508c-0.06,1.578,1.31,1.716,2.51,2.025a34,34,0,0,0,4.17.169c1.28,0.228,2.68.324,4.01,0.5h15.02c3.54-.528,7.48-0.657,11.02-1.18,4.08,0.02,7.42-.714,11.19-1.015,0.79-.184.23,1.007,0.83,1.015a0.916,0.916,0,0,0,1.17.506,1.636,1.636,0,0,0,1.17-1.521,9.6,9.6,0,0,0,.16-2.528v-5.4c0.23-3.369.48-6.721,0.5-10.292,0.36-3.242.18-7.021,0.51-10.289,0.06-1.731.32-3.266,0.5-4.893a8.9,8.9,0,0,1,.33-2.364c0.14-.75.51-1.5,0-2.023h0Zm-51.25,3.206h11.35a98.2,98.2,0,0,1,13.69-.843c0.29,0.034.43-.29,0.5,0a1.229,1.229,0,0,0,.83-0.169,0.953,0.953,0,0,1,0,.169,2.771,2.771,0,0,1,1.01,0,1.3,1.3,0,0,0,.33,0,9.507,9.507,0,0,1,1.17,0s0.03-.2.17-0.169a0.286,0.286,0,0,0,.16.169c0.34,0.043.95-.008,1.51,0-0.05,0,.08-0.275.16-0.169a2.606,2.606,0,0,0,1.51.169,17.087,17.087,0,0,1,2.33,0,68.932,68.932,0,0,1,10.52.673c0.71-.029,0,0.261,0,0.507a3.031,3.031,0,0,0-.67.507,8.95,8.95,0,0,0-1.16,1.012,21.307,21.307,0,0,0-2.67,1.687,45.99,45.99,0,0,0-5.18,3.711c-0.44-.145-0.3.318-0.67,0.339-0.28.013-.34,0.487-0.67,0.5a3.855,3.855,0,0,0-.83.507,1.059,1.059,0,0,0-.5.5c-1.08.376-1.66,1.248-2.67,1.688-1.57,1.4-3.33,2.6-4.84,4.05a17.981,17.981,0,0,1-3.01-2.2,20.935,20.935,0,0,1-3-1.687c-0.86-.655-1.89-1.128-2.68-1.856-2.12-.885-3.93-2.1-6.01-3.035-4.16-1.866-7.96-4.1-12.01-6.074,0.26-.473.74,0.236,1.33,0h0Zm-3.17.168c0.02-.046.36-0.312,0.5-0.168,0.12,0.124-.68.5-0.5,0.168h0Zm5.67,33.572a3.71,3.71,0,0,1,.34-1.011,3.642,3.642,0,0,1,.5,1.18,1.1,1.1,0,0,1-.84-0.169h0Zm6.51,0h-1.83c0.43-.968,1.07-1.731,1.5-2.7,0.68,0.326.18,1.84,0.33,2.7h0Zm38.74-29.354c-0.3,5.1-.58,10.22-1.01,15.183v2.192c0.14,0.479-.23.437-0.16,0.844v2.531c-0.42,1.716.13,4.409-.5,5.9-1.26-.09-2.05.3-3.35,0.169-4.08.871-9.09,0.82-13.18,1.684,0.13-.988.83-1.4,1-2.36-0.09-.489-0.26.259-0.5,0.168a1.014,1.014,0,0,1-.5.676,7.579,7.579,0,0,1-.67,1.516c-1.65.132-3.16,0.409-4.84,0.507,0.68-1.281,1.8-2.117,2.17-3.711-0.52-.437-0.9.344-1.17,0.675a4.219,4.219,0,0,0-1,1.349,3.916,3.916,0,0,1-1.34.844,2.772,2.772,0,0,0-.16,1.011h-6.52c0.01-.691.85-1.169,0.51-1.684-0.9.108-.82,1.195-1.34,1.684a33.793,33.793,0,0,0-4.17.171,19.367,19.367,0,0,0-.84-3.375c-0.36-.739.26-1.04,0-1.518a5.928,5.928,0,0,0-3.5,2.023,0.856,0.856,0,0,0-1.01-.5c-1.08.089-1.26,1.077-2.17,1.349a4.355,4.355,0,0,0,.51-1.687,2.218,2.218,0,0,0-1.51,1.183,4.97,4.97,0,0,1-1.17,1.516,0.776,0.776,0,0,1-.16.507c-0.07.29,0.24,0.432,0,.507-0.87-.023-1.47-0.316-2.34-0.339,0.05-.4.58-0.313,0.5-0.843,0.47-.026.39,0.507,0.84,0.507a1.934,1.934,0,0,0,1.33-1.519,11.352,11.352,0,0,0,1.17-1.856,13.981,13.981,0,0,0,2-3.879c-1.98.411-2.67,2.13-3.84,3.372,0.02,0.207-.24.1,0,0,0.56-1.4,1.38-2.541,2.01-3.879,0.54-1.291,2.11-2.3,1.5-4.219-1.84-.056-2.16,1.416-3.17,2.2-0.53,1.317-1.56,2.14-2.01,3.543-0.39-.142.02-0.869,0.17-1.012a8.56,8.56,0,0,1,.33-1.351c0.47-.649.58-1.663,1.01-2.362,0.17-.893.62-1.507,0.83-2.361,0.28-.843.95-1.3,1-2.362a1.4,1.4,0,0,0-1-.844c-0.95.044-1.21,0.8-1.84,1.181-0.37,1.26-1.13,2.116-1.5,3.373-0.38-.178-0.06-1.06-0.17-1.516a10.539,10.539,0,0,0,.34-1.351,7.531,7.531,0,0,0,.33-1.348c0.39-.166.15-0.973,0.5-1.182,0.27-1.77,1.77-3.145,1.17-5.23-1.42-.145-1.86.706-2.34,1.518-0.37-.124-0.06-0.946-0.16-1.348-0.38-.181-0.07-1.06-0.17-1.519-0.33-2.65-.56-5.39-0.83-8.1a5.009,5.009,0,0,1,.83,1.012,31.751,31.751,0,0,1,3.34,2.195c1.25,0.587,2.2,1.485,3.5,2.023,2.15,1.54,4.79,2.586,7.02,4.048a14.832,14.832,0,0,1,3.5,2.023,30.248,30.248,0,0,0,3.34,2.195c0.92,0.926,2.38,1.309,3.17,2.362a6.246,6.246,0,0,1,1.67,1.18c0.82,0.127,1.23.678,2.34,0.508a1.932,1.932,0,0,0,1.34-1.351,25.76,25.76,0,0,0,2.67-1.688c0.69-.82,1.81-1.2,2.5-2.023,1.08-.375,1.66-1.247,2.67-1.687,0.83-.686,1.79-1.227,2.67-1.856,3.24-2.749,7.35-4.606,10.36-7.592,0.37,0.39.13,1.588,0,2.025h0Zm-47.92,26.148c0.32,0.168-.08,1.027-0.5,1.012a0.865,0.865,0,0,1,.5-1.012h0Zm48.92-31.546c0.03-.194.16-0.093,0.16,0-0.03.192-.17,0.094-0.16,0h0Zm0,0" transform="translate(-1123.91 -649)"/>
</svg>
