<svg xmlns="http://www.w3.org/2000/svg">
  <symbol viewBox="0 0 54.216 49.625" id="icon-cart">
    <path d="M52.686 10.056c-.95-.558-2.64-.384-3.93-.6a33.334 33.334 0 0 1-4.08-.451 14.1 14.1 0 0 1-3.32.151c-1.13.044-2.32.148-3.47.148-7.37 0-14.47.164-21.44.3-.847.159-1.818.192-2.718.3a18.941 18.941 0 0 1-1.059-4.926c-.122-.88-.31-1.682-.45-2.541a5.163 5.163 0 0 1-.455-1.046 3.513 3.513 0 0 1-.6-1.046c-.85 0-1.247-.457-2.263-.3a.985.985 0 0 1-.755.151C6.461.82 5.112 1.773 3.467 2.438c-1.719.243-3.073.844-3.474 2.388a2.449 2.449 0 0 0 .45 1.943c.1.7.8.8 1.209 1.194h1.815c.02-.276.508-.092.6-.3.035-.263.258-.34.6-.3-.057-.655.431-.769.452-1.344V4.076c1.946.033 2.372-1.437 4.381-1.343.806 5.024 2.16 9.513 3.018 14.488 1.064 4.775 1.956 9.717 3.02 14.49a6.988 6.988 0 0 0-2.113.3 13.464 13.464 0 0 1-2.117 1.5A8.615 8.615 0 0 0 9.5 35.454v2.538a7.876 7.876 0 0 1 .9 1.046 4.718 4.718 0 0 1 1.209.747c4.642.961 9.842-.346 14.042-1.194 4.06.312 8.55.2 12.68.447h6.65c.2.34 1.05.054 1.51.149h1.66c1.12.02 1.96-.246 2.11-1.195a1.556 1.556 0 0 0-1.51-1.791c-3.41-.016-6.92.076-10.11-.151H25.056c-1.09.168-2.03.488-3.17.6-.79.465-2.33.192-3.03.746-1.36-.1-2.26.253-3.619.149-1.269.012-2.592.076-3.018-.744.32-.974 1.481-1.125 1.962-1.943a9.393 9.393 0 0 1 1.515-.447c.01-.282.5-.1.45-.448a.609.609 0 0 1 .6-.45c.22.55.79-.115 1.21.3a1.127 1.127 0 0 0 1.21.6c6.82-.105 13.28-1.261 20.08-.9.91-.194 1.91-.3 2.87-.447h3.62c1.45.148 3.43.611 4.53-.148.68-.795 0-2.158.91-2.838.02-1.373.44-2.347.45-3.735a25.938 25.938 0 0 0 1.06-2.989c.46-.933.67-2.119 1.21-2.986.41-3.454.69-8.275-1.21-10.307zm-19.48 2.088c.07 1.074.26 2.04.3 3.137a5.277 5.277 0 0 1 .15 1.644c.36.189-.08 1.178.3 1.345-.06.332-.74.061-1.05.148h-1.21a39.147 39.147 0 0 1-5.44.3c-.59-2.2-1.39-4.2-1.81-6.573h8.76zm-16.91 8.516c-.72-2.973-1.565-5.824-2.115-8.963a63.888 63.888 0 0 0 8.915.447c-.08 2.659.91 4.27.75 7.023-2.01 0-3.53.491-5.44.6-.74.258-1.38.623-2.11.9zm4.68 11.052a13.586 13.586 0 0 0-2.27.6c-.7-3.384-1.54-6.644-2.11-10.157 2.4.688 5.03-.071 7.7 0 .56 2.434-.01 5.98.61 8.362a4.552 4.552 0 0 0 1.2.6c2.46-.353 1.21-4.139 1.36-6.422a14.177 14.177 0 0 1-.45-2.838 48.6 48.6 0 0 1 7.1-.45 90.213 90.213 0 0 0 .6 9.111c-4.56.42-9.03.924-13.74 1.2zm20.38-1.642a26.74 26.74 0 0 1-5.13.447c-.14-3.044-.49-5.894-.45-9.111h5.88c.21 2.61-.47 5.594-.3 8.664zm.61-11.652c-1.97.394-4.21-.21-6.49 0-.07-2.224-.5-4.088-.61-6.274a56.392 56.392 0 0 1 7.25 0 61.171 61.171 0 0 0-.15 6.274zm8.91 1.943c-1.08 1.58-1.41 3.888-2.42 5.527a31.535 31.535 0 0 1-.61 4.33c-1.47-.181-3.05-.258-4.68-.3.68-2.418.64-5.544.91-8.362 1.86-.355 4.29-.143 5.29-1.345-1.12-.987-3.13-1.1-5.14-1.2v-7.02c2.22.143 4.33.4 6.65.447a24.461 24.461 0 0 1 0 7.918zm-30.2 20.017a7.6 7.6 0 0 0-3.47 1.191 4.536 4.536 0 0 0-1.36 2.542 3.428 3.428 0 0 0 .6 2.09c-.47.647.25 1.19.15 1.943.67.338.87 1.128 1.66 1.343 1.43.4 2.85-.185 4.08-.445a.812.812 0 0 1 .76-.45 6.766 6.766 0 0 0 2.41-4.331v-.9a6.079 6.079 0 0 0-1.81-2.838c-.97.01-2.06-.649-3.02-.148zm1.51 4.63c-.57.237-.67.928-1.36 1.045a10.3 10.3 0 0 1-2.57-1.344c.2-1.708 2.63-2.419 4.38-1.644a2.7 2.7 0 0 1-.45 1.943zm24-4.482a4.207 4.207 0 0 0-2.41 0c-.86-.051-1.3.312-2.12.3a8.139 8.139 0 0 1-1.65.895c-.3.608-1.05.765-1.21 1.5a15.758 15.758 0 0 0-.15 3.433 4.088 4.088 0 0 0 .75.9c.13.424.69.412.76.9.66-.164.75.253 1.2.3a7.391 7.391 0 0 0 3.17-.445 2.736 2.736 0 0 0 1.21-.6c.57-.092.62-.687 1.21-.749.47-1.128 1.18-2.014 1.21-3.584a8.73 8.73 0 0 1-.45-1.795c-.7-.15-.8-.907-1.52-1.043zm-2.56 5.08c-1-.212-2.51.092-2.27-1.345a1.5 1.5 0 0 1 1.06-.746c.29-.266.97-.141 1.21-.448a8.442 8.442 0 0 1 1.66 0c.05 1.447-.81 1.989-1.66 2.539zm0 0"
      fill="#d43eff" fill-rule="evenodd"></path>
  </symbol>
  <symbol viewBox="0 0 40.62 59.438" id="icon-cup">
    <path d="M14.04 8.108c.64.155 1.37.22 1.49.907-.22.886-.96 1.242-1.34 1.961-.28 1.017-.91 2.348-.15 3.17.11.033.29.005.3.152 1.48.2 1.65-.943 2.23-1.661.46-.842 1.18-1.426 1.65-2.266a7.1 7.1 0 0 0 0-2.867 20.37 20.37 0 0 1-1.2-1.359c-.55-.093-.94-.359-1.49-.452a3.656 3.656 0 0 1-1.34-.755c.26-1.046 1.28-1.317 1.79-2.113.56-.744 1.75-.84 1.64-2.265-.27-.912-1.31-.46-2.24-.452a34.1 34.1 0 0 0-3.13 2.565 18.863 18.863 0 0 0-.9 1.963 3.338 3.338 0 0 0 1.05 2.718c.48.315 1.44.147 1.64.754zm9.85 3.17c-.27.339-.36.85-.6 1.206a2.545 2.545 0 0 0-.3 1.512 7.058 7.058 0 0 1 .75.6c1.72-.184 2.02-2.044 1.64-3.922-.39-.713-1.34-.86-1.49-1.813.32-.522.98-.718 1.04-1.509-.53-.641-1.39.07-1.94.3a3.489 3.489 0 0 0-.45 2.113c.32.633 1.13.767 1.35 1.509zM6.28 13.541c.23.426 1.06.233 1.19.757.47 1.155-.88 2.2-.3 3.472.12.033.3 0 .3.15 1.87-.124 1.88-2.444 1.94-4.074-.17-.026-.16-.24-.15-.455-.35-.646-1.36-.64-1.49-1.509.68-.217.77-1.027.75-1.963-1.74-.359-2.77 1.2-3.14 2.718.28.323.31.9.9.9zm34.31 21.284c-.18-1.578-.81-2.7-.89-4.376a2.845 2.845 0 0 1-.75-1.359 6.665 6.665 0 0 1-1.19-1.056c-2.24-.153-5.23.462-6.41-.755-.22-1.573.24-3.613-.16-5.283-.31-.775.77-.139.6-.754-.39-.106-.31-.687-.74-.757-.1-.46-.81-.294-.9-.755a12.133 12.133 0 0 1-1.94-1.206 34.753 34.753 0 0 0-5.52-1.661c-2.8.163-4.78-.491-7.61-.3-4.45.578-8.41 1.656-11.49 3.622a5.3 5.3 0 0 0-1.49-.15 9.355 9.355 0 0 0-1.94 3.169c-.02.179.03.43-.15.453a136.78 136.78 0 0 0 .9 19.623A54.859 54.859 0 0 0 2.1 56.261a2.97 2.97 0 0 0 1.19.754 13.471 13.471 0 0 0 1.2.907 43.986 43.986 0 0 0 8.35 1.207 91.148 91.148 0 0 0 9.25.3 18.773 18.773 0 0 0 7.76-3.322c.65-.853 1.27-1.731 1.94-2.566a2.421 2.421 0 0 1 .75-1.811c0-.624-.38-1.431 0-1.963a7.669 7.669 0 0 0 3.58-.6 9.6 9.6 0 0 0 2.09-.152 4.578 4.578 0 0 0 2.38-2.416c-.39-3.849.15-7.7 0-11.772zM4.49 21.694a6.117 6.117 0 0 1 3.28-.754 15.691 15.691 0 0 1 8.95-1.814 14.193 14.193 0 0 0 1.64-.452 10.752 10.752 0 0 0 3.44-.15 8.619 8.619 0 0 1 4.02 1.057c1.36.336 2.58.813 3.14 1.961.09.855-.6.906-.6 1.66-.52.184-.5.905-1.34.755a2.429 2.429 0 0 0 0-1.661c-1.12-1.028-3.35-.935-5.22-1.207h-6.12c-3.07.068-5.28 1-8.51.907a11.822 11.822 0 0 1-1.19.6c-.2.349-.26.843-.9.757a3.314 3.314 0 0 1-.44 1.206 2.113 2.113 0 0 1-1.35-.754 1.326 1.326 0 0 1-.74-1.209 13.523 13.523 0 0 0 1.94-.9zm20.74 3.017c-.08-.078.11-.191.15-.15.07.078-.11.194-.15.15zm-1.05.3c-.07-.077.11-.191.15-.15.08.077-.1.191-.15.15zm-6.71-1.961c.8.095 1.59-.429 2.24 0a6.3 6.3 0 0 1-1.49.452 1.262 1.262 0 0 1-1.35-.15c-.1-.41.71.106.6-.3zm3.13 2.263a18.723 18.723 0 0 1 2.69-.3 9.371 9.371 0 0 1-5.82.754c.66-.535 1.95-.437 3.13-.452zM5.38 55.652a1.48 1.48 0 0 1-.89-.3c.14-.324 1.08-.2.89.3zm24.32-3.018a.409.409 0 0 0-.29.452 11.351 11.351 0 0 1-2.54 1.811c-2.37-.274-5.34.14-8.36 0-3.82-.176-7.81-.023-10.74-.907.4-.952 1.25-1.451 1.34-2.714-.17-.582-.64-.409-1.19-.3a2.215 2.215 0 0 0-.89.754c-.29.269-.47.639-.75.907-.03.333-.43 1.057-.75.6-.84-.007-.09-.958.15-1.206a4.705 4.705 0 0 1 .9-1.359c.45-1.044 1.46-1.54 1.64-2.867-.77-.466-1.48.265-1.94.6-.79.359-.89 1.416-1.79 1.661v-1.814a26.8 26.8 0 0 0 2.24-4.376 2.591 2.591 0 0 0 .44-.6c.22-.132.58-.119.45-.6.1-.47-.85-.63-1.04-.305a.962.962 0 0 0-.9.757 4.113 4.113 0 0 0-.74.905c-.19.131-.42.97-.6.6.07-.62-.4.144-.45-.452a.622.622 0 0 0 .45-.605v-1.359c.61-.886.99-2.015 1.64-2.867.38-1.078 1.11-1.8 1.49-2.868a1.262 1.262 0 0 0-1.79.452 3.881 3.881 0 0 0-1.19 1.512c-.5 0-.16-.856-.45-1.057a2.7 2.7 0 0 0-.6 1.359c-.42-.53-.27-1.638-.29-2.568a10.447 10.447 0 0 0 .74-4.376c-.12-.357-.77.01-.9.15-.32-.274-.02-1.18-.29-1.509v-3.774a15.75 15.75 0 0 0 8.35 1.814 20.56 20.56 0 0 1 3.29-.153c.31-.072.28.214.29.452a.883.883 0 0 1 .45.3 14.6 14.6 0 0 0 9.25-2.415c.81.013 1.24-.357 2.09-.3a15.11 15.11 0 0 1 1.94-.9h.15c.5-.155.23.468.3.755a2.784 2.784 0 0 1 .15.754 6.234 6.234 0 0 0 .3 1.512 19.028 19.028 0 0 0 .44 3.167c.03 4.861-.47 11.281-.15 16.6.07 1.039.3 2.064.45 3.021a4.53 4.53 0 0 0-.3 1.358zm5.67-5.435a27.338 27.338 0 0 1-3.13.605c-.44-.938.26-1.923.3-2.868a16.912 16.912 0 0 0 2.98-.452 1.294 1.294 0 0 0 .45-1.209 5.858 5.858 0 0 0 .6-1.057.961.961 0 0 1 .15-.754c.17-3.648-.55-6.4-.6-9.811-.22-.729-1.3-.595-1.79-1.057a2.5 2.5 0 0 1-1.34.15 1.142 1.142 0 0 1-1.05.152 6.759 6.759 0 0 0-.15-1.057 20.446 20.446 0 0 1 2.84.3c.99.087 1.57-.313 2.38 0 .8 1.155.71 3.208 1.35 4.528-.11 4.245-.1 7.719.15 11.773-.66.638-1.99.612-3.14.754zm-1.19-13.281v2.715c.17 1.687.25 3.467.45 5.133a3.446 3.446 0 0 1-2.09 1.207c.04-3.212-.02-6.322-.15-9.358.33-.265 1.12-.074 1.49-.3.45-.152.26.336.3.6zm0 0"
      fill="#47ffe7" fill-rule="evenodd"></path>
  </symbol>
  <symbol viewBox="0 0 23.53 44.437" id="icon-facebook">
    <path d="M18.34 8.319a10.278 10.278 0 0 0 4.21-.48 13.14 13.14 0 0 0 .98-4.8c-.3-.022-.1-.541-.33-.641-.05-.324-.44-.311-.48-.638-.44-.263-.72-.677-1.14-.96-1.14-.259-2.27-.537-3.4-.8a20.773 20.773 0 0 0-4.06.159C10 .095 7.83 1.959 5.85 3.996c-.04.125-.01.316-.16.319-.91 2.546-.2 5.808-.33 8.952.16.7.17 1.538.33 2.238a28.948 28.948 0 0 1-5.36.8c-.49.521-.27 1.747-.32 2.718.14.935.44 1.7.65 2.556a5.534 5.534 0 0 0 1.3.8.812.812 0 0 1 .16.161c.8.429 2.28.013 3.57.158-.22 3.176.4 6.282 0 9.112.01.525.46.612.32 1.279a13.585 13.585 0 0 0 .33 4.317 4.276 4.276 0 0 0-.65 2.879c.19.025.18.252.16.477-.12.756 1.01.281.81 1.121.26.731-.67.294-.65.8v1.44c.83.457 2.3.291 3.57.319 1.43-.672 3.44-.769 4.38-1.918a2 2 0 0 0 1.95-.32c-.03-.5.43-.536.32-1.121a5.284 5.284 0 0 1-.16-1.438v-4.636c-.33-3.675-.08-7.918-.49-11.509 1.4-.169 3.02-.12 4.06-.639.56-.722.59-1.974.81-3.039a2.54 2.54 0 0 0 .32-1.6 3.847 3.847 0 0 0 .16-1.757c-.22-.955-.26-2.087-1.29-2.237-1.39-.378-3.22.952-4.71.477.08-1.821-.46-3.757 0-5.435 1.18-.281 2.28-.634 3.41-.958zm-6 7.673a5.44 5.44 0 0 0 .65 1.118c.12.036.32.006.32.162a15.869 15.869 0 0 0 4.87-.481 12.135 12.135 0 0 1-.82 4 15.344 15.344 0 0 1-3.08.32 12.392 12.392 0 0 0-.97 1.119c-.08.708.22.794 0 1.277-.32.22-.09.981-.32 1.28v2.4c.13.449-.23.411-.16.8v5.594c-.14.453.22.414.16.8v4.8c.1.434-.21 1.266.16 1.438-.11.582-.65-.034-1.3.158a11.63 11.63 0 0 1-2.43.641 4.735 4.735 0 0 0 .49-1.757c.07-.611-.58-.5-.81-.8.3-1.032.88-1.793 1.13-2.878.31-.823 1.12-2.08.49-2.876-.83-.169-.82.472-1.3.638-.04.126 0 .317-.16.319-.04.126-.01.315-.16.323.01.191-.24.1 0 0 .03-.126 0-.318.16-.323.03-.122 0-.314.16-.319v-.48a9.314 9.314 0 0 0 1.3-3.2 7.692 7.692 0 0 0 .64-1.6 2.091 2.091 0 0 0 .17-1.919 1.509 1.509 0 0 0-1.46 1.119c-.51-.3.25-.694.16-1.119.22-.37.27-.907.49-1.277.32-.664.88-2.092 0-2.559a1.037 1.037 0 0 0-1.14.8 2.285 2.285 0 0 0-.81 1.121c-.59-.112-.22-1.167-.32-1.76a14.992 14.992 0 0 0 0-1.915c-.89-1.282-3.19-.171-5.03-.481a3.616 3.616 0 0 1-.16-1.918c1.64-.14 3.89.322 5.02-.319.04-.125.01-.317.17-.319a2.934 2.934 0 0 0-.81-2.24c.36-1.293.06-3.239.16-4.8a5.371 5.371 0 0 0 .81-.958c.18-1.532 1.06-2.367 1.13-4-.43 0-.95-.09-.97.319-.47-.184-.6.766-.81.32-.18-.869.39-1.006.49-1.6.94-.671 1.9-1.317 2.92-1.918 2.73-.39 7.3-.72 9.56.32.08.986-.44 1.369-.32 2.4h-2.43a47.738 47.738 0 0 0-4.71 1.6c-.37.107-.43.531-.8.639a10.463 10.463 0 0 1-.49 1.6c-.13 2.306.21 4.163.16 6.393zm0 0"
      fill="#d43eff" fill-rule="evenodd"></path>
  </symbol>
  <symbol viewBox="0 0 54.313 45.625" id="icon-folder">
    <path d="M54.169 12.2a6.451 6.451 0 0 1-1.044-1.35 2.08 2.08 0 0 1-.748-.451c-.44-.01-.842-.054-.749-.6-.341-2.241.842-4.35-.152-5.87-.665-.646-1.582-.18-2.838-.3h-3.44c-.817-.083-1.577-.222-2.393-.3-6.054.075-12.059.206-18.1.3-1.287.206-2.577.414-3.888.6a10.256 10.256 0 0 1-1.047-1.955 5.125 5.125 0 0 0-1.5-1.656c-1.889-.958-5.188-.5-7.927-.6-2.155.44-4.028 1.161-6.578 1.205-.494.257-.709.793-1.2 1.053-.409.34-1.254.24-1.494.752A27.191 27.191 0 0 0 .32 4.684c-.325.822.016 1.993-.3 3.01.008 5.759-.214 11.752.745 16.553.6 3.355.218 6.873.751 10.381a47.168 47.168 0 0 0 .3 5.418 10.375 10.375 0 0 0 1.646 4.211 3.525 3.525 0 0 1 1.047.6c.355.245.957.239 1.346.45a16.009 16.009 0 0 0 3.289.3 42.392 42.392 0 0 0 6.729-.3c3.6.116 6.742-.234 10.321-.149a75.407 75.407 0 0 1 11.216-.451 35.366 35.366 0 0 0 6.578.6 6.654 6.654 0 0 0 1.494.3 40.619 40.619 0 0 0 5.237-.151 4.8 4.8 0 0 0 1.347-1.5c.056-.092.243-.2.3-.3.76-1.416.751-3.147 1.2-4.816.059-4.5.579-8.545.748-12.941-.062-4.551.149-9.377-.149-13.694zM22.912 5.582c3.868-.242 7.858-.2 11.667-.152a72.4 72.4 0 0 1 10.765.752h3.591c.013 1.167-.258 2.05-.148 3.312-2.109-.487-3.732-1.463-6.43-1.355-.368-.283-.63.026-1.349 0h-5.831c-.619.119-.767-.232-1.346-.151H23.36c-.356-.091-1.085.19-1.2-.15-.6.106-.254-.75-.6-.9a7.151 7.151 0 0 0-.3-1.205 8.71 8.71 0 0 1 1.643-.15zm28.565 18.056c-.066 1.739-.072 3.2-.3 5.115-.037.322-.067.97-.149 1.655-.1.855-.2 2.509-.45 3.763v2.557c-.215 2.091-.359 4.253-1.2 5.72-3.289.2-5.741-.443-8.823-.453-.2-.7.694-1.478.6-2.557a1.462 1.462 0 0 0-.895-1.2c-1.135-.087-1.344.755-1.946 1.2-.149.8-.655 1.246-.748 2.106h-3.291c.645-2.207 2.053-3.651 2.542-6.018a1.348 1.348 0 0 0-.6-.6c-1.5-.008-1.523 1.478-2.394 2.107-.445 1.007-1.07 1.834-1.5 2.858a2.049 2.049 0 0 0-.148 1.656 29.864 29.864 0 0 0-4.638.3 3.882 3.882 0 0 1 .747-1.657c.776-1.506 1.49-3.159 2.393-4.663.364-1 1.119-2.1 1.646-3.16.121-.24.156-.614.3-.9.325-.665 1.169-1.44.3-2.256-.907-.06-1.057.641-1.493 1.053-.373.476-.716.987-1.049 1.5a32.384 32.384 0 0 0-1.794 3.31 21.57 21.57 0 0 0-1.794 3.311c-.556 1.149-1.426 1.976-1.5 3.611-1.815.2-3.607-.008-5.834.3a17.763 17.763 0 0 1 1.344-2.71 20.82 20.82 0 0 0 1.2-2.709 25.154 25.154 0 0 1 1.344-2.558 6.643 6.643 0 0 1 .6-1.354c.209-.443.788-.51.747-1.2-.125-.693-1.438-.5-1.794-.152a10.949 10.949 0 0 1-1.044 1.355 4.109 4.109 0 0 1-.9 1.5 2.447 2.447 0 0 1-.9 1.507c-1.037 2.217-2.634 3.87-3.441 6.32-1.456-.116-2.454.236-3.887.148a29.844 29.844 0 0 1 2.544-5.266 22.164 22.164 0 0 0 1.343-2.557c.517-.528 1.488-1.716.751-2.558-1.488-.144-1.68 1.02-2.545 1.5-.1.6-.658.742-.895 1.2a9.734 9.734 0 0 0-.748 1.206 64 64 0 0 0-2.841 5.114 2.906 2.906 0 0 0 .3 1.354H7.794c-.7-.009.174-.341.148-.6a7.889 7.889 0 0 1 .451-.9 16.788 16.788 0 0 0 .6-1.958 27.171 27.171 0 0 0 1.492-3.61 33.339 33.339 0 0 1 1.649-3.611 3.535 3.535 0 0 1 .895-1.656c.128-.608.8-1.285.151-1.8-.645-.3-1.139.322-1.645.6a10.774 10.774 0 0 1-1.2 1.354c-.184.665-.69 1.01-.9 1.657a10.385 10.385 0 0 0-.895 1.655 66.8 66.8 0 0 0-2.844 7.374 1.044 1.044 0 0 0 .3 1.053c-.437.381-.791-.605-.9-1.053a13.083 13.083 0 0 1-.448-1.805.61.61 0 0 1 .448-.6c.31-.041.141-.559.448-.6a33.255 33.255 0 0 1 1.2-3.762 29.248 29.248 0 0 1 1.344-3.613c.24-1.414.862-2.444 1.2-3.76.476-.376.422-1.283.895-1.656.054-.747.507-1.288 0-1.8-1.256-.07-1.571.97-2.242 1.656-.481.816-.885 1.714-1.344 2.557a49.654 49.654 0 0 0-2.244 5.416c-.431-.067.133-1.136-.3-1.2-.039-.492.58-.319.6-.752.4-.046.269-.634.6-.755.227-1.176.614-2.188.9-3.309.437-.911.534-2.171 1.046-3.01.239-1.162.758-2.043 1.047-3.16a4.8 4.8 0 0 0 .6-1.5 1.666 1.666 0 0 0 .6-1.355 4.124 4.124 0 0 0-.447-.752 1.881 1.881 0 0 0-1.646.453c-.043.3-.4.294-.451.6 0 .232-.4.5-.3 0a8.717 8.717 0 0 0 .748-2.4 3.684 3.684 0 0 0 .6-2.408c-1.078-.747-1.892-.033-2.393.752-.205.322-.484 1.1-.748 1.5-.478 1.475-1.077 2.828-1.5 4.365-.573-.731-.1-1.813.151-2.56-.01-1.715.256-3.152.151-4.965.412-2.441-.123-5.841.3-8.277h2.393c1.687-.158 3.079-.61 4.786-.752a37.362 37.362 0 0 1 5.235.152c0 .147.184.116.3.149 1.365 1.535 1.8 4.01 2.693 6.019a5.167 5.167 0 0 1 1.2.9 1.939 1.939 0 0 1 1.045.3c7.248.177 13.955-.5 20.937-.152a22.057 22.057 0 0 1 4.638 1.053c1.334.515 3.156.539 4.336 1.206a4.425 4.425 0 0 1 0 2.107c-.074 3.074.1 5.827 0 8.426zm0 0"
      fill="#ffd631" fill-rule="evenodd"></path>
  </symbol>
  <symbol viewBox="0 0 44.75 55.781" id="icon-github">
    <path d="M28.347 32.634c1.694-.048 2.671-.815 4.032-1.2 1.106-.684 2.911-.671 4.027-1.351a9.784 9.784 0 0 0 3.433-1.948c1.008-.789 1.96-1.633 2.986-2.4.724-1.274 1.665-2.326 1.939-4.055v-3.9a37.9 37.9 0 0 0-1.192-4.8 1.385 1.385 0 0 1-.6-.9 6.792 6.792 0 0 1-1.34-1.348 3.156 3.156 0 0 1-1.646-1.2c.338-.11.059-.844.152-1.2.337-.111.059-.841.148-1.2.427-.023-.131-1.032.3-1.053-.114-.62.231-.771.152-1.35.271-1.354 1.2-3.315.3-4.5a1.63 1.63 0 0 0-1.047-.152 1.092 1.092 0 0 0-.447.3c-.609.24-.914.783-1.492 1.053a7.023 7.023 0 0 0-1.343 1.2c-1.023.718-1.768 1.723-2.837 2.4a5.409 5.409 0 0 0-1.492.447 8.957 8.957 0 0 0-1.642.3c-1.13.16-2.256.329-3.433.448a2.758 2.758 0 0 1-1.2-.15c-.468-.074-.338.461-.895.3-1.479-.195-3.625.124-5.521 0a15.3 15.3 0 0 0-1.942-.3 6.021 6.021 0 0 1-1.939-1.8c-1.243-.395-2.116-1.17-3.433-1.5-.763-.232-.811-1.183-1.94-1.05-1.268.075-1.4 1.292-1.79 2.252a59.985 59.985 0 0 0 0 6.305 1.387 1.387 0 0 1-.747.9 4.375 4.375 0 0 1-.745.9c-.447.654-.755 1.446-1.2 2.1-.074.924-.363 1.635-.445 2.551v3.754a5.87 5.87 0 0 1 .3 1.652c.015.065.268.366.3.451.079.224.1.45.15.6a4.118 4.118 0 0 1 .3 1.053c.008.149.133.095.149.149.284.834.412 1.686.747 2.4a10.462 10.462 0 0 0 .6.9 2.286 2.286 0 0 0 .6.749c.051.041-.041.249 0 .3a13.04 13.04 0 0 1 1.642 1.651 8.687 8.687 0 0 0 4.177 1.351c.113.337.838.057 1.2.15a2.018 2.018 0 0 0 1.192.149 8.081 8.081 0 0 0 2.54.3 14.5 14.5 0 0 1-1.046 1.2c-.281.515-.932.661-1.046 1.351-.471.424-.264 1.533-.745 1.95a8.389 8.389 0 0 1-4.18-.6c-1.441-1.6-2.078-4.012-4.03-5.1-1.489-.273-3.011.116-4.625.15-.63.517-1.458.836-2.09 1.35-.76.386-1.635.659-1.643 1.8 1.528 1.148 2.8-.952 4.48-1.05.98-.036 1.627.265 2.686.149a10.984 10.984 0 0 1 1.494 2.851 15.842 15.842 0 0 1 1.492 1.954.607.607 0 0 1 .6.45 9.471 9.471 0 0 0 3.729 1.05h2.242a4.241 4.241 0 0 1 .744 3.453 6.323 6.323 0 0 1-.3.752c-.152.463-.215.854-.3 1.2a6.2 6.2 0 0 0-.6 1.5c-.96.733-1.74 1.649-3.433 1.652-1.027-.021-1.008-1.086-2.236-.9-.134-.566-.208-1.192-1.044-1.05-.643.262-.717 1.536-.451 2.254.246.754.612 1.387.9 2.1 1.148.947 3.438.75 5.523.751a2.648 2.648 0 0 1 1.2-.6c1.057-1.289 1.977-2.712 2.983-4.053.1-.695.494-1.107.6-1.8.174-.489.77-1.14 1.194-.9.293 2.211.093 4.91.149 7.354-.33.52-.46 1.241-.745 1.8a2.282 2.282 0 0 0-1.793.6 2.834 2.834 0 0 0 1.195 1.8 4.629 4.629 0 0 0 3.285-.9 15.514 15.514 0 0 0 1.044-3c.056-1.9-.031-4.171 0-6.456a10.956 10.956 0 0 0 .447-2.7c.318-.733.021-2.082.448-2.7a21.506 21.506 0 0 1 .151 2.852c.519 3.431 2.369 5.525 3.431 8.407a5.864 5.864 0 0 0 4.029 2.1 1.224 1.224 0 0 1 .747-.3 2.414 2.414 0 0 0 .6-1.951.231.231 0 0 1-.148-.3c-.41-.888-1.7-.9-2.39-1.5a25.3 25.3 0 0 0-1.788-3.457 18.4 18.4 0 0 0-1.2-3.3c.043-.793-.384-1.112-.3-1.95-.31-.039-.039-.659-.3-.752-.11-.512.609-.19.45-.749a6.792 6.792 0 0 1 1.192 2.55 14.555 14.555 0 0 0 3.282 4.054 8.457 8.457 0 0 0 4.779 2.7h1.939c.023-.278.507-.1.6-.3a.658.658 0 0 1 .6-.3 13.246 13.246 0 0 0 1.341-1.954c.3-.694.573-2.257-.148-2.7-1.871-.033-2.042 1.65-3.582 1.951-2.8-.649-4.641-2.9-5.818-4.954-.09-.15-.059-.281-.151-.451a33.8 33.8 0 0 1-2.389-4.655 6.555 6.555 0 0 1-1.044-1.348 1.341 1.341 0 0 1-.6-.6c-.289.07-.763-.406-.448-.453zm8.808-22.668c.006.01.136-.28.149-.3a1.231 1.231 0 0 1 0-.149c.532-.093.013.666-.149.45zm-.9 3.755c-.305-.047-.292-.408-.6-.451.209-.79.672-1.328.895-2.1.268-.021.314.182.6.151.246 1.346-.683 1.514-.9 2.4zm1.046 1.5a2.425 2.425 0 0 1 .6-1.352 2.111 2.111 0 0 1 .447.749c.039.541-.447.551-.447 1.055-.3-.046-.292-.409-.6-.452zm4.475 5.854c.319.049-.021.656-.146.751a1.542 1.542 0 0 1-.3.9c-.443.355-.42 1.181-1.194 1.2-.7-.013.176-.345.148-.6a3.817 3.817 0 0 0 .45-.749 5.3 5.3 0 0 0 1.042-1.5zm-1.193-1.351a1.827 1.827 0 0 1 .448-.9c.724.19-.107 1.322-.448.9zm.151-6c.376.545 1.087 1.757.445 2.4-.6-.151-.6-.9-1.043-1.2a2.938 2.938 0 0 1 .6-1.2zm-.45 7.055a8.388 8.388 0 0 0-1.344 1.8c-.48-.4.129-.965.3-1.2a7.991 7.991 0 0 0 .744-1.053.417.417 0 0 1 .3.453zm-.448-8.108c0 .3-.406.19-.3.6a1.134 1.134 0 0 1-.748-1.2 1.1 1.1 0 0 1 1.044.6zm-.6 3.605a1.247 1.247 0 0 1 .448 1.8c-.471-.129-.425-.778-.9-.9.141-.306.305-.6.448-.9zm-.9 3.451c-.547-.309-.007-.782-.15-1.5a2.039 2.039 0 0 1 .6.752c.072.471-.4.394-.448.749zm.3-16.364c.433.494-.289 1.107-.148 1.8-.64.039-.65-.548-1.047-.754a7.613 7.613 0 0 0 1.2-1.05zm-2.241 1.652h.45c0 1.024 1.5 1.076 1.044 2.1a4.853 4.853 0 0 1-1.642-1.5.982.982 0 0 1 .148-.6zm-.9 1.953a1.16 1.16 0 0 1 .451.149c.048.7.847.649.895 1.351a2.639 2.639 0 0 0-.45.6c-.755-.088-.757-.934-1.343-1.2a4.4 4.4 0 0 0 .447-.9zm0 7.955c-.514.1-.534-.525-.3-.752.3.111.609.453.3.752zm-1.34-8.258c.077-.232.154-.008.148.151-.266.044-.307-.141-.148-.151zm.148 2.553a1.232 1.232 0 0 1 .448.148c0 .649.744.554.747 1.2-.468.63-.755 1.444-1.2 2.1a3.485 3.485 0 0 1-1.494-.749c.527-.872.967-1.832 1.494-2.7zm-.747 5.105h-1.942a4.506 4.506 0 0 1 .451-.9 1.2 1.2 0 0 1 .744.452c.382.018.768.029.747.451zm-1.192-6.454a1.186 1.186 0 0 1 .149-.453c.577-.129.532.368.895.453-.217.63-.775.921-.895 1.65-.576.272-.448 1.25-1.2 1.351-.585-.443-.066-1.158.3-1.5a4.181 4.181 0 0 1 .75-1.5zm-1.194-.3a21.4 21.4 0 0 0-1.195 1.954c-1.146-.474-.4-2.448 1.195-1.954zm-1.047 4.357c.3 0 .192.406.6.3-.056.894-.634 1.264-.447 2.4a.832.832 0 0 0-.6-.146.923.923 0 0 0-.3-1.2 5.956 5.956 0 0 1 .745-1.351zm-1.044-1.052c-.164.784-.767 1.126-.9 1.95-.3-.141-.588-.306-.893-.45a19.009 19.009 0 0 0 1.044-2.1.943.943 0 0 1 .747.6zm-.6-3.153c.077.078-.107.19-.151.152-.076-.08.11-.193.151-.152zm-2.538 2.4a12.347 12.347 0 0 1 .747-1.05 1.151 1.151 0 0 1 .151-.45c.305.044.289.407.594.45a6.148 6.148 0 0 1-.745 1.2c-.335.314-.366.934-.895 1.052-.494-.37-.036-.73.148-1.2zm1.193 4.053c-.064.34-.735.062-1.044.152a4.1 4.1 0 0 0 .3-.451c.46-.113.286.412.745.3zM21.761 7.72h4.029c-.186 1.012-1.038 1.356-1.34 2.252a4.214 4.214 0 0 1-.9-.45c.113-.639.7-.8.6-1.65-.758-.062-.875.522-1.344.746a.6.6 0 0 1-.6-.45c-.141-.157-.55-.044-.45-.448zm3.285 6.606c-.256.344-1.138.054-1.645.152a10.1 10.1 0 0 0 1.049-1.954c.22.078.376.224.6.3a1.159 1.159 0 0 0 0 1.5zm-2.389-1.5a.942.942 0 0 1-.745-.6 11.078 11.078 0 0 1 .745-1.35c.348.1.4.5.744.6a7.944 7.944 0 0 1-.744 1.351zm-.745 1.655c-.4.09-1.185-.191-1.343.146-.446-.311.373-.609.3-1.049.376.272 1.024.272 1.047.9zm-1.343-5.407a4.533 4.533 0 0 1 1.044.752c-.123.673-.771.823-.9 1.5a3.549 3.549 0 0 1-1.044-.6c.074-.778.783-.916.9-1.655zM17 7.714v.152c1.228-.36 1.671.6 2.837.146.029.528-.5.5-.6.9-.391.1-.315.682-.744.749a4.529 4.529 0 0 1-1.643-1.2c-.033-.283.169-.33.148-.6a2.52 2.52 0 0 1-.746.146c-.152-.5.465-.231.746-.3zm2.541 4.8c-.21.988-1.141 1.257-1.195 2.4a1.5 1.5 0 0 1-1.046-.6c.23-.919.911-1.387 1.2-2.252.578-.082.614.384 1.046.45zm-3.584-2.7c.079.077-.107.193-.151.149-.074-.077.11-.191.151-.149zm.3.3a4.155 4.155 0 0 1 1.044.9 28.541 28.541 0 0 0-1.494 2.553 9.241 9.241 0 0 1-1.64-.9c.361-1.187 1.64-1.454 2.09-2.553zm-1.494 6.158a12.367 12.367 0 0 0-1.19.6 10.282 10.282 0 0 1-1.345-.752 12.792 12.792 0 0 1 1.046-2.1c.87.026 1.108.684 1.789.9a2.435 2.435 0 0 0-.3 1.353zm-3.282-2.105c-.276.265-.451 1.122-.895.752a9.372 9.372 0 0 1 1.194-2.252 4.073 4.073 0 0 0 .448.3 6.15 6.15 0 0 1-.747 1.2zm1.194-2.7c.077.08-.107.191-.15.152-.077-.077.109-.193.15-.152zm2.986-4.352c-.4.443-.829-.363-1.2-.45.353-.393.778.412 1.2.45zm-1.2 1.349c-.442.911-1.258 1.439-1.642 2.4-.3-.044-.292-.407-.6-.451a11.548 11.548 0 0 1 1.492-2.7c.393.1.316.682.746.749zm-3.284-1.5V4.71c.708.391 1.55.643 2.238 1.052a1.807 1.807 0 0 0-.6.749c.082.53-.53.371-.448.9a4.306 4.306 0 0 0-1.044 1.652c-.345-.4-.053-1.448-.15-2.1zm-.446 3.451c.077-.232.154-.01.149.152-.269.041-.307-.144-.149-.152zm-.3 1.05c.686.273-.35.659-.3 1.2-.435.213-.34.962-.9 1.053.1-1.05.786-1.514 1.195-2.255zM8.64 19.272c.379-1.067.788-2.107 1.192-3.152h.45c-.286.878-.882 2.025-.45 3.152a2.622 2.622 0 0 0-.895 1.352c-.381-.165-.294-.806-.3-1.352zm3.282-1.2c-.412.033-.34.555-.6.751a2.688 2.688 0 0 1 .149.748c-1.279 1.4-1.66 5.227-.6 7.206.179-.015.089.219 0 0a6.707 6.707 0 0 1-1.643-3.3c.22-1.43.916-2.382 1.192-3.754.346-.1.4-.5.748-.6-.105-.556.252-.644.15-1.2.174-.089.218-1.057.6-.45.658-.023.041.425 0 .6zm7.614 11.407c-1.507-.188-3-.383-4.479-.6a7.321 7.321 0 0 1-1.492-1.654 5.739 5.739 0 0 1-.6-1.047c-.263-.237-.194-.806-.447-1.053a29.363 29.363 0 0 1 .3-4.053c.215-.883.933-1.261 1.343-1.953a15.38 15.38 0 0 1 1.791-1.5 5.607 5.607 0 0 0 1.043-.3 3.5 3.5 0 0 0 1.047-.3c3.635.2 6.214-.656 9.849-.452.768.12.98-.317 1.643-.3h3.282a1.191 1.191 0 0 0 .448-.152c.456-.108.442.26.9.152a.56.56 0 0 1 .6.6c.2.154.548.146.747.3.445 1.356 1 2.6 1.343 4.056v2.4a17.938 17.938 0 0 1-1.939 4.354c-.53.42-1.384.509-1.942.9a2.371 2.371 0 0 1-1.046.3c-.052.4-.76.139-.893.453-4.021.339-7.5-.105-11.492-.152zm12.237-4.653c1.2.1 1.36-.833 1.79-1.5-.023-1.879.3-4.108-1.491-4.2h-.3a5.471 5.471 0 0 0-1.643 2.1 8.554 8.554 0 0 0 .151 2.249c.563.386.563 1.335 1.492 1.353zm-15.225.448a2.234 2.234 0 0 0 2.241.152c1.082-1.1.58-4.038-.151-5.106-2.5-.751-3.032 3.119-2.09 4.954zm8.509.152c.025-.175.235-.162.448-.152a1.466 1.466 0 0 0 .15-1.5.968.968 0 0 0-1.645.6 1.133 1.133 0 0 0 1.047 1.05zm.6 1.652a5.086 5.086 0 0 1-1.345.149c-.975-.069-1.031-1.062-2.088-1.049a.746.746 0 0 1-.45.447c.236 1.567 1.617 1.976 3.285 2.106a2.429 2.429 0 0 1 1.044-.153c.726-.486 2.43-1.2 1.494-2.4-1.036-.1-1.274.617-1.94.9zm0 0"
      fill="#ffd631" fill-rule="evenodd"></path>
  </symbol>
  <symbol viewBox="0 0 49.94 47.375" id="icon-google">
    <path d="M26.87 29.114a15.355 15.355 0 0 0-4.1-3.148 18.134 18.134 0 0 0-2.37-1.26c-.59-.673-1.69-.837-1.74-2.045a3.745 3.745 0 0 1 1.58-.786c.35-.437.88-.7 1.26-1.1a7.947 7.947 0 0 0 2.53-2.2 7.507 7.507 0 0 0 .63-2.988 11.689 11.689 0 0 0 .16-1.259 12.664 12.664 0 0 0-1.58-5.353 5.787 5.787 0 0 0 1.11-2.043 30.317 30.317 0 0 0 .63-3.777c-.38-.887.15-2.67-.63-3.148h-.95a.805.805 0 0 0-.48.472A7.57 7.57 0 0 1 18.35 4.1c-1.06-.2-1.88-.65-3.01-.789h-3.95a23.661 23.661 0 0 1-3.31 1.26C5.02 7.3 3.04 11.09 2.23 16.06v2.359a2.016 2.016 0 0 1 .32 1.1c1.07 1.762 2.9 2.77 4.74 3.775 1.18.239 1.94.891 3.31.945a3.5 3.5 0 0 0 1.74.316c.76-.025.7.769 1.11 1.1a16.675 16.675 0 0 1-4.11.473c-.5.336-1.25.434-1.74.786-.66.229-.97.815-1.73.943-.91.882-1.94 1.637-2.85 2.519a3.279 3.279 0 0 1-.79 1.259 3.7 3.7 0 0 1-.79 1.416 24.188 24.188 0 0 0-1.26 3.148 8.992 8.992 0 0 0 0 3.617 7.582 7.582 0 0 0 7.42 6.3 8.956 8.956 0 0 0 3.32 1.1c1.5.154 3.15-.231 4.58.16a5.262 5.262 0 0 1 1.9-.631c1.51-1.009 3.4-1.649 4.89-2.674a12.392 12.392 0 0 0 3.95-3.621c.36-1.324.71-2.652 1.11-3.934.07-2.492.36-5.029-.32-7.079a.252.252 0 0 1-.16-.316zM5.08 17.944c.08-.242.16-.01.15.159-.08.239-.16.008-.15-.159zm19.74 19.2c-.24.031-.14.38-.16.629a12.623 12.623 0 0 1-4.74 4.877c-1.91.188-3.11 1.1-4.89 1.416a10.5 10.5 0 0 0-3.32.316c-2.41-.375-4.62-.961-6-2.361-.52-.349-.7.329-1.11 0a15.547 15.547 0 0 1-1.74-2.832 23.032 23.032 0 0 1 .48-5.034 12.126 12.126 0 0 1 1.73-2.046 9.083 9.083 0 0 1 5.53-5.036 1.025 1.025 0 0 0 .79-.157c.72.285 1.99.008 2.06.943.19.661-.67.283-.79.63a2.205 2.205 0 0 0-1.27.157c-1.23.29-1.52 1.523-3 1.575-.67.748-1.06 1.773-1.73 2.516a6.756 6.756 0 0 1-.32 1.1c-.28.249-.21.843-.47 1.1a29.4 29.4 0 0 0 0 4.877c.41.9 1.51 1.113 2.21 1.732a10.536 10.536 0 0 1 3.31.627c1.46-.017 2.69-.257 4.27-.156 1.17-.4 2.04-1.11 3.16-1.573a.238.238 0 0 1 .31-.157.25.25 0 0 1 .32-.156c-.02-.19.23-.1 0 0v.156c.84.044-.06-.673.79-.629a3.163 3.163 0 0 1 .95-.946 14.762 14.762 0 0 0 1.42-2.2v-3.934a7.907 7.907 0 0 0-.95-2.046 11.756 11.756 0 0 0-1.11-.786 3.075 3.075 0 0 0-.94-.943c-.76-.563-1.41-1.228-2.22-1.732-.35-.8-1.12-1.192-1.42-2.045a6.316 6.316 0 0 1-1.26-2.362h-1.9a35.522 35.522 0 0 1-3.47-1.1 11.2 11.2 0 0 1-3-3.931v-3.62a10.431 10.431 0 0 1-.16-2.046 7.946 7.946 0 0 1 4.42-7.239c1.51.088 2.29-.547 3.64-.627a13.172 13.172 0 0 1 1.42.314 21.6 21.6 0 0 1 2.53 1.259 4.887 4.887 0 0 0 1.26.63 2.266 2.266 0 0 0 1.1.786.806.806 0 0 0-.63-1.1 24.918 24.918 0 0 1 2.37-1.415 2.971 2.971 0 0 1-.47 1.732 5.835 5.835 0 0 1-.16 1.573 1.34 1.34 0 0 0 .16.942c.52.237-.33.386-.16.789a8.607 8.607 0 0 1 .95 5.034c-.16.525-.28 1.082-.48 1.573a3.163 3.163 0 0 0-.31 1.416c-.58.689-1.52 1.01-2.06 1.731a5.2 5.2 0 0 1-2.21 1.573c-.21.735-.89 1-1.26 1.573a14.911 14.911 0 0 1 .47 1.732c.31.627.74.185 1.11.63a10.03 10.03 0 0 0 1.74 1.888 6.576 6.576 0 0 1 1.26.473 15.061 15.061 0 0 0 2.53 2.358 15.4 15.4 0 0 1 1.42 4.092v3.46zm-5.85-6.453c1.2.853 2.4 1.709 2.22 3.935.04.832-.75.832-.95 1.415a13.482 13.482 0 0 0-1.11 1.262c-.87.334-1.38 1.038-2.37 1.256a4.027 4.027 0 0 1-1.26.473c-.31.268-.98.18-1.26.47a25.537 25.537 0 0 0-3.64.16 8.9 8.9 0 0 1-2.05-2.518v-2.518a11.8 11.8 0 0 1 4.11-3.935 28.938 28.938 0 0 1 6.31 0zm-3.78-2.675h.94c.02.378-1.91.09-.94 0zm2.36-8.182a3.057 3.057 0 0 1 .95-.629.951.951 0 0 1 .47-.63 25.645 25.645 0 0 0 .48-5.663c-.26-1.37-.66-2.6-.95-3.934a4.448 4.448 0 0 1-.95-1.1 14.676 14.676 0 0 0-2.84-1.26c-2.63-.208-4.66.183-5.53 1.732a1.7 1.7 0 0 0 .48 1.416c-.2.219-.84.007-.63.63a2.778 2.778 0 0 1-.16 1.1c-.24 3.589.57 6.14 2.21 7.867a12.672 12.672 0 0 0 2.37.787 23.8 23.8 0 0 1 3.47-.157c.03-.231.38-.144.63-.157zm-1.73-2.2c-1.12.046-2.57-.249-2.85.63a9.117 9.117 0 0 1-1.89-3.934c.1-1.781-.27-3.086-.16-4.88a2.057 2.057 0 0 1 .63-.627 4.723 4.723 0 0 1 1.9-.159 12.44 12.44 0 0 1 1.74 1.575c.23-.087.81.182.78-.16a4.958 4.958 0 0 1 1.27 2.518v3.148a21.118 21.118 0 0 1-1.42 1.889zm33.8 8.185c.26-.53.05-1.522.31-2.048a2.094 2.094 0 0 0-.94-1.576c-.86-.167-.94.43-1.74.317a6.712 6.712 0 0 0-3.47-.158v-1.888a17.738 17.738 0 0 1-.32-3.461c-.2-.722-.17-1.675-.32-2.046s-.54-.465-.63-.786h-.95c-1.61.591-2.74 1.673-4.42 2.2-.45.753-.29 2.12-.32 3.3a12.961 12.961 0 0 0-.15 2.991h-3.16c-.3.48-.75-.183-1.27 0 0 .259-.43.085-.47.313a3.471 3.471 0 0 0-.47.316c-.25.723.16 1.021.15 1.886a24.248 24.248 0 0 0-.31 3.935 4.4 4.4 0 0 1 .63 1.1c1.16.583 3.3.26 4.74.157a29.411 29.411 0 0 0 .47 5.666c.6.4.99 1.007 1.58 1.416.97-.085 2.29.18 3-.157a1.5 1.5 0 0 0 1.58.157c.74-.689.47-2.043.48-3.3 0-1.306.1-2.711.16-3.777a17.18 17.18 0 0 0 2.84-.314c.66.175.83.843 1.89.627a1.912 1.912 0 0 0 .95-2.045 15.9 15.9 0 0 0 .16-2.829zm-15.01-.476a.675.675 0 0 1 .32.63.358.358 0 0 1-.32-.63zm.16 1.259v-.313c.14.028.15-.062.16-.157.31-.064.23.717-.16.47zm4.42-2.359c.35-.028.07.558.16.787h-.63c-.08-.5.43-.417.47-.787zm7.74 3.461c-.94-.354-1.74.075-2.84 0-.35.088-.23-.3-.47-.315h-1.74c.08-.232.23-.4.31-.627-.67-.2-.42.522-.78.627v7.239a1.966 1.966 0 0 0-.95-.471 1.583 1.583 0 0 0-.32-1.1c.25-.9.69-1.617.95-2.519a.963.963 0 0 0-1.11-.786c.05-.416-.33-.406-.63-.47v-.946c-.23-.6.71-.031.47-.63.02-.534-.58-.465-1.1-.47a.755.755 0 0 1 .95-.472c.33-.075.3.223.31.472a.932.932 0 0 1 .48.314c.54.066.47-.47.79-.63a4.95 4.95 0 0 0-.64-2.359c-.17-.753.25-1.254-.47-1.572-.5-.024-.54.4-.63.786-.37-.329-.17-1.419.31-1.416-.11-1.3 1.15-1.971.64-3.148a.935.935 0 0 0-1.11.786c-.36-.321-.05-1.3-.16-1.888.08-.5-.28-.555-.15-1.1a6.969 6.969 0 0 0 1.89-.945.252.252 0 0 1 .32.159c-.12 2.739.19 5.055.16 7.709a4.454 4.454 0 0 0 1.73.316 13.194 13.194 0 0 1 1.9.47h1.1c.45-.082.82-.231 1.27-.316-.31.951-.24 2.28-.48 3.3zM19.45 40.293h-.32v.151a.246.246 0 0 0 .32-.157zm-.32.157h-.31a.157.157 0 0 0 .31 0zm0 0"
      fill="#47ffe7" fill-rule="evenodd"></path>
  </symbol>
  <symbol viewBox="0 0 57.68 41.344" id="icon-letter">
    <path d="M57.42 1.37c-.44-.958-2.29-.5-3.17-1.012-.91-.186-.88.574-1.67.508-.14-.42-1.16.049-1.33-.34h-1.67a2.84 2.84 0 0 0-1.51-.168c-.45-.1-1.32.215-1.5-.168-6.26-.243-13.28-.274-19.53 0-3.94.083-8.02.988-12.36 1.012a89.465 89.465 0 0 0-12.68.5c-.77.583-1 1.7-1.67 2.363C.09 5.397.25 7.139-.01 8.452c.76 8.009 1.16 16.375 1.84 24.46.02.709.64.809.66 1.519a18.581 18.581 0 0 0 .67 3.206 2.663 2.663 0 0 0 1.51.5c-.02-.2.24-.1 0 0a1.011 1.011 0 0 1-.34.508c-.06 1.578 1.31 1.716 2.51 2.025a34 34 0 0 0 4.17.169c1.28.228 2.68.324 4.01.5h15.02c3.54-.528 7.48-.657 11.02-1.18 4.08.02 7.42-.714 11.19-1.015.79-.184.23 1.007.83 1.015a.916.916 0 0 0 1.17.506 1.636 1.636 0 0 0 1.17-1.521 9.6 9.6 0 0 0 .16-2.528v-5.4c.23-3.369.48-6.721.5-10.292.36-3.242.18-7.021.51-10.289.06-1.731.32-3.266.5-4.893a8.9 8.9 0 0 1 .33-2.364c.14-.75.51-1.5 0-2.023zM6.17 4.576h11.35a98.2 98.2 0 0 1 13.69-.843c.29.034.43-.29.5 0a1.229 1.229 0 0 0 .83-.169.953.953 0 0 1 0 .169 2.771 2.771 0 0 1 1.01 0 1.3 1.3 0 0 0 .33 0 9.507 9.507 0 0 1 1.17 0s.03-.2.17-.169a.286.286 0 0 0 .16.169c.34.043.95-.008 1.51 0-.05 0 .08-.275.16-.169a2.606 2.606 0 0 0 1.51.169 17.087 17.087 0 0 1 2.33 0 68.932 68.932 0 0 1 10.52.673c.71-.029 0 .261 0 .507a3.031 3.031 0 0 0-.67.507 8.95 8.95 0 0 0-1.16 1.012 21.307 21.307 0 0 0-2.67 1.687 45.99 45.99 0 0 0-5.18 3.711c-.44-.145-.3.318-.67.339-.28.013-.34.487-.67.5a3.855 3.855 0 0 0-.83.507 1.059 1.059 0 0 0-.5.5c-1.08.376-1.66 1.248-2.67 1.688-1.57 1.4-3.33 2.6-4.84 4.05a17.981 17.981 0 0 1-3.01-2.2 20.935 20.935 0 0 1-3-1.687c-.86-.655-1.89-1.128-2.68-1.856-2.12-.885-3.93-2.1-6.01-3.035-4.16-1.866-7.96-4.1-12.01-6.074.26-.473.74.236 1.33 0zM3 4.744c.02-.046.36-.312.5-.168.12.124-.68.5-.5.168zm5.67 33.572a3.71 3.71 0 0 1 .34-1.011 3.642 3.642 0 0 1 .5 1.18 1.1 1.1 0 0 1-.84-.169zm6.51 0h-1.83c.43-.968 1.07-1.731 1.5-2.7.68.326.18 1.84.33 2.7zM53.92 8.962c-.3 5.1-.58 10.22-1.01 15.183v2.192c.14.479-.23.437-.16.844v2.531c-.42 1.716.13 4.409-.5 5.9-1.26-.09-2.05.3-3.35.169-4.08.871-9.09.82-13.18 1.684.13-.988.83-1.4 1-2.36-.09-.489-.26.259-.5.168a1.014 1.014 0 0 1-.5.676 7.579 7.579 0 0 1-.67 1.516c-1.65.132-3.16.409-4.84.507.68-1.281 1.8-2.117 2.17-3.711-.52-.437-.9.344-1.17.675a4.219 4.219 0 0 0-1 1.349 3.916 3.916 0 0 1-1.34.844 2.772 2.772 0 0 0-.16 1.011h-6.52c.01-.691.85-1.169.51-1.684-.9.108-.82 1.195-1.34 1.684a33.793 33.793 0 0 0-4.17.171 19.367 19.367 0 0 0-.84-3.375c-.36-.739.26-1.04 0-1.518a5.928 5.928 0 0 0-3.5 2.023.856.856 0 0 0-1.01-.5c-1.08.089-1.26 1.077-2.17 1.349a4.355 4.355 0 0 0 .51-1.687 2.218 2.218 0 0 0-1.51 1.183 4.97 4.97 0 0 1-1.17 1.516.776.776 0 0 1-.16.507c-.07.29.24.432 0 .507-.87-.023-1.47-.316-2.34-.339.05-.4.58-.313.5-.843.47-.026.39.507.84.507a1.934 1.934 0 0 0 1.33-1.519 11.352 11.352 0 0 0 1.17-1.856 13.981 13.981 0 0 0 2-3.879c-1.98.411-2.67 2.13-3.84 3.372.02.207-.24.1 0 0 .56-1.4 1.38-2.541 2.01-3.879.54-1.291 2.11-2.3 1.5-4.219-1.84-.056-2.16 1.416-3.17 2.2-.53 1.317-1.56 2.14-2.01 3.543-.39-.142.02-.869.17-1.012a8.56 8.56 0 0 1 .33-1.351c.47-.649.58-1.663 1.01-2.362.17-.893.62-1.507.83-2.361.28-.843.95-1.3 1-2.362a1.4 1.4 0 0 0-1-.844c-.95.044-1.21.8-1.84 1.181-.37 1.26-1.13 2.116-1.5 3.373-.38-.178-.06-1.06-.17-1.516a10.539 10.539 0 0 0 .34-1.351 7.531 7.531 0 0 0 .33-1.348c.39-.166.15-.973.5-1.182.27-1.77 1.77-3.145 1.17-5.23-1.42-.145-1.86.706-2.34 1.518-.37-.124-.06-.946-.16-1.348-.38-.181-.07-1.06-.17-1.519-.33-2.65-.56-5.39-.83-8.1a5.009 5.009 0 0 1 .83 1.012 31.751 31.751 0 0 1 3.34 2.195c1.25.587 2.2 1.485 3.5 2.023 2.15 1.54 4.79 2.586 7.02 4.048a14.832 14.832 0 0 1 3.5 2.023 30.248 30.248 0 0 0 3.34 2.195c.92.926 2.38 1.309 3.17 2.362a6.246 6.246 0 0 1 1.67 1.18c.82.127 1.23.678 2.34.508a1.932 1.932 0 0 0 1.34-1.351 25.76 25.76 0 0 0 2.67-1.688c.69-.82 1.81-1.2 2.5-2.023 1.08-.375 1.66-1.247 2.67-1.687.83-.686 1.79-1.227 2.67-1.856 3.24-2.749 7.35-4.606 10.36-7.592.37.39.13 1.588 0 2.025zM6 35.11c.32.168-.08 1.027-.5 1.012A.865.865 0 0 1 6 35.11zM54.92 3.564c.03-.194.16-.093.16 0-.03.192-.17.094-.16 0zm0 0"
      fill="#ffd631" fill-rule="evenodd"></path>
  </symbol>
  <symbol viewBox="0 0 50.594 52.625" id="icon-like">
    <path d="M50.291 21.566a30.462 30.462 0 0 0-2.253-2.564c-1.187-.316-2.177-.83-3.454-1.056-1.38-.175-2.9-.206-4.207-.453h-2.7a5.766 5.766 0 0 0 .9-1.356c.538-.265.538-1.069 1.052-1.357a5.321 5.321 0 0 1 .148-1.509c.5-.5.73-1.277 1.2-1.809.294-.76 1.046-1.061 1.2-1.96a24.787 24.787 0 0 1 .3-5.58 3.909 3.909 0 0 1-.6-2.112c-.917-.488-1.354-1.457-2.4-1.809h-1.8c-1.75.655-2.377 2.436-4.2 3.017-1.955 3.867-5.31 6.329-8.411 9.048a57.311 57.311 0 0 1-4.5 4.222 11.658 11.658 0 0 1-2.4 1.961 14.712 14.712 0 0 1-2.7 1.809 3 3 0 0 0-1.051-1.961 22.009 22.009 0 0 0-5.556-1.2c-1.346 0-2.451.255-3.9.149a1.962 1.962 0 0 1-1.051.3 1.469 1.469 0 0 1-.9.45 4.185 4.185 0 0 1-1.07 1.054C.676 21.505.746 25.493.138 28.8c-.166 5.965-.171 12.093-.148 18.248a6.548 6.548 0 0 1 .45 1.357c.338.313.427.876.75 1.2a8.771 8.771 0 0 0 3.153.756c1.719.937 4.567.74 7.208.752.666-.184 1.118-.582 1.8-.752.965.113 1.087-.62 1.653-.905a2.649 2.649 0 0 0 1.2 1.509c.566-.782 1.5.3 2.252.3.655.4 1.786.319 2.553.6 2.956.25 5.8.611 8.86.753a29.305 29.305 0 0 1 4.506-.149 60.161 60.161 0 0 0 6.006-1.357 2.849 2.849 0 0 1 1.051-.6 8.084 8.084 0 0 0 2.554-4.975c.146-1.372-.107-2.863 0-4.525.791-.763 1.771-1.336 2.551-2.112a3.217 3.217 0 0 1 .753-1.206c.425-2.336.77-4.754 1.049-7.239a9.254 9.254 0 0 0 2.255-4.222 18.116 18.116 0 0 0-.3-4.675zm-46.4 2.563a3.119 3.119 0 0 1 .15-1.509 6.246 6.246 0 0 1 .6-2.562c.143 0 .115.185.148.3a47.652 47.652 0 0 0-.9 5.126 1.374 1.374 0 0 1 0-1.356zm9.01-.453c-.27.283-.331.774-.6 1.056a123.43 123.43 0 0 0-1.052 6.936c.011 1.421-.1 2.02 0 3.318-.392 2.1.18 4.276.151 6.486a10.212 10.212 0 0 0 1.049 2.262c.128 1.231.441 2.277.6 3.466a21.884 21.884 0 0 1-5.407 0c.026-.478.351-1.11 0-1.506-1.082-.234-1.105.6-1.952.6.23-.925.822-1.488 1.051-2.413.392-.6 1.047-1.619.751-2.413-.615-.259-1.39.47-1.8.9-.673.168-.865 1.486-1.5 1.206v-2.261a8.328 8.328 0 0 1 .749-1.358c.021-.634.581-.724.6-1.359a2.383 2.383 0 0 0 1.052-1.054 1.929 1.929 0 0 0-.3-.755c-.049-.352-.655-.147-.75-.453a2.33 2.33 0 0 0-.9.152c-.218-.082-.366.588-.45.149.711-5.317-.322-12.386 1.8-16.284a22.81 22.81 0 0 1 .6-.3 11.351 11.351 0 0 0 1.8.149 2.955 2.955 0 0 1 1.052.455c1.617-.069 2.369.735 3.905.753a12.181 12.181 0 0 0-.45 2.261zm34.087 3.017a12.132 12.132 0 0 1-1.354 1.809 7.466 7.466 0 0 1-.6 1.509 31.307 31.307 0 0 1-1.051 6.784 22.893 22.893 0 0 1-2.7 1.96 5.172 5.172 0 0 0-.451 1.962 2.677 2.677 0 0 0 .451 1.207c-.287 1.822-.31 3.911-1.2 5.127-.9.851-2.434 1.074-3.9 1.357a5.137 5.137 0 0 0-2.555-.452c-.57.1.157-.784-.45-.905-1.075-.126-.952.954-1.8 1.056-.819.067-1.234-.27-2.1-.151 0-.956.855-1.051.752-2.11a4.6 4.6 0 0 1-.3-.455c-1.506.046-2.064 1.04-2.85 1.812-.451-.3-1.418-.085-2.1-.152.061-.655.531-1.136.148-1.809-1.827-.178-1.939 1.367-3.153 1.809.11-.8.927-2.048 0-2.562-.824-.126-.64.763-1.2.9-.386.319-.42.989-1.054 1.059a3.744 3.744 0 0 0-1.049-.756c.483-.971 1.141-1.77 1.651-2.714.381-.8 1.4-1.953.749-2.865a2.625 2.625 0 0 0-2.4 1.357 3.034 3.034 0 0 0-.9.9c-.338.263-.345.859-.9.905-.378-1.357 1-1.922 1.2-3.166.466-.288.42-1.087.9-1.36.095-.621.632-1.035.3-1.657-1.369-.118-1.581.928-2.4 1.357a4.747 4.747 0 0 1-.752 1.056c-.338.262-.346.858-.9.9V37.55a13.53 13.53 0 0 1 1.8-3.168c.458-1.146 1.52-1.688 1.65-3.166-.529-.262-1.241.411-1.8.6a5.1 5.1 0 0 1-1.653 1.056 7.505 7.505 0 0 0 .149-2.264c.488-.511.883-1.125 1.351-1.657.187-.317.417-.589.6-.9a.6.6 0 0 0 .6-.756 1.241 1.241 0 0 0-1.2-.3 1.936 1.936 0 0 1-.9.6c.184-1.423.5-2.711.749-4.072a44.2 44.2 0 0 0 8.11-5.88c.148-.6.624-.881.75-1.508a30.2 30.2 0 0 0 4.2-3.318 22.59 22.59 0 0 0 3.9-3.621 1.006 1.006 0 0 1 .753-.149 2.3 2.3 0 0 1 .148-.9c1.05-.806 1.6-2.112 2.7-2.865a2.876 2.876 0 0 1 .152-1.2.985.985 0 0 1 .9-.3c.175-.714-.347-1.234 0-1.658a1.171 1.171 0 0 1 .45.149 6.736 6.736 0 0 1 1.052 3.321 10.214 10.214 0 0 1 .45 1.356c-.378 2.485-1.686 4.035-2.852 5.731a9.422 9.422 0 0 1-1.8 2.562c-.412.992-1.412 1.4-1.953 2.264a12.335 12.335 0 0 0-1.8 1.054 1.706 1.706 0 0 0-1.351 1.356c-.133.99.712 1 1.2 1.359a5.732 5.732 0 0 0 2.7-.451 62.41 62.41 0 0 0 6.758.148 28.736 28.736 0 0 0 3.3.3 1.977 1.977 0 0 0 1.052.3 1.217 1.217 0 0 0 .9.3 6.815 6.815 0 0 0 1.051 1.056 20.307 20.307 0 0 1-.148 3.77zM8.996 21.566a4.227 4.227 0 0 0-3.455.6 12.605 12.605 0 0 0-.6 3.166 2.457 2.457 0 0 1 .149 1.054c.34.316.432.876.752 1.207a5.279 5.279 0 0 0 1.2.754 3.541 3.541 0 0 0 3.455-1.961 2.771 2.771 0 0 1 .148-1.206 3.242 3.242 0 0 1-.148-1.356c-.348-.257-.2-1.007-.6-1.208a4.06 4.06 0 0 0-.9-1.054zm-1.052 3.919c-.418-.182-.28-.925-.3-1.508a1.482 1.482 0 0 1 .3 1.508zm0 0"
      fill="#47ffe7" fill-rule="evenodd"></path>
  </symbol>
  <symbol viewBox="0 0 32.907 55.125" id="icon-mobile">
    <path d="M32.451 9.609c-.01-1.248.469-2.008.308-3.406-.249-.784-.382-1.682-.617-2.477A8.071 8.071 0 0 0 29.359.939a13.457 13.457 0 0 0-3.863-.31c-.675.21-.913-.1-1.546.154-.266-.454-1.587.146-1.855-.308-2.76-.123-5.158-.613-8.189-.464a.239.239 0 0 1-.31.154 23.909 23.909 0 0 0-5.1.31 11.069 11.069 0 0 0-4.946.62.241.241 0 0 1-.31.154c-.473.659-1.43.839-1.546 1.857A6.674 6.674 0 0 0 .458 5.429c.087 4.409-.463 8.878-.463 13.314 0 4.552.22 9.037.463 13.47a62.006 62.006 0 0 0-.154 6.657 51.3 51.3 0 0 0 .154 6.657 15.494 15.494 0 0 0 .31 4.334 1.444 1.444 0 0 1 .463 1.085 10.23 10.23 0 0 0 2.163 2.01 14.148 14.148 0 0 0 2.936 1.395c.121.033.307 0 .31.153 3.01.134 5.905.383 8.811.621 3.023-.12 5.841-.443 9.118-.31.174-.341 1.019-.01 1.08-.464.543.028.51-.524.926-.618.482-.554 1.611-.454 2.32-.777.622-1.237 1.935-1.777 2.626-2.941.883-4.157.469-9.594.776-13.932.2-4.855.443-9.673.617-14.555-.218-3.908-.179-8.075-.464-11.919zm-30.6 38.239c-1.062-.167-.481-1.777-.156-2.321.359.467.054 1.6.156 2.321zm.31-2.942c.08.08-.112.2-.159.157-.079-.079.113-.2.159-.157zm0 3.252c-.189.015-.1-.223 0 0a.888.888 0 0 1 .617.154c-.043.366-.576-.013-.617-.154zm2.78 4.647c-.425 0-.369-.732-.154-.931a1.028 1.028 0 0 1 .618.153c.163.58-.325.5-.464.778zm2.627-7.9c-.274-.112-.021-.279 0-.464.276.113.023.282 0 .464zm.929 3.1c-.358-.469.343-1.2.461-1.7.279.019.327-.189.621-.156-.268.716-.944 1.021-1.082 1.859zm1.853 3.251a.456.456 0 0 0-.31-.309.824.824 0 0 1 1.39-.775.955.955 0 0 1-1.08 1.084zm.619-4.954c0-.151.19-.12.308-.156 0 .152-.19.121-.308.156zm-.463-1.084a11.161 11.161 0 0 1-1.236.464c-.164-1.439 1.605-1.1 2.626-.928a1.64 1.64 0 0 1-1.39.464zm4.017 6.038a3.841 3.841 0 0 0-1.39-.93 1.441 1.441 0 0 0-.62-.929v-2.476c.7-1.313 2.519-1.5 3.865-2.167a6.911 6.911 0 0 1 1.546.617 9.518 9.518 0 0 1 1.081 3.562c-.33 2-2.161 2.759-4.482 2.323zm9.427-3.1c-.261-.765.213-2.277 1.236-1.7-.158.824-.327 1.631-1.236 1.7zm3.4-2.321v-.31c.133.028.146-.061.156-.154.3-.064.225.706-.156.464zm-.154-6.5c-.448.634-1.106 1.062-1.546 1.7-3.264.085-6.876-.18-9.891.154-1.767-.118-3.059.239-4.79.157a8.728 8.728 0 0 1-2.319.153 2.327 2.327 0 0 1-2.009-.464 1.046 1.046 0 0 1-.77-.928 3.344 3.344 0 0 1-.464-1.239 41.63 41.63 0 0 1-.156-5.728 1.24 1.24 0 0 1-.156-.311 2.986 2.986 0 0 0 0-.774c-.208-5.088.156-10.647 0-16.1.041-.841.368-1.388.465-2.167a10.885 10.885 0 0 1 .155-2.324 12.14 12.14 0 0 1 .465-4.643c1.945-.218 3.973-.351 6.026-.465a56.4 56.4 0 0 1 6.338-.154c.264.034.4-.263.461 0a40.8 40.8 0 0 1 7.884 0c.525 1.162.31 2.78.31 4.334v4.644a66.092 66.092 0 0 0 .772 8.362 103.964 103.964 0 0 0-.775 15.791zm0 0"
      fill="#47ffe7" fill-rule="evenodd"></path>
  </symbol>
  <symbol viewBox="0 0 46.031 52.624" id="icon-network">
    <path d="M44.133 37.668c-.9-.706-2.077-1.952-3.175-2.227-.2-.051-.335-.123-.477-.159-.2-.052-.333-.123-.474-.159a11.743 11.743 0 0 0-2.065-.16 9.005 9.005 0 0 0-1.111-.159 4.276 4.276 0 0 1-1.43.159 18.687 18.687 0 0 0-2.063 1.113 9.313 9.313 0 0 0-1.11.477c-.511.075-.562.607-1.114.638-1.149-.972-2.551-1.686-3.652-2.7a4741.637 4741.637 0 0 0-3.811-2.546c-1.439-.68-2.524-1.715-3.971-2.386a12.515 12.515 0 0 0-1.906-1.271c-.6-.457-1.5-.622-1.9-1.272a3.626 3.626 0 0 0 .316-1.431c.328-.735 1.3-.822 1.746-1.431.806-.308 1.275-.953 2.065-1.274.462-.6 1.306-.811 1.747-1.431.79-.321 1.262-.963 2.064-1.271a30.59 30.59 0 0 1 3.812-2.705c.6-.517 1.308-.915 1.9-1.431a2.685 2.685 0 0 0 1.909-1.431 7.494 7.494 0 0 0 2.061 1.749 19.4 19.4 0 0 0 3.494.638 11.347 11.347 0 0 0 3.493-.8 9.079 9.079 0 0 0 2.383-1.908 9.49 9.49 0 0 0 1.906-2.387 9.272 9.272 0 0 0 .792-3.5c-.066-.781-.212-1.485-.315-2.227C43.008 2.453 39.42-.675 33.179.131a.778.778 0 0 1-.795.319 10.771 10.771 0 0 0-3.175 7.156c-1.155.8-2.394 1.527-3.494 2.387a40.2 40.2 0 0 1-3.808 2.225c-.447.563-1.283.732-1.75 1.271a21.175 21.175 0 0 0-1.9 1.115c-.508.5-1.241.773-1.749 1.272a21.508 21.508 0 0 1-1.906 1.112 14.286 14.286 0 0 0-2.383-1.59 21.932 21.932 0 0 0-5.555-.478c-.029.237-.382.146-.637.162a.774.774 0 0 1-.792.316 10.377 10.377 0 0 1-1.588 1.115 13.375 13.375 0 0 0-3.652 7.315 33.929 33.929 0 0 0 .318 5.087c1.129 3.481 3.688 5.531 8.416 5.407a7.776 7.776 0 0 0 3.493-1.271 1.575 1.575 0 0 0 .8 1.749c.844.35 1.185-.141 1.906-.316a11.823 11.823 0 0 0 1.587 1.272 4.952 4.952 0 0 0 1.588 1.272c.292.662 1.116.791 1.429 1.43.761.19.962.946 1.746 1.113a6.493 6.493 0 0 0 1.588 1.273 6.411 6.411 0 0 0 1.747 1.113 6.312 6.312 0 0 0 1.746 1.115c.613.393 1.418.59 2.065.953v3.976a14.807 14.807 0 0 0 .952 1.75 5.567 5.567 0 0 0 1.428 1.431c.944.909 2.5 1.2 4.13 1.43h2.859c4.4-.837 7.457-3.028 8.257-7.475v-3.175a10.551 10.551 0 0 0-1.909-4.293zm-6.35-24.175a2.994 2.994 0 0 0 .159-1.271c.559.023.451.714.634 1.112-.382-.064-.344.29-.793.159zm-1.428-8.906a1.66 1.66 0 0 0 0-1.431c2.9.065 4.093 1.837 5.714 3.183.159.532.5.874.636 1.431.113 2.019-.97 2.846-1.747 3.974-.725.336-1.067 1.053-1.905 1.274-.388-.938-.675-1.975-1.111-2.864a1.923 1.923 0 0 0-.954.478c.018.192-.231.1 0 0a2.293 2.293 0 0 0-.318-2.228c-.485-.112-.467.275-.952.16a7.857 7.857 0 0 1 1.429-2.862 1.452 1.452 0 0 0-.792-1.115zm-.319 8.113c.311.072.285 1.114-.318.793a2.007 2.007 0 0 0 .318-.793zm-19.849 6.679c.5.025.53-.425 1.11-.319a1.624 1.624 0 0 0 .954.319 1.971 1.971 0 0 0 1.429-2.069c1.634-.908 2.971-2.116 4.766-2.861.569-.7 1.68-.861 2.221-1.593a7.041 7.041 0 0 0 2.224-1.431h.477c.043.751.646.941.792 1.59h-1.269a26.532 26.532 0 0 0-3.337 2.069c-.952.793-2.134 1.358-3.016 2.224a5.057 5.057 0 0 0-1.588 1.115c-.713.134-.875.819-1.588.953-.308.591-1.08.722-1.429 1.274-.641.2-.874.82-1.587.953.125-.92-.231-1.359-.159-2.224zM5.073 31.146c.082-.234.234-.4.316-.634.372.108.425.526.8.634-.188.429-.829 0-1.111 0zm2.38.16a4.83 4.83 0 0 0 .8-1.113 2.275 2.275 0 0 1 .318.953 1.709 1.709 0 0 1-1.113.16zm5.876-7.794c.028.56-.536.524-.635.955a1.652 1.652 0 0 0 .317 1.431 8.116 8.116 0 0 1-2.539 4.452c-.7-1.254-.5-3.422-1.59-4.293a3.313 3.313 0 0 0-1.744.953c-.262-.108-.054-.295 0-.475.049-.161.082-.39.159-.637.026-.085.3-.416.315-.475.047-.2-.033-.432 0-.637a1.065 1.065 0 0 0-1.269-.8c.054-.581.628-.64.474-1.429-.146-.624-.8-.136-1.269-.161.428-.895 1.587-1.062 1.9-2.066.011-.966-.674-1.236-1.429-1.431.347-.395.924-.559 1.27-.955a9.519 9.519 0 0 1 4.922.8 1.438 1.438 0 0 0 .637.635 1.6 1.6 0 0 0 .476.955v3.178zm4.922 10.814c-.956-.357-.079-1.5-.159-2.384.334.2.619.44.954.638a10.3 10.3 0 0 1-.8 1.746zm1.588 1.115a5.966 5.966 0 0 0 .477-1.749c.59.416.308 1.706.634 2.384a3.63 3.63 0 0 1-1.111-.635zm9.529 4.93c-.326.339-.631-.044-.952-.159a7.651 7.651 0 0 1-.954-.478c-.664.036-.752-.257-1.27 0-.623-.647-1.59-.956-2.224-1.59-.969-.3-1.4-1.146-2.382-1.431a5.569 5.569 0 0 0-.159-2.543c.135-.031.149.059.159.156 1.487.9 2.906 1.863 4.288 2.865.677.488 1.439.891 2.065 1.431.567.477 1.963.66 1.429 1.749zm2.541 6.838c-.554-.082-.233-1.038-.32-1.59a1.045 1.045 0 0 1 .32 1.59zm10.8-1.271a.913.913 0 0 1-.318.318c-.051.043.044.262 0 .318a6.432 6.432 0 0 1-1.269 1.113 3.625 3.625 0 0 1-1.748.8 10.841 10.841 0 0 0-.951-1.75 1.035 1.035 0 0 0-.159-1.272c-1.7-.023-2.506 2.351-1.588 3.5.606.275.993-.469 1.111-.156.021.657-1.105.164-1.587.318-.629-.058-1.522.144-1.9-.162-.056-1.484.675-2.183.952-3.339a11.338 11.338 0 0 1 .792-1.431 3.159 3.159 0 0 0 .8-1.43c.011-.543-.589-.471-1.113-.479.247-1.024 1.078-1.466 1.429-2.383-.175-.738-1.285-.984-2.062-.638.013.193-.233.1 0 0a3.458 3.458 0 0 1 2.221-1.112c1.139-.128 3.045.121 3.334.476a1.607 1.607 0 0 0 .318 0 .807.807 0 0 0 .636.318 12.007 12.007 0 0 1 1.747 2.384 8.78 8.78 0 0 1-.636 4.614zm0 0"
      fill="#d43eff" fill-rule="evenodd"></path>
  </symbol>
  <symbol viewBox="0 0 52.563 48.875" id="icon-robot">
    <path d="M52.552 42.644v-5.2a13.325 13.325 0 0 1-.15-2.969 2.143 2.143 0 0 1-.3-.891c-.814-1.553-3.139-2.018-4.9-1.484a8.111 8.111 0 0 1-1.186.146c.154-1.089-.28-2.062 0-2.819a4.554 4.554 0 0 1-.447-1.782c-1.332-.447-3.208-.355-4.6-.745-3.465-.154-5.885.306-8.906.3a19.56 19.56 0 0 1-.146-2.673c.888-.149 1.93-.147 2.818-.3.646.1.837-.251 1.483-.148.452-.093 1.281.189 1.487-.15.5.337.718.963 1.778.745a1.92 1.92 0 0 0 .6-.595 3.653 3.653 0 0 1 .295-1.04V11.906c.167-.97.673-1.6.6-2.819-.559-1.024-2.14-1.027-3.119-1.633a2.758 2.758 0 0 1-1.185-.149c-6.116-.03-11.686.483-17.366.891.226-1.116-.69-1.088-1.036-1.633.266-.77 1.075-1 1.036-2.08-.02-.423-.618-.27-1.036-.3-.17-.278-.578-.316-.742-.593a9.612 9.612 0 0 1 1.629-1.19 2.192 2.192 0 0 0 .3-2.225c-1.694-.629-3.711.246-2.967 2.077-.772.17-1.625.256-1.483 1.338.033.606.618.665 1.188.742.216.474 1.068.315 1.481.593-.313.922-1.676.8-1.781 1.931a1.371 1.371 0 0 0 .446 1.037c.129.185.955.414.593.6-1.367.511-3.282.473-4.748.889-.734 1.494-.465 3.99-.742 5.942v4.9c-.118 1.258-.449 2.881 0 3.86a1.466 1.466 0 0 0 1.484.148 3.612 3.612 0 0 0 1.486.447h7.417c.006.932.293 1.587.3 2.525a33.915 33.915 0 0 1-4.155-.15c-3.689.316-6.622 1.393-10.537 1.485-.025.172-.235.161-.446.146-.282.511-1.09.491-1.337 1.04-.152 1.269.657 2.278.446 3.117a3.48 3.48 0 0 0-1.632-.3A5.754 5.754 0 0 0 .91 34.769a21.9 21.9 0 0 0-.891 7.128c.278.364.154 1.132.447 1.484.084.26-.18.87.149.891.084.262-.18.871.148.891.229 1.156.18 2.591 1.335 2.819 1.581-.064 1.117-1.782.744-2.819a43.886 43.886 0 0 0-.744-3.862 16.047 16.047 0 0 1 .744-5.939 7.272 7.272 0 0 1 3.709-1.187c.283 2.142.765 4.086 1.04 6.235a26.853 26.853 0 0 0 .592 6.535c.147.493.773.514.891 1.037a.907.907 0 0 0 1.037.892 1.076 1.076 0 0 0 1.042-1.189v-2.376a7.519 7.519 0 0 1-.449-1.633 67.477 67.477 0 0 0-1.037-11.432c2.466-.5 4.448-1.489 6.973-1.931 2.449-.57 5.534-.506 8.165-.891 5.2-.164 9.822-.349 15.137-.146a21.1 21.1 0 0 0 4.156.742c.418 4.329-.126 9.627.295 13.956v2.524c.213.681.2 1.587 1.04 1.634.895-.388.72-1.855.744-3.12V33.435c1.7.083 3.94-.377 4.45.894v9.352c-.151.837-.5 2.643.6 2.674a1.029 1.029 0 0 0 1.185-1.338 11.168 11.168 0 0 0 .15-2.373zM7.585 30.765h-.3v-.3h.3v.3zm21.664-5.939c-.441-.213-.9.521-.888-.149h1.928a12.072 12.072 0 0 0 .148 2.524c-1.47.285-.767-1.6-1.188-2.375zm-.149-2.525c-.354.09-1.075-.187-1.186.149-3.629.018-6.965-.256-10.684-.149-.8.239-2.074.006-2.523.593-.418-.148.041-.629 0-.888v-3.564c-.07-1.518-.223-2.946-.149-4.6a15.013 15.013 0 0 1-.149-2.969c2.89-.031 5.136-.7 8.013-.742 2.916.047 5.716-.023 8.462-.149a1.136 1.136 0 0 0 .444-.149c2.382.144 5.413-.367 7.123.447-.814 3.233-.331 7.724-.3 11.432a29.876 29.876 0 0 0-5.045.447c-1.053-.113-1.694.185-2.673.146h-1.337zm6.679-9.8a.227.227 0 0 1-.146-.3c-.152-.391-.588-.5-.742-.891a2.745 2.745 0 0 0-4.007 1.931 5.166 5.166 0 0 0 .593 2.822c2.528.991 4.463-.909 4.3-3.564zm-1.482 1.186a1.5 1.5 0 0 1-2.078 1.338c.293-.935 1.378-3 2.078-1.338zm-12.021-.742a2.935 2.935 0 0 0-3.119-1.189 4.453 4.453 0 0 0-1.334.745.407.407 0 0 1-.3.444c.023.914-.318 1.461-.3 2.378.218.025.133.357.149.593a.4.4 0 0 1 .3.444 3.2 3.2 0 0 0 3.711.3 5.3 5.3 0 0 0 .891-3.713zm-1.633 2.821a2.459 2.459 0 0 1-1.924-.291 8.154 8.154 0 0 0 .592-1.635 2.08 2.08 0 0 1 1.484-.295 2.777 2.777 0 0 1-.147 2.225zm10.388 1.783c-1.053-.321-2.272.226-3.414-.149-1.081.583-2.182.256-3.709.3-.318.278-.988.2-1.188.6a2.266 2.266 0 0 0-.891 1.04 3.67 3.67 0 0 0 .3 1.928c.9.735 2.659.36 3.858.149 1.96-.018 4.119.162 5.194-.742.619-.665.657-2.64-.148-3.117zm-6.381 2.375a1.387 1.387 0 0 1-1.484.149c.054-.84.732-1.05 1.484-1.189v1.04zm2.374 0h-.89a6.778 6.778 0 0 0-.149-1.04 1.612 1.612 0 0 1 1.042-.146v1.186zm3.265-.149a1.915 1.915 0 0 1-1.633.149v-1.186h1.633v1.037zM17.23 38.929a46.327 46.327 0 0 1 5.934-.892c.539-2.621-.069-5.366-1.779-6.234h-2.523a15.506 15.506 0 0 0-4.6 2.673 2.829 2.829 0 0 1-.592 1.037c-.026.224.053.55-.15.6.17 1-.282 2.034 0 2.673.8.462 2.331-.015 3.712.147zm-2.375-1.484a4.346 4.346 0 0 1 .3-1.932 13.178 13.178 0 0 1 3.119-2.08h2.52a4.265 4.265 0 0 1 .742 3.269c-.527-.125-.889.429-1.037-.148a2.042 2.042 0 0 1-.742-.594c-.711-.077-1.276-.94-2.079-.447a1.534 1.534 0 0 0 .295 1.041c.167.1.77.493.446.593a11.666 11.666 0 0 1-3.56.3zm24.933-4.751a2.337 2.337 0 0 0-.3 2.078c.4.67 1.912.754 2.821.446a3.683 3.683 0 0 0 .3-1.931 2.278 2.278 0 0 0-2.821-.593zm1.632 1.633c-.385.09-.534-.061-.444-.447.138.159.546.046.444.447zm-7.271-1.04c-.206.958-.26 2.229.3 2.82a5.712 5.712 0 0 0 2.672.3 2.564 2.564 0 0 0 1.186-2.673c-.637-1.161-3.214-1.659-4.153-.445zm1.484 1.189a.925.925 0 0 1 1.039 0c.082.357-1.16.537-1.039 0zm-6.977.3a2.685 2.685 0 0 0 .745 1.483c.018.013.328.16.295.15 1.111.334 2.8-.406 2.967-1.633a2.808 2.808 0 0 0-.444-1.634 2.273 2.273 0 0 0-3.563 1.634zm1.781-.3v-.447c.19-.205.886-.259.891.149.044.475-.649.54-.891.3zm19 .3a1.084 1.084 0 0 0-1.633 1.335 3.949 3.949 0 0 0 .893.595 6.2 6.2 0 0 0 .889-.595 2.518 2.518 0 0 0-.149-1.335zm-45.562 3.12a1.6 1.6 0 0 0 1.042 0 1.663 1.663 0 0 0 .146-1.932c-1.106-.639-1.62 1.043-1.188 1.932zm24.49 4.008c-.326.318-1.216.069-1.484.444a6.225 6.225 0 0 0-1.783.149c-1.33 0-2.356.313-3.709.295a34.673 34.673 0 0 1-3.562.3c-.747-.1-1.035.252-1.779.149-.7 0-1.209.18-1.189.891.493.7 1.753.447 2.819.447h3.264a31.3 31.3 0 0 1 4.751-.447c.111-.337.832-.057 1.186-.149a3.522 3.522 0 0 1 1.039-.3c.681-.21 1.584-.2 1.633-1.037a.9.9 0 0 0-1.186-.742zm5.639 2.968a1.133 1.133 0 0 0 1.186.593 1.52 1.52 0 0 0 .89-1.782c-.629-1.363-2.25-.331-2.076 1.189zm-11.429.891c-.953.085-1.738.339-2.669.444h-1.787c-.523.219-1.391.1-1.781.447a17.169 17.169 0 0 0 2.375.448h3.562c.955-.383 2.751.079 2.672-1.339-.478-.721-1.687-.013-2.377 0zm0 0"
      fill="#d43eff" fill-rule="evenodd"></path>
  </symbol>
  <symbol viewBox="0 0 59.07 48.406" id="icon-telegram">
    <path d="M58.56 1.225C57.92.418 56.38.502 55.43.011a1.363 1.363 0 0 1-.52.173 7.572 7.572 0 0 0-1.57.694 9.7 9.7 0 0 0-1.56.867 16.073 16.073 0 0 0-3.3 1.388c-1.25.306-2.18.936-3.47 1.214-1.03.535-2.28.846-3.3 1.386-2.5.625-4.47 1.78-6.94 2.428a70.007 70.007 0 0 1-7.13 2.255 7.392 7.392 0 0 1-1.73.52 17.514 17.514 0 0 1-1.91.519 19.236 19.236 0 0 1-3.65 1.042c-.94.619-2.5.622-3.47 1.213a18.011 18.011 0 0 0-1.91.348c-.44.364-1.35.27-1.74.693-2.71.412-4.69 1.562-7.29 2.082a6.068 6.068 0 0 1-1.74.519c-.39.421-1.29.329-1.74.694a1.652 1.652 0 0 0-1.56.867 1.423 1.423 0 0 0-.87 1.561c1.07 1.19 3.04 1.473 4.52 2.253 1.33.925 3.25 1.257 4.69 2.08 1.81.445 3.06 1.45 4.86 1.908.55.547 1.53.669 2.08 1.214a4.649 4.649 0 0 1 1.22.519c.15.427.97.191.87.869-.26 3.215-.57 6.37-.7 9.709.13 1.862-.28 3.183-.17 5.03v2.6c-.19 1.114.6 1.245 1.04 1.733 2.27.3 2.68-1.26 3.82-2.08.27-.707.9-1.064 1.22-1.736a15.622 15.622 0 0 0 1.21-1.9 35.028 35.028 0 0 0 3.3-3.3 11.584 11.584 0 0 0 1.57-1.736c.76-.391 1-1.311 1.9-1.558 2.25 1.1 4.75 1.965 6.95 3.119a34.276 34.276 0 0 1 3.47 1.561c1.19.494 2.14 1.217 3.3 1.734a8.649 8.649 0 0 1 1.39 1.388c.66.329.8 1.173 1.91 1.041a1.772 1.772 0 0 0 1.39-.521c.22-.478.89-.5 1.22-.867.13-.889-.3-1.317 0-1.905 1.54-2.508 2.05-6.046 2.6-9.539.8-3.312 1.38-6.837 1.91-10.4.02-.962.37-1.6.35-2.6.38-.661.26-1.82.7-2.427a37.926 37.926 0 0 1 1.21-4.855c-.06-1.044.41-1.556.35-2.6.37-.146-.07-1.106.35-1.211.1-.414-.22-1.26.17-1.388a2.376 2.376 0 0 1 .17-1.39c.11-.414-.22-1.257.18-1.385a8.676 8.676 0 0 0-.52-2.6zM10.45 21.34c-1.41-.262-2.38-.974-3.82-1.214.31-.557 1.51-.234 1.91-.694.87.06 1.22-.406 2.09-.347.13.941-.28 1.345-.18 2.255zm4.34 1.906c-.9-.427-1.97-.687-2.43-1.561v-3.122c1.02-.026 1.5-.586 2.61-.52a43.693 43.693 0 0 0-.18 5.2zm1.91.866c-.59-1.952-.54-4.541-1.21-6.413a6.986 6.986 0 0 0 2.61-.695.261.261 0 0 1 .34.173c-.12 2.392-.48 5.707.18 7.8a11.651 11.651 0 0 1-1.92-.869zm8.34-9.016c.68-.126 1.26-.36 1.91-.519.03 1.7-.3 3.772 1.21 3.988 1.29.013 1.1-1.455 1.22-2.6a2.578 2.578 0 0 0-.52-1.733 11 11 0 0 1 2.78-1.04c.85-.272 1.52-.46 2.26-.693a1.356 1.356 0 0 1 .52-.175c.17-.008.11-.152.17-.173.95-.313 2-.526 2.95-.866a15.329 15.329 0 0 1 2.96-1.042c-.02-.208.25-.105 0 0-2.45 1.9-5 3.68-7.3 5.722-1.25.949-2.37 2.029-3.64 2.947a20.3 20.3 0 0 1-1.74 1.564 10.167 10.167 0 0 1-1.91 1.386 8.021 8.021 0 0 1-.87-2.95v-3.814zm-4.69 1.389a12.817 12.817 0 0 0 2.6-.866.265.265 0 0 1 .35.172c-.02 2.173-.5 4.309 0 6.069a4.314 4.314 0 0 1 .52.867c.33.071.75.064.7.519-1.09.414-1.66 1.348-2.78 1.735-1.36-.951-1.24-3.383-1.21-5.724a10.543 10.543 0 0 1-.18-2.772zm8.51 17.688c-.53.164-.7.689-1.56.519-1 1-1.88 2.518-2.78 3.294-.18.15-.51.165-.7.348-.26.259-.41.727-.69 1.039-.32.37-.77.524-1.04.866a1.35 1.35 0 0 0 0 .348c-.03.054-.3.112-.35.174-.41.566-.69 1.183-1.04 1.734-.53-.376.17-.977 0-1.561v-5.9c.37-2.322-.03-4.454.69-6.242.46-.586 1.42-.671 2.09-1.041a6.719 6.719 0 0 1 1.91-1.211c1.16-.98 2.13-2.15 3.3-3.123a7.21 7.21 0 0 1 1.39-.519 623.02 623.02 0 0 0 4.51-3.816 15.411 15.411 0 0 0 2.26-1.908 12.4 12.4 0 0 0 2.43-1.906c.62-.077.76-.627 1.22-.866a4.442 4.442 0 0 0 1.21-.867 15.084 15.084 0 0 1 2.61-1.561c.68-.71 1.73-1.041 2.43-1.736 1.1-.345 1.62-1.268 2.78-1.558-.02-.211.25-.108 0 0-3.57 4.124-6.73 8.658-10.6 12.483-.13.789-.94.912-1.21 1.561a5.56 5.56 0 0 0-1.39 1.561c-.66.264-.73 1.121-1.39 1.385-.27.718-1.01.96-1.21 1.736-2 1.888-3.05 4.711-4.87 6.764zm3.99-1.389a1.6 1.6 0 0 1 1.05-.866 5.881 5.881 0 0 0 .17 1.386 4.33 4.33 0 0 0-1.22-.52zM52.3 19.605a120.845 120.845 0 0 1-2.25 12.138 4.356 4.356 0 0 1-.87 1.561 28.575 28.575 0 0 1-1.22 6.588 8.316 8.316 0 0 1-1.73-1.039 6.357 6.357 0 0 1-1.74-1.041c-1.46-.332-2.38-1.2-3.82-1.561-.25-.617-.18-1.559-.69-1.906-.99-.231-.87.641-1.39.867-.95-.271-1.62-.813-2.61-1.041-.34-1.109-.87-2.022-1.21-3.123.42-1.43 1.86-1.839 2.42-3.119.92-.88 1.56-2.032 2.44-2.948 1.49-2.154 3.42-3.862 5.03-5.9 1.88-1.764 3.43-3.865 5.21-5.722a1.9 1.9 0 0 1 .7-.694c.44-.512.71-1.009 1.21-1.561a.854.854 0 0 0 .52-.52 8.669 8.669 0 0 1 1.4-1.561 10.5 10.5 0 0 1 1.21-1.386c.12-.079.19.1.17.172-.84 4.01-2.17 7.54-2.78 11.792zm0 0"
      fill="#ffd631" fill-rule="evenodd"></path>
  </symbol>
  <symbol viewBox="0 0 50.188 42.625" id="icon-twitter">
    <path d="M50.095 8.618c-.482-.773-1.939-.584-3-.783h-2.374a17.193 17.193 0 0 1 1.108-2.037 11.482 11.482 0 0 0 .475-2.661c.276-.352.377-.881.632-1.253a1.246 1.246 0 0 0 .157-1.409c-.109-.466-.629-.525-1.264-.469a1.086 1.086 0 0 0-.474.314c-.957.914-1.664 2.14-2.692 2.973a.492.492 0 0 1-.158 0c-.186.01-.069.1-.16.158-.312.2-.549.321-.789.469a6.428 6.428 0 0 1-1.9 1.1 13.149 13.149 0 0 0-3.956-.781c-2.471.214-4.918.455-6.488 1.564-1.945.741-3.155 2.2-4.592 3.448-.105.676-.729.839-.789 1.564-.01.1-.025.184-.157.159a2.583 2.583 0 0 1-.157 1.094c0 .281.425.911 0 1.1-1.757-.252-3.175-1.332-4.591-2.036a21.811 21.811 0 0 1-4.43-2.348 12.873 12.873 0 0 1-3.8-2.819 7.624 7.624 0 0 1-1.427-1.881c-.807-.347-.374-1.927-1.58-1.878-.674-.092-.735.421-.95.783-.149.477-.771.49-.794 1.1-.007.1-.023.186-.157.158-.364 2.3-1.127 4.211-1.107 6.89a6.481 6.481 0 0 0 1.264 2.192 2.376 2.376 0 0 0-1.9 1.1c-.129 2.269.807 3.483 1.584 4.854a6.17 6.17 0 0 0 1.266 2.036 2.007 2.007 0 0 0 .632.939 3.889 3.889 0 0 0 .317.469c-.085.225.616.383.157.47-.882.276-2.172.148-2.69.783a4.014 4.014 0 0 0 0 2.348c.073.5.6.554.632 1.1a39.238 39.238 0 0 0 3.485 2.35 33.649 33.649 0 0 0 3.956.783 3.056 3.056 0 0 1-1.267 1.564c-1.666.807-3.949 1-5.857 1.565-1.186.082-2.04.487-3.321.472-.713.268-1.824.158-2.376.469a1.714 1.714 0 0 0-.474.467 1.51 1.51 0 0 0 .949 1.881.964.964 0 0 0 .792.784 1.7 1.7 0 0 0 .948.783 22.8 22.8 0 0 0 4.117 2.35c1.771.385 3.52.8 5.379 1.095 1.914.248 4.06.263 6.015.47h2.058a21.323 21.323 0 0 0 3.956.155 1.761 1.761 0 0 1 1.109-.155c1.114-.57 2.553-.813 3.482-1.565 1.224-.51 2.112-1.358 3.324-1.881 1.849-1.615 4.137-2.8 5.38-5.012a3.518 3.518 0 0 0 .949-1.563 7.182 7.182 0 0 0 1.266-1.411 21.257 21.257 0 0 0 2.216-2.976c.68-1.049 1.23-2.228 1.9-3.287-.021-.857.653-1.026.632-1.88.412-.478.377-1.4.792-1.879a2.882 2.882 0 0 1 .157-1.252 25.387 25.387 0 0 0-.634-7.2 12.431 12.431 0 0 0 3.484-1.256c1.125-.39 2.133-1.226 1.738-2.661zm-7.278 8.613a10 10 0 0 1-2.215 4.228c.124.8-.225 1.136-.157 1.878a8.973 8.973 0 0 0-.795 2.192c-.433.564-.709 1.281-1.106 1.881-.784 1.155-1.661 2.219-2.533 3.289-.807 1.184-1.947 2.036-2.849 3.131-.9 1.041-2.012 1.868-3 2.817a10.58 10.58 0 0 0-2.69 1.412 10.094 10.094 0 0 0-1.423.625c-.38.305-1.069.3-1.427.625a51.582 51.582 0 0 1-7.6.313 56.482 56.482 0 0 1-6.492-.783c-1.97-.4-3.225-1.5-4.9-2.192.327-.51 1.356-.327 2.058-.469.064-.35.84 0 .948-.314.55.128.609-.232 1.109-.156a20.3 20.3 0 0 0 3.64-1.253c.6-.291.866-.916 1.423-1.25a1.558 1.558 0 0 1 .475-.942 4.1 4.1 0 0 0 .317-1.722 2.545 2.545 0 0 0 .634-1.409 1.274 1.274 0 0 0-.634-.784c-.057-.415-.805-.142-.949-.468a3.039 3.039 0 0 1-1.266-.159c-.328-.092-1.04.194-1.107-.156-1.8-.048-2.778-.908-3.959-1.566.921-.552 2.206-.743 2.85-1.565 1.1-.163 2.257-.273 2.375-1.411 0-1.513-1.648-1.4-2.849-1.723-1.651-1.393-2.551-3.531-3.8-5.323a6.31 6.31 0 0 0 1.581-.939c.969.123 1.155-.53 1.426-1.1.041-1.03-.71-1.281-1.267-1.722a7.483 7.483 0 0 1-1.423-1.567 39.1 39.1 0 0 1 .157-5.012c.135-.028.15.061.158.158.484.932 1.2 1.636 1.743 2.5 1.135.758 1.976 1.8 3.322 2.35.967.872 2.368 1.314 3.324 2.192a34.52 34.52 0 0 1 3.639 1.881c1.431.41 2.256 1.421 4.273 1.252.426-.206.843-.421 1.267-.627.552-.962-.124-2.279.317-3.446.544-1.39 1.7-2.178 2.69-3.13a16.837 16.837 0 0 0 1.741-1.1 10.255 10.255 0 0 0 2.058-.784 13.794 13.794 0 0 0 2.215-.311h2.69a15.368 15.368 0 0 0 1.584.311 3.87 3.87 0 0 0 1.423.784 9.423 9.423 0 0 1 3.007 6.42c-.263 1.026.111 1.85 0 3.134zm.632-11.9a2.328 2.328 0 0 1-1.266 1.722 4.982 4.982 0 0 0-.315-.469c-.026-.442.446-.393.632-.625a4.044 4.044 0 0 1 .949-.628c-.016-.189.229-.1 0 0zm-11.712 6.42a2.89 2.89 0 0 0 1.11.783 1.514 1.514 0 0 0 1.266.784c.1-.319.737-.1.789-.47a2 2 0 0 0 .634-.627 4.944 4.944 0 0 0-.791-2.818c-1.62-.893-3.58.082-3.008 2.348zm0 0"
      fill="#47ffe7" fill-rule="evenodd"></path>
  </symbol>
  <symbol viewBox="0 0 52.438 51.625" id="icon-world">
    <path d="M50.155 12.333a.66.66 0 0 1-.3-.6 8 8 0 0 1-.892-1.2 5.677 5.677 0 0 1-.894-1.345 16.533 16.533 0 0 1-2.085-2.09c-.763-.679-1.643-1.242-2.379-1.944-.7-.69-1.5-1.283-2.233-1.941a14.066 14.066 0 0 0-2.385-1.945c-1.065-.175-1.826-.655-2.976-.748a23.127 23.127 0 0 0-3.421-.3 62.393 62.393 0 0 0-7.445-.15c-.09.008-.174.024-.148.15h-.3a18.626 18.626 0 0 0-4.764.6c-.1.3-.695.1-.743.447-.474-.025-.5.4-1.043.3-1.9 1.083-3.7 2.26-5.506 3.438A24.2 24.2 0 0 0 7.727 9.04a29.037 29.037 0 0 0-1.935 2.99c-.135.71-.888.8-1.041 1.494-.518.326-.638 1.054-1.192 1.345a6.544 6.544 0 0 1-.893 1.494 8.388 8.388 0 0 1-.891 1.646 6.507 6.507 0 0 1-.746 1.792 7.117 7.117 0 0 0-.149 1.046c-.394.052-.133.761-.445.895-.1 1.35-.282 2.61-.448 3.889.243 1.645.056 3.728.448 5.23a42.655 42.655 0 0 0 .891 4.783c.684 1.008 1.094 2.288 1.788 3.286a4.075 4.075 0 0 0 .894 1.646 2.083 2.083 0 0 0 .445.746 1.213 1.213 0 0 1 .446.9 28.261 28.261 0 0 0 15.779 8.817 34.461 34.461 0 0 0 20.84-2.54 18.365 18.365 0 0 1 2.379-1.643 24.475 24.475 0 0 1 2.381-2.54 19.949 19.949 0 0 1 1.192-1.945 10.257 10.257 0 0 1 1.342-1.942.734.734 0 0 1 .3-.747 1.22 1.22 0 0 1 .3-.749 7.367 7.367 0 0 1 .6-1.491c.315-1.08.66-2.124 1.042-3.14a48.5 48.5 0 0 0 1.339-7.174c.277-5.959-.5-10.855-2.233-14.8zm-23.518 14.5c-3.366-.059-6.99.142-10.125-.151a49.973 49.973 0 0 1 .449-10.163c2.881.394 6 .55 9.078.749.09 3.3.328 6.446.6 9.565zm-6.4-22.719a27.967 27.967 0 0 0 2.976-.9c.553-.095 1.485.193 1.788-.149h.449c-.407 3.736.18 7.393.3 11.059-2.663-.264-5.649-.205-8.187-.6a49.766 49.766 0 0 1 2.679-9.414zm-8.185 5.83c.3-.263.291.111.6-.15.187-.508.527-.863.743-1.345a4.624 4.624 0 0 0 1.488-1.5c1.1-.538 1.754-1.525 2.976-1.941a42.242 42.242 0 0 0-2.528 8.071c-1.821-.115-2.889-.987-4.615-1.195.274-.823 1.083-1.109 1.34-1.944zm-7 10.013a4.452 4.452 0 0 0 .893-2.093c.682-.412.845-1.342 1.34-1.944s.927-1.26 1.488-1.793a4.265 4.265 0 0 0 .3-.446 29.6 29.6 0 0 0 5.509 2.388 69.724 69.724 0 0 0-.891 10.463 37.859 37.859 0 0 1-9.528-1.195c-.13-2.222.623-3.557.892-5.38zm4.166 20.027a2.163 2.163 0 0 1-.743-1.047c-.716-.476-.916-1.468-1.49-2.09-.735-1.654-1.483-3.3-2.082-5.084-.09-.386.059-.538.448-.448-.435-1.008-1.163-1.723-1.191-3.137 2.91.761 6.472.872 9.673 1.345a57.54 57.54 0 0 0 1.34 9.414c-1.618.666-3.378 1.191-4.91 1.944a1.879 1.879 0 0 1-1.045-.9zm6.106 5.23a11.027 11.027 0 0 1-2.53-1.643 3.724 3.724 0 0 1-1.042-1.047 9.3 9.3 0 0 0 1.936-.447 8.093 8.093 0 0 0 1.782-.6.23.23 0 0 1 .3.149c.293 1.45.841 2.643 1.043 4.186a5.182 5.182 0 0 0-1.488-.6zm1.188-15.691c3.315.162 6.774.173 10.273.149.1 2.24.356 4.323.446 6.576-1.573.316-3.335.439-4.91.748-.584.359-1.652.236-2.236.6-.973-.031-1.375.511-2.381.449-.344-2.892-1.056-5.418-1.192-8.519zm8.189 17.487c-.556.159-.426-.374-.9-.3h-1.487a11.376 11.376 0 0 0-2.234-.3 10.145 10.145 0 0 1-.594-1.345 6.3 6.3 0 0 0-.448-1.345c0-.6-.3-.9-.3-1.494a10.546 10.546 0 0 0-.445-1.345c.415-.578 1.388-.6 2.233-.748.684-.306 1.775-.208 2.53-.447 1.3.11 2.139-.245 3.425-.15a1.2 1.2 0 0 0 .446-.149h.3c.6-.007.125 1.07.448 1.345a5.556 5.556 0 0 0 .148 1.643v1.945c.113.881.277 1.715.446 2.54a18.6 18.6 0 0 1-3.572.15zm2.978-43.194c1.3.087 2.96-.185 4.018.149.943.25 1.035 1.35 1.785 1.792.359.841 1.017 1.373 1.34 2.243a20.467 20.467 0 0 1 1.936 5.233 25.932 25.932 0 0 1-8.337.894c-.306-3.376-.661-6.708-.742-10.311zm9.079 37.065a12.915 12.915 0 0 0-.448 1.942c-.572.969-.654 2.432-1.337 3.289-1.268.421-3.081.3-4.318.745a51.074 51.074 0 0 1-.448-7.621c2.389.056 4.623-.044 6.848-.15.228.414-.238 1.2-.3 1.795zm1.04-5.081c-2.671 0-5.256.1-7.74.3a45.848 45.848 0 0 1-.594-6.575 79.894 79.894 0 0 0 8.334-1.195h.3a45.446 45.446 0 0 1-.3 7.472zm.3-9.864c-2.976.25-5.836.614-8.93.746-.067-3.271-.39-6.285-.6-9.414a25.551 25.551 0 0 0 8.485-.9.23.23 0 0 0 .3-.149c.126-.029.139.059.147.149a52.133 52.133 0 0 1 .6 9.566zM37.65 7.997a7.841 7.841 0 0 0-.447-.749 22.594 22.594 0 0 1-.446-.745 4.379 4.379 0 0 0-.151-.448c.036.047-.981-.81-.446-.748 1.555.733 2.807 1.766 4.466 2.392.713 1.028 2.006 1.473 2.679 2.54a12.879 12.879 0 0 1-1.784 1.2c-.874.121-1.291.7-2.233.748a21.676 21.676 0 0 0-1.638-4.186zm3.274 34.823a1.976 1.976 0 0 0-.745.3 2.129 2.129 0 0 0-.743.748c-.346-.454.266-1.221.3-1.792.154-.643.271-1.324.446-1.944a1.135 1.135 0 0 1 .151-.447 10.293 10.293 0 0 1 2.381 1.046c-.363.929-1.218 1.368-1.787 2.091zm6.848-14.347a2.155 2.155 0 0 1-.445 1.047 22.536 22.536 0 0 1-2.531 8.37c-1.413-.424-2.553-1.126-3.872-1.645.354-3.073-.069-5.907.148-7.92a13.751 13.751 0 0 0 6.1-1.646c.266.02.312-.183.6-.15v1.944zM43.9 25.635h-2.976a62.644 62.644 0 0 0-.745-10.314 24.035 24.035 0 0 0 4.912-2.541 1.01 1.01 0 0 0 .3.149c.453 1.787 1.249 3.229 1.639 5.081a30.023 30.023 0 0 1 .743 5.83c-1.216.668-2.615 1.157-3.87 1.795zm0 0"
      fill="#ffd631" fill-rule="evenodd"></path>
  </symbol>
  <symbol viewBox="0 0 88 81" id="icon-cloud">
  <path d="M82.255 42.7c-1.727-2.262-3.355-4.624-6.2-5.766A7.465 7.465 0 0 0 71.4 36.5c1.243-2.9 2.6-5.676 3.1-9.317v-6.652a22.679 22.679 0 0 0-1.991-5.989 48.252 48.252 0 0 0-3.764-3.769A19.21 19.21 0 0 0 63.214 9h-5.537c-.37.371-1.3.18-1.995.223a47.868 47.868 0 0 0-5.977 2c-1.606 1.124-3.18 2.286-4.652 3.547-.476.928-1.41 1.4-1.773 2.438-1 .473-1.012 1.939-1.991 2.438-.382-1.245-1.842-1.408-2.879-1.994a25.121 25.121 0 0 0-19.93 6.43 5.431 5.431 0 0 1-1.329 1.994 4.16 4.16 0 0 1-.666 2v5.322a1.865 1.865 0 0 1 .222 1.33c.389.569.164 1.756.662 2.216-.18.628.315.577.221 1.108-.031.3.744.827.222.89a18.71 18.71 0 0 0-3.986.223c-5.369 2.9-8.369 8.173-9.741 15.075a34.919 34.919 0 0 0 .218 4.877 2.064 2.064 0 0 1 .666 1.553c2.451 3.609 6.265 5.848 11.957 6.208a26.959 26.959 0 0 0 4.652-.219c1.189.289 2.518.433 3.764.663 12.73.678 25.392-.185 38.089-.222 2.342-.835 5.817-.534 8.639-.889.039-.329.534-.2.884-.223a.966.966 0 0 1 .885-.441 2.382 2.382 0 0 1 1.329-1.108c1.259.149 1.815-.4 2.879-.444a19.776 19.776 0 0 0 3.545-3.328 17.8 17.8 0 0 0 2.208-6.433c.2-4.553-.109-8.607-1.546-11.53zm-58.9-3.328c-.2.137-.4.27-.445 0a.226.226 0 0 1 .445 0zM77.384 52.24a6.171 6.171 0 0 0-1.107 2.216 7.056 7.056 0 0 0-1.329 2.216C73.663 57.679 73.121 59.424 71.4 60a3.212 3.212 0 0 0 0-2.439c-.171-.05-.437-.008-.441-.222-2.408-.047-3.16 1.564-3.324 3.769H64.1c-.491-.483.219-.9 0-1.775-.432-1.631-.4-3.735-1.55-4.655-3.09.16-4.345 2.154-5.755 3.991-.086 1.267.016 2.344.885 2.661-.308.5-1.543.082-2.213.218a18.078 18.078 0 0 1 .885-1.771c-.932-.655-1.527.593-1.995 1.108h-.226a1.016 1.016 0 0 1-.218.663c-.346-.054-.156-.483 0-.663h.218a32.954 32.954 0 0 1 2.44-4.213c.677-1.268 2.423-2.56 1.55-4.655-2.594.066-2.925 2.4-4.656 3.324a48.891 48.891 0 0 0-3.759 4.436 4.766 4.766 0 0 0-.222 2c-5.766.581-12.2.492-18.156.886.043-1.116.721-2.1.218-3.106-.172-.05-.437-.007-.441-.222-2.2.242-2.89 1.986-3.767 3.547H25.79a23.416 23.416 0 0 1 1.547-3.988c-.09-.5.125-1.065 0-1.552a1.166 1.166 0 0 0-.662-.886c-2.307.5-2.934 2.681-4.427 3.987-.191.847-.662 1.412-.888 2.22-.819.156-.95-.379-1.769-.223.1-2.209 2.256-3.476 1.769-5.545a1.762 1.762 0 0 0-.441-.445 4.519 4.519 0 0 0-3.319 1.776c-.591-.674.576-1.482.222-2.661a1.565 1.565 0 0 1-.666-.444c-2.743.507-4.052 2.446-5.1 4.659-.741-.765.311-1.6.222-2.442.557-.55.631-1.588 1.111-2.216a26.17 26.17 0 0 1 2.435-3.991c-.124-.915-.824-1.243-1.991-1.11-1.719.573-2.606 1.974-3.546 3.328-.487-.364.312-1.3.445-1.776.373-.589.514-1.412.884-2 .592-1.326 1.719-2.122 2.217-3.547-1.091-.428-2.189.859-2.88 1.553-.425-.16.043-1.265.444-1.331-.054-.8.663-.815.663-1.553 1.94-1.83 3.892-3.644 7.087-4.209.814-.008.977.643 1.329 1.108a.6.6 0 0 1 .662.441c.141.309.854.035.889.445.861-.172 1.247-.824 1.995-1.109a14.142 14.142 0 0 1 .658-2.883c-.059-.9-.7-1.218-.441-2.439s1.064-1.892 1.329-3.105c-.062-.98-1.172.121-1.329-.446-.089-1.341.944-1.564 1.551-2.215.429-.9 1.523-1.132 1.772-2.216a1.194 1.194 0 0 0-1.331-1.331c.463-.8 1.09-1.424 1.55-2.22 3.27-1.237 9.772-2.985 12.846-.441-.051 2.637-.366 5.537 1.991 5.766 1.068-.039 1.453-.76 1.551-1.775a1.438 1.438 0 0 0 1.106.223c1.228-.4 1.664-1.584 2.217-2.661.433-1.268 1.426-1.975 1.991-3.106.959-.667 1.562-1.689 2.657-2.216.584-1.116 2.532-.866 2.657-2.438.063-1.026-.724-1.2-1.329-1.553-1.648-.172-2.224.726-3.323 1.109-1.259.885-2.349 1.931-3.542 2.883.024.27-.319.137 0 0-.054-.8.666-.811.666-1.552.721-.086.686-.937 1.107-1.33a13.052 13.052 0 0 1 3.541-1.994c.363-.527 1.3-.473 1.773-.89a9.455 9.455 0 0 0 2.216-.663 2.419 2.419 0 0 0 1.547.223 5.08 5.08 0 0 0 1.329-.446h3.986a9.34 9.34 0 0 1 5.1 2.439 13.8 13.8 0 0 1 1.991 4.876v4.437c-.411 4.547-2.359 7.544-3.767 11.093v1.776a1.579 1.579 0 0 0 .218.444 1.332 1.332 0 0 0 .889.663c.822-.234.713.468 1.106.667.627-.117.943-.538 1.551-.667H73.4a1.827 1.827 0 0 0 1.11.444.6.6 0 0 0 .662.441c.429 1.05 1.286 1.67 1.772 2.661a31.624 31.624 0 0 1 1.329 3.105c.036.262-.039.628.222.667-.354 1.862-.838 3.6-1.11 5.541zM57.233 15.428a1.016 1.016 0 0 0 .221.667c1.2-.047 2.661.152 3.542-.223-.183-1.128-2.929-.686-3.763-.444zm-8.416 10.644c-1.367.624-2.193 1.795-3.319 2.661-.554 1.311-2.034 2.575-1.329 4.436a2.746 2.746 0 0 0 1.991.446c1.044-.878 1.376-2.466 1.995-3.77.693-1.3 1.835-2.157 1.991-3.991-.417.047-.487-.25-.885-.222a1.756 1.756 0 0 1-.444.441zm0 0" fill="#d43eff" fill-rule="evenodd"/>
</symbol>

  <symbol viewBox="0 0 15.97 16" id="icon-heart">
    <path  d="M1198.96,1147c4.33-3.28,6.5-6.28,7.51-8.57a5.349,5.349,0,0,0-2.44-7.1c-3.05-1.3-5.07,1.71-5.07,1.71s-2.01-3.02-5.06-1.71a5.346,5.346,0,0,0-2.44,7.09c1.02,2.29,3.17,5.3,7.5,8.58h0Zm0,0" transform="translate(-1191 -1131)"/>
  </symbol>
</svg>