<svg id="Группа_7" data-name="Группа 7" xmlns="http://www.w3.org/2000/svg" width="106" height="79" viewBox="0 0 106 79">
  <defs>
    <style>
      .cls-2{fill-rule:nonzero;fill:#fff}
    </style>
  </defs>
  <path id="Фигура_37" data-name="Фигура 37" d="M74.506 56.195a94.083 94.083 0 0 1-22.3 6.557c-7.926 1.353-16.605 1.8-23.623-2.686a2.175 2.175 0 0 0-2.489 0A28.709 28.709 0 0 0 11.528 71c.38-1.2.855-2.38 1.233-3.457.938-2.669 1.973-5.3 3.125-7.88a1.422 1.422 0 0 0 .035-1.127 1.192 1.192 0 0 0-.506-.9C2.116 47.628 5.654 28.285 18.66 19.889A103.815 103.815 0 0 1 39.009 9.727c7.693-2.791 16.2-3.453 24.336-3.7C77.48 5.589 96.023 9.661 99.6 25.688c3.288 14.696-13.6 25.395-25.094 30.507z" fill-rule="nonzero" fill="#d33dff"/>
  <path id="Фигура_36" data-name="Фигура 36" class="cls-2" d="M12.292 72.2c1.588-4.834 3.039-9.546 5.6-13.984L15.66 56.9c-2.267 5.035-5.8 11.665-4.4 17.317a1.1 1.1 0 0 0 2 .263 25.161 25.161 0 0 1 15.2-13.039c1.86-.578 1.048-3.555-.8-2.938a26.892 26.892 0 0 0-16.29 14.863l2 .265c-.615-2.6.759-5.526 1.593-7.937a98.61 98.61 0 0 1 2.925-7.481c.656-1.494-1.389-2.8-2.23-1.313-2.608 4.619-4.343 9.88-3.7 15.252a.168.168 0 0 0 .328.044zm5.157-15.9c-12.443-9.512-9.133-27.879 3.035-35.849A96.753 96.753 0 0 1 39.525 10.8c7.2-2.649 15.163-3.277 22.773-3.515 13.227-.413 30.578 3.452 33.928 18.668C99.3 39.91 83.5 50.068 72.742 54.921a87 87 0 0 1-20.872 6.225c-7.417 1.287-15.537 1.711-22.1-2.549-2.558-1.657-5.058 2.636-2.383 4.1 13.577 7.439 31.587 2.734 45.032-2.847 12.459-5.17 29.707-16.04 28.527-31.742C99.694 11.51 82.96 3.775 68.355 3.084 49.973 2.214 31.672 7.3 16.861 18.462A26.089 26.089 0 0 0 6 39.9c.07 7.308 3.4 15.207 10.379 18.239a1.066 1.066 0 0 0 1.07-1.843z"/>
  <path id="Фигура_35" data-name="Фигура 35" class="cls-2" d="M13.749 38.625c5.652 3.467 13.058 5.061 19.373 7.008a1.325 1.325 0 0 0 .715-2.551c-6.28-2.007-13.3-4.654-19.925-5.05a.32.32 0 0 0-.164.593zm13.141-5.377c-3.077 4.382-4.277 10.746-5.4 15.873-.4 1.848 2.395 2.635 2.9.785 1.394-5.105 3.519-11.129 3.24-16.462a.4.4 0 0 0-.739-.2zm9.771-1.954a5.086 5.086 0 0 0-2.38 6.177c.8 2.691 3.417 4.453 6.09 5.061 6.592 1.5 11.337-4.652 8.719-10.645-2.562-5.865-10.449-6.069-13.99-1-2.553 3.655-1.339 10.57 4.149 10.461a.668.668 0 0 0 .476-1.128c-1.648-2.027-3.424-3.838-2.477-6.635 1.228-3.624 5.884-5.114 8.521-1.9 2.675 3.265.353 8.434-4.065 7.936-4.063-.456-6.939-4.225-4.7-7.985a.253.253 0 0 0-.346-.34zm16.389-4.333h-.3a.012.012 0 0 0 0 .024h.3a.012.012 0 0 0 0-.024zm-3.878-1.5c.2 2.657 5.63 3.793 7.668 4.633 3.272 1.348 7.993 4.24 11.566 3.5a1.024 1.024 0 0 0 .457-1.7c-1.206-1.517-3.038-1.921-4.827-2.611-2.635-1.015-5.26-2.056-7.924-3-.314-.11-7.1-2.9-6.94-.82zm13.095-4.87a38.007 38.007 0 0 0-5.524 8.943c-1.128 2.319-3.809 5.825-2.129 8.284a.972.972 0 0 0 1.059.424c2.807-.754 3.149-4.477 4.132-6.844 1.367-3.3 3.039-6.6 3.628-10.141a.7.7 0 0 0-1.167-.667zm13.091-.075c-1.284-1.647-3.29-1-4.5.524a7.235 7.235 0 0 0-1.058 6.288 7.562 7.562 0 0 0 10.82 4.766c5.08-2.56 5.208-8.762.693-11.971a7.981 7.981 0 0 0-7.3-1.24c-2.229.823-3.558 2.607-3.062 4.95a1.034 1.034 0 0 0 1.707.444c1.787-2.217 3.88-3.475 6.57-1.5 2.532 1.859 2.15 5.072-.817 6.172a3.846 3.846 0 0 1-4.894-2.041c-1.178-2.439.026-4.426 1.8-6.122a.224.224 0 0 0 .035-.272z"/>
</svg>
