<svg xmlns="http://www.w3.org/2000/svg" width="50.594" height="52.625" viewBox="0 0 50.594 52.625">
  <defs>
    <style>
      .cls-1 {
        fill: #5bf5ff;
        fill-rule: evenodd;
      }
    </style>
  </defs>
  <path id="Фигура_2" data-name="Фигура 2" class="cls-1" d="M879.853,386.816a30.462,30.462,0,0,0-2.253-2.564c-1.187-.316-2.177-0.83-3.454-1.056-1.38-.175-2.9-0.206-4.207-0.453h-2.7a5.766,5.766,0,0,0,.9-1.356c0.538-.265.538-1.069,1.052-1.357a5.321,5.321,0,0,1,.148-1.509c0.5-.5.73-1.277,1.2-1.809,0.294-.76,1.046-1.061,1.2-1.96a24.787,24.787,0,0,1,.3-5.58,3.909,3.909,0,0,1-.6-2.112c-0.917-.488-1.354-1.457-2.4-1.809h-1.8c-1.75.655-2.377,2.436-4.2,3.017-1.955,3.867-5.31,6.329-8.411,9.048a57.311,57.311,0,0,1-4.5,4.222,11.658,11.658,0,0,1-2.4,1.961,14.712,14.712,0,0,1-2.7,1.809,3,3,0,0,0-1.051-1.961,22.009,22.009,0,0,0-5.556-1.2c-1.346,0-2.451.255-3.9,0.149a1.962,1.962,0,0,1-1.051.3,1.469,1.469,0,0,1-.9.45A4.185,4.185,0,0,1,831.5,384.1c-1.262,2.655-1.192,6.643-1.8,9.95-0.166,5.965-.171,12.093-0.148,18.248a6.548,6.548,0,0,1,.45,1.357c0.338,0.313.427,0.876,0.75,1.2a8.771,8.771,0,0,0,3.153.756c1.719,0.937,4.567.74,7.208,0.752,0.666-.184,1.118-0.582,1.8-0.752,0.965,0.113,1.087-.62,1.653-0.905a2.649,2.649,0,0,0,1.2,1.509c0.566-.782,1.5.3,2.252,0.3,0.655,0.4,1.786.319,2.553,0.6,2.956,0.25,5.8.611,8.86,0.753a29.305,29.305,0,0,1,4.506-.149,60.161,60.161,0,0,0,6.006-1.357,2.849,2.849,0,0,1,1.051-.6,8.084,8.084,0,0,0,2.554-4.975c0.146-1.372-.107-2.863,0-4.525,0.791-.763,1.771-1.336,2.551-2.112a3.217,3.217,0,0,1,.753-1.206c0.425-2.336.77-4.754,1.049-7.239a9.254,9.254,0,0,0,2.255-4.222,18.116,18.116,0,0,0-.3-4.675h0Zm-46.4,2.563a3.119,3.119,0,0,1,.15-1.509,6.246,6.246,0,0,1,.6-2.562c0.143,0,.115.185,0.148,0.3a47.652,47.652,0,0,0-.9,5.126,1.374,1.374,0,0,1,0-1.356h0Zm9.01-.453c-0.27.283-.331,0.774-0.6,1.056-0.414,2.249-.755,4.572-1.052,6.936,0.011,1.421-.1,2.02,0,3.318-0.392,2.1.18,4.276,0.151,6.486a10.212,10.212,0,0,0,1.049,2.262c0.128,1.231.441,2.277,0.6,3.466a21.884,21.884,0,0,1-5.407,0c0.026-.478.351-1.11,0-1.506-1.082-.234-1.105.6-1.952,0.6,0.23-.925.822-1.488,1.051-2.413,0.392-.6,1.047-1.619.751-2.413-0.615-.259-1.39.47-1.8,0.9-0.673.168-.865,1.486-1.5,1.206v-2.261a8.328,8.328,0,0,1,.749-1.358c0.021-.634.581-0.724,0.6-1.359a2.383,2.383,0,0,0,1.052-1.054,1.929,1.929,0,0,0-.3-0.755c-0.049-.352-0.655-0.147-0.75-0.453a2.33,2.33,0,0,0-.9.152c-0.218-.082-0.366.588-0.45,0.149,0.711-5.317-.322-12.386,1.8-16.284a22.81,22.81,0,0,1,.6-0.3,11.351,11.351,0,0,0,1.8.149,2.955,2.955,0,0,1,1.052.455c1.617-.069,2.369.735,3.905,0.753a12.181,12.181,0,0,0-.45,2.261h0Zm34.087,3.017a12.132,12.132,0,0,1-1.354,1.809,7.466,7.466,0,0,1-.6,1.509,31.307,31.307,0,0,1-1.051,6.784,22.893,22.893,0,0,1-2.7,1.96,5.172,5.172,0,0,0-.451,1.962,2.677,2.677,0,0,0,.451,1.207c-0.287,1.822-.31,3.911-1.2,5.127-0.9.851-2.434,1.074-3.9,1.357a5.137,5.137,0,0,0-2.555-.452c-0.57.1,0.157-.784-0.45-0.905-1.075-.126-0.952.954-1.8,1.056-0.819.067-1.234-.27-2.1-0.151,0-.956.855-1.051,0.752-2.11a4.6,4.6,0,0,1-.3-0.455c-1.506.046-2.064,1.04-2.85,1.812-0.451-.3-1.418-0.085-2.1-0.152,0.061-.655.531-1.136,0.148-1.809-1.827-.178-1.939,1.367-3.153,1.809,0.11-.8.927-2.048,0-2.562-0.824-.126-0.64.763-1.2,0.9-0.386.319-.42,0.989-1.054,1.059a3.744,3.744,0,0,0-1.049-.756c0.483-.971,1.141-1.77,1.651-2.714,0.381-.8,1.4-1.953.749-2.865a2.625,2.625,0,0,0-2.4,1.357,3.034,3.034,0,0,0-.9.9c-0.338.263-.345,0.859-0.9,0.905-0.378-1.357,1-1.922,1.2-3.166,0.466-.288.42-1.087,0.9-1.36,0.095-.621.632-1.035,0.3-1.657-1.369-.118-1.581.928-2.4,1.357a4.747,4.747,0,0,1-.752,1.056c-0.338.262-.346,0.858-0.9,0.9V402.8a13.53,13.53,0,0,1,1.8-3.168c0.458-1.146,1.52-1.688,1.65-3.166-0.529-.262-1.241.411-1.8,0.6a5.1,5.1,0,0,1-1.653,1.056,7.505,7.505,0,0,0,.149-2.264c0.488-.511.883-1.125,1.351-1.657,0.187-.317.417-0.589,0.6-0.9a0.6,0.6,0,0,0,.6-0.756,1.241,1.241,0,0,0-1.2-.3,1.936,1.936,0,0,1-.9.6c0.184-1.423.5-2.711,0.749-4.072a44.2,44.2,0,0,0,8.11-5.88c0.148-.6.624-0.881,0.75-1.508a30.2,30.2,0,0,0,4.2-3.318,22.59,22.59,0,0,0,3.9-3.621,1.006,1.006,0,0,1,.753-0.149,2.3,2.3,0,0,1,.148-0.9c1.05-.806,1.6-2.112,2.7-2.865a2.876,2.876,0,0,1,.152-1.2,0.985,0.985,0,0,1,.9-0.3c0.175-.714-0.347-1.234,0-1.658a1.171,1.171,0,0,1,.45.149,6.736,6.736,0,0,1,1.052,3.321,10.214,10.214,0,0,1,.45,1.356c-0.378,2.485-1.686,4.035-2.852,5.731a9.422,9.422,0,0,1-1.8,2.562c-0.412.992-1.412,1.4-1.953,2.264a12.335,12.335,0,0,0-1.8,1.054,1.706,1.706,0,0,0-1.351,1.356c-0.133.99,0.712,1,1.2,1.359a5.732,5.732,0,0,0,2.7-.451,62.41,62.41,0,0,0,6.758.148,28.736,28.736,0,0,0,3.3.3,1.977,1.977,0,0,0,1.052.3,1.217,1.217,0,0,0,.9.3,6.815,6.815,0,0,0,1.051,1.056,20.307,20.307,0,0,1-.148,3.77h0Zm-37.992-5.127a4.227,4.227,0,0,0-3.455.6,12.605,12.605,0,0,0-.6,3.166,2.457,2.457,0,0,1,.149,1.054c0.34,0.316.432,0.876,0.752,1.207a5.279,5.279,0,0,0,1.2.754,3.541,3.541,0,0,0,3.455-1.961,2.771,2.771,0,0,1,.148-1.206,3.242,3.242,0,0,1-.148-1.356c-0.348-.257-0.2-1.007-0.6-1.208a4.06,4.06,0,0,0-.9-1.054h0Zm-1.052,3.919c-0.418-.182-0.28-0.925-0.3-1.508a1.482,1.482,0,0,1,.3,1.508h0Zm0,0" transform="translate(-829.562 -365.25)"/>
</svg>
