<svg xmlns="http://www.w3.org/2000/svg" width="50.188" height="42.625" viewBox="0 0 50.188 42.625">
  <defs>
    <style>
      .cls-1 {
        fill: #5bf5ff;
        fill-rule: evenodd;
      }
    </style>
  </defs>
  <path id="Фигура_13" data-name="Фигура 13" class="cls-1" d="M611.407,677.993c-0.482-.773-1.939-0.584-3-0.783h-2.374a17.193,17.193,0,0,1,1.108-2.037,11.482,11.482,0,0,0,.475-2.661c0.276-.352.377-0.881,0.632-1.253a1.246,1.246,0,0,0,.157-1.409c-0.109-.466-0.629-0.525-1.264-0.469a1.086,1.086,0,0,0-.474.314c-0.957.914-1.664,2.14-2.692,2.973a0.492,0.492,0,0,1-.158,0c-0.186.01-.069,0.1-0.16,0.158-0.312.2-.549,0.321-0.789,0.469a6.428,6.428,0,0,1-1.9,1.1,13.149,13.149,0,0,0-3.956-.781c-2.471.214-4.918,0.455-6.488,1.564-1.945.741-3.155,2.2-4.592,3.448-0.105.676-.729,0.839-0.789,1.564-0.01.1-.025,0.184-0.157,0.159a2.583,2.583,0,0,1-.157,1.094c0,0.281.425,0.911,0,1.1-1.757-.252-3.175-1.332-4.591-2.036a21.811,21.811,0,0,1-4.43-2.348,12.873,12.873,0,0,1-3.8-2.819,7.624,7.624,0,0,1-1.427-1.881c-0.807-.347-0.374-1.927-1.58-1.878-0.674-.092-0.735.421-0.95,0.783-0.149.477-.771,0.49-0.794,1.1-0.007.1-.023,0.186-0.157,0.158-0.364,2.3-1.127,4.211-1.107,6.89a6.481,6.481,0,0,0,1.264,2.192,2.376,2.376,0,0,0-1.9,1.1c-0.129,2.269.807,3.483,1.584,4.854a6.17,6.17,0,0,0,1.266,2.036,2.007,2.007,0,0,0,.632.939,3.889,3.889,0,0,0,.317.469c-0.085.225,0.616,0.383,0.157,0.47-0.882.276-2.172,0.148-2.69,0.783a4.014,4.014,0,0,0,0,2.348c0.073,0.5.6,0.554,0.632,1.1a39.238,39.238,0,0,0,3.485,2.35,33.649,33.649,0,0,0,3.956.783,3.056,3.056,0,0,1-1.267,1.564c-1.666.807-3.949,1-5.857,1.565-1.186.082-2.04,0.487-3.321,0.472-0.713.268-1.824,0.158-2.376,0.469a1.714,1.714,0,0,0-.474.467,1.51,1.51,0,0,0,.949,1.881,0.964,0.964,0,0,0,.792.784,1.7,1.7,0,0,0,.948.783,22.8,22.8,0,0,0,4.117,2.35c1.771,0.385,3.52.8,5.379,1.095,1.914,0.248,4.06.263,6.015,0.47h2.058a21.323,21.323,0,0,0,3.956.155,1.761,1.761,0,0,1,1.109-.155c1.114-.57,2.553-0.813,3.482-1.565,1.224-.51,2.112-1.358,3.324-1.881,1.849-1.615,4.137-2.8,5.38-5.012a3.518,3.518,0,0,0,.949-1.563,7.182,7.182,0,0,0,1.266-1.411,21.257,21.257,0,0,0,2.216-2.976c0.68-1.049,1.23-2.228,1.9-3.287-0.021-.857.653-1.026,0.632-1.88,0.412-.478.377-1.4,0.792-1.879a2.882,2.882,0,0,1,.157-1.252,25.387,25.387,0,0,0-.634-7.2,12.431,12.431,0,0,0,3.484-1.256c1.125-.39,2.133-1.226,1.738-2.661h0Zm-7.278,8.613a10,10,0,0,1-2.215,4.228c0.124,0.8-.225,1.136-0.157,1.878a8.973,8.973,0,0,0-.795,2.192c-0.433.564-.709,1.281-1.106,1.881-0.784,1.155-1.661,2.219-2.533,3.289-0.807,1.184-1.947,2.036-2.849,3.131-0.9,1.041-2.012,1.868-3,2.817a10.58,10.58,0,0,0-2.69,1.412,10.094,10.094,0,0,0-1.423.625c-0.38.305-1.069,0.3-1.427,0.625a51.582,51.582,0,0,1-7.6.313,56.482,56.482,0,0,1-6.492-.783c-1.97-.4-3.225-1.5-4.9-2.192,0.327-.51,1.356-0.327,2.058-0.469,0.064-.35.84,0,0.948-0.314,0.55,0.128.609-.232,1.109-0.156a20.3,20.3,0,0,0,3.64-1.253c0.6-.291.866-0.916,1.423-1.25a1.558,1.558,0,0,1,.475-0.942,4.1,4.1,0,0,0,.317-1.722,2.545,2.545,0,0,0,.634-1.409,1.274,1.274,0,0,0-.634-0.784c-0.057-.415-0.805-0.142-0.949-0.468a3.039,3.039,0,0,1-1.266-.159c-0.328-.092-1.04.194-1.107-0.156-1.8-.048-2.778-0.908-3.959-1.566,0.921-.552,2.206-0.743,2.85-1.565,1.1-.163,2.257-0.273,2.375-1.411,0-1.513-1.648-1.4-2.849-1.723-1.651-1.393-2.551-3.531-3.8-5.323a6.31,6.31,0,0,0,1.581-.939c0.969,0.123,1.155-.53,1.426-1.1,0.041-1.03-.71-1.281-1.267-1.722a7.483,7.483,0,0,1-1.423-1.567,39.1,39.1,0,0,1,.157-5.012c0.135-.028.15,0.061,0.158,0.158,0.484,0.932,1.2,1.636,1.743,2.5,1.135,0.758,1.976,1.8,3.322,2.35,0.967,0.872,2.368,1.314,3.324,2.192a34.52,34.52,0,0,1,3.639,1.881c1.431,0.41,2.256,1.421,4.273,1.252,0.426-.206.843-0.421,1.267-0.627,0.552-.962-0.124-2.279.317-3.446,0.544-1.39,1.7-2.178,2.69-3.13a16.837,16.837,0,0,0,1.741-1.1,10.255,10.255,0,0,0,2.058-.784,13.794,13.794,0,0,0,2.215-.311h2.69a15.368,15.368,0,0,0,1.584.311,3.87,3.87,0,0,0,1.423.784,9.423,9.423,0,0,1,3.007,6.42c-0.263,1.026.111,1.85,0,3.134h0Zm0.632-11.9a2.328,2.328,0,0,1-1.266,1.722,4.982,4.982,0,0,0-.315-0.469c-0.026-.442.446-0.393,0.632-0.625a4.044,4.044,0,0,1,.949-0.628c-0.016-.189.229-0.1,0,0h0Zm-11.712,6.42a2.89,2.89,0,0,0,1.11.783,1.514,1.514,0,0,0,1.266.784c0.1-.319.737-0.1,0.789-0.47a2,2,0,0,0,.634-0.627,4.944,4.944,0,0,0-.791-2.818c-1.62-.893-3.58.082-3.008,2.348h0Zm0,0" transform="translate(-561.312 -669.375)"/>
</svg>
