<svg xmlns="http://www.w3.org/2000/svg" width="59.07" height="48.406" viewBox="0 0 59.07 48.406">
  <defs>
    <style>
      .cls-1 {
        fill: #ddff65;
        fill-rule: evenodd;
      }
    </style>
  </defs>
  <path id="Фигура_8" data-name="Фигура 8" class="cls-1" d="M1147.87,328.1c-0.64-.807-2.18-0.723-3.13-1.214a1.363,1.363,0,0,1-.52.173,7.572,7.572,0,0,0-1.57.694,9.7,9.7,0,0,0-1.56.867,16.073,16.073,0,0,0-3.3,1.388c-1.25.306-2.18,0.936-3.47,1.214-1.03.535-2.28,0.846-3.3,1.386-2.5.625-4.47,1.78-6.94,2.428a70.007,70.007,0,0,1-7.13,2.255,7.392,7.392,0,0,1-1.73.52,17.514,17.514,0,0,1-1.91.519,19.236,19.236,0,0,1-3.65,1.042c-0.94.619-2.5,0.622-3.47,1.213a18.011,18.011,0,0,0-1.91.348c-0.44.364-1.35,0.27-1.74,0.693-2.71.412-4.69,1.562-7.29,2.082a6.068,6.068,0,0,1-1.74.519c-0.39.421-1.29,0.329-1.74,0.694a1.652,1.652,0,0,0-1.56.867,1.423,1.423,0,0,0-.87,1.561c1.07,1.19,3.04,1.473,4.52,2.253,1.33,0.925,3.25,1.257,4.69,2.08,1.81,0.445,3.06,1.45,4.86,1.908,0.55,0.547,1.53.669,2.08,1.214a4.649,4.649,0,0,1,1.22.519c0.15,0.427.97,0.191,0.87,0.869-0.26,3.215-.57,6.37-0.7,9.709,0.13,1.862-.28,3.183-0.17,5.03v2.6c-0.19,1.114.6,1.245,1.04,1.733,2.27,0.3,2.68-1.26,3.82-2.08,0.27-.707.9-1.064,1.22-1.736a15.622,15.622,0,0,0,1.21-1.9,35.028,35.028,0,0,0,3.3-3.3,11.584,11.584,0,0,0,1.57-1.736c0.76-.391,1-1.311,1.9-1.558,2.25,1.1,4.75,1.965,6.95,3.119a34.276,34.276,0,0,1,3.47,1.561c1.19,0.494,2.14,1.217,3.3,1.734a8.649,8.649,0,0,1,1.39,1.388c0.66,0.329.8,1.173,1.91,1.041a1.772,1.772,0,0,0,1.39-.521c0.22-.478.89-0.5,1.22-0.867,0.13-.889-0.3-1.317,0-1.905,1.54-2.508,2.05-6.046,2.6-9.539,0.8-3.312,1.38-6.837,1.91-10.4,0.02-.962.37-1.6,0.35-2.6,0.38-.661.26-1.82,0.7-2.427a37.926,37.926,0,0,1,1.21-4.855c-0.06-1.044.41-1.556,0.35-2.6,0.37-.146-0.07-1.106.35-1.211,0.1-.414-0.22-1.26.17-1.388a2.376,2.376,0,0,1,.17-1.39c0.11-.414-0.22-1.257.18-1.385a8.676,8.676,0,0,0-.52-2.6h0Zm-48.11,20.115c-1.41-.262-2.38-0.974-3.82-1.214,0.31-.557,1.51-0.234,1.91-0.694,0.87,0.06,1.22-.406,2.09-0.347,0.13,0.941-.28,1.345-0.18,2.255h0Zm4.34,1.906c-0.9-.427-1.97-0.687-2.43-1.561v-3.122c1.02-.026,1.5-0.586,2.61-0.52a43.693,43.693,0,0,0-.18,5.2h0Zm1.91,0.866c-0.59-1.952-.54-4.541-1.21-6.413a6.986,6.986,0,0,0,2.61-.695,0.261,0.261,0,0,1,.34.173c-0.12,2.392-.48,5.707.18,7.8a11.651,11.651,0,0,1-1.92-.869h0Zm8.34-9.016c0.68-.126,1.26-0.36,1.91-0.519,0.03,1.7-.3,3.772,1.21,3.988,1.29,0.013,1.1-1.455,1.22-2.6a2.578,2.578,0,0,0-.52-1.733,11,11,0,0,1,2.78-1.04c0.85-.272,1.52-0.46,2.26-0.693a1.356,1.356,0,0,1,.52-0.175c0.17-.008.11-0.152,0.17-0.173,0.95-.313,2-0.526,2.95-0.866a15.329,15.329,0,0,1,2.96-1.042c-0.02-.208.25-0.105,0,0-2.45,1.9-5,3.68-7.3,5.722-1.25.949-2.37,2.029-3.64,2.947a20.3,20.3,0,0,1-1.74,1.564,10.167,10.167,0,0,1-1.91,1.386,8.021,8.021,0,0,1-.87-2.95v-3.814Zm-4.69,1.389a12.817,12.817,0,0,0,2.6-.866,0.265,0.265,0,0,1,.35.172c-0.02,2.173-.5,4.309,0,6.069a4.314,4.314,0,0,1,.52.867c0.33,0.071.75,0.064,0.7,0.519-1.09.414-1.66,1.348-2.78,1.735-1.36-.951-1.24-3.383-1.21-5.724a10.543,10.543,0,0,1-.18-2.772h0Zm8.51,17.688c-0.53.164-.7,0.689-1.56,0.519-1,1-1.88,2.518-2.78,3.294-0.18.15-.51,0.165-0.7,0.348-0.26.259-.41,0.727-0.69,1.039-0.32.37-.77,0.524-1.04,0.866a1.35,1.35,0,0,0,0,.348c-0.03.054-.3,0.112-0.35,0.174-0.41.566-.69,1.183-1.04,1.734-0.53-.376.17-0.977,0-1.561v-5.9c0.37-2.322-.03-4.454.69-6.242,0.46-.586,1.42-0.671,2.09-1.041a6.719,6.719,0,0,1,1.91-1.211c1.16-.98,2.13-2.15,3.3-3.123a7.21,7.21,0,0,1,1.39-.519c1.51-1.267,3.01-2.533,4.51-3.816a15.411,15.411,0,0,0,2.26-1.908,12.4,12.4,0,0,0,2.43-1.906c0.62-.077.76-0.627,1.22-0.866a4.442,4.442,0,0,0,1.21-.867,15.084,15.084,0,0,1,2.61-1.561c0.68-.71,1.73-1.041,2.43-1.736,1.1-.345,1.62-1.268,2.78-1.558-0.02-.211.25-0.108,0,0-3.57,4.124-6.73,8.658-10.6,12.483-0.13.789-.94,0.912-1.21,1.561a5.56,5.56,0,0,0-1.39,1.561c-0.66.264-.73,1.121-1.39,1.385-0.27.718-1.01,0.96-1.21,1.736-2,1.888-3.05,4.711-4.87,6.764h0Zm3.99-1.389a1.6,1.6,0,0,1,1.05-.866,5.881,5.881,0,0,0,.17,1.386,4.33,4.33,0,0,0-1.22-.52h0Zm19.45-13.179a120.845,120.845,0,0,1-2.25,12.138,4.356,4.356,0,0,1-.87,1.561,28.575,28.575,0,0,1-1.22,6.588,8.316,8.316,0,0,1-1.73-1.039,6.357,6.357,0,0,1-1.74-1.041c-1.46-.332-2.38-1.2-3.82-1.561-0.25-.617-0.18-1.559-0.69-1.906-0.99-.231-0.87.641-1.39,0.867-0.95-.271-1.62-0.813-2.61-1.041-0.34-1.109-.87-2.022-1.21-3.123,0.42-1.43,1.86-1.839,2.42-3.119,0.92-.88,1.56-2.032,2.44-2.948,1.49-2.154,3.42-3.862,5.03-5.9,1.88-1.764,3.43-3.865,5.21-5.722a1.9,1.9,0,0,1,.7-0.694c0.44-.512.71-1.009,1.21-1.561a0.854,0.854,0,0,0,.52-0.52,8.669,8.669,0,0,1,1.4-1.561,10.5,10.5,0,0,1,1.21-1.386c0.12-.079.19,0.1,0.17,0.172-0.84,4.01-2.17,7.54-2.78,11.792h0Zm0,0" transform="translate(-1089.31 -326.875)"/>
</svg>
