<svg xmlns="http://www.w3.org/2000/svg" width="44.75" height="55.781" viewBox="0 0 44.75 55.781">
  <defs>
    <style>
      .cls-1 {
        fill: #ddff65;
        fill-rule: evenodd;
      }
    </style>
  </defs>
  <path id="Фигура_6" data-name="Фигура 6" class="cls-1" d="M752.347,330.884c1.694-.048,2.671-0.815,4.032-1.2,1.106-.684,2.911-0.671,4.027-1.351a9.784,9.784,0,0,0,3.433-1.948c1.008-.789,1.96-1.633,2.986-2.4,0.724-1.274,1.665-2.326,1.939-4.055v-3.9a37.9,37.9,0,0,0-1.192-4.8,1.385,1.385,0,0,1-.6-0.9,6.792,6.792,0,0,1-1.34-1.348,3.156,3.156,0,0,1-1.646-1.2c0.338-.11.059-0.844,0.152-1.2,0.337-.111.059-0.841,0.148-1.2,0.427-.023-0.131-1.032.3-1.053-0.114-.62.231-0.771,0.152-1.35,0.271-1.354,1.2-3.315.3-4.5a1.63,1.63,0,0,0-1.047-.152,1.092,1.092,0,0,0-.447.3c-0.609.24-.914,0.783-1.492,1.053a7.023,7.023,0,0,0-1.343,1.2c-1.023.718-1.768,1.723-2.837,2.4a5.409,5.409,0,0,0-1.492.447,8.957,8.957,0,0,0-1.642.3c-1.13.16-2.256,0.329-3.433,0.448a2.758,2.758,0,0,1-1.2-.15c-0.468-.074-0.338.461-0.895,0.3-1.479-.195-3.625.124-5.521,0a15.3,15.3,0,0,0-1.942-.3,6.021,6.021,0,0,1-1.939-1.8c-1.243-.395-2.116-1.17-3.433-1.5-0.763-.232-0.811-1.183-1.94-1.05-1.268.075-1.4,1.292-1.79,2.252a59.985,59.985,0,0,0,0,6.305,1.387,1.387,0,0,1-.747.9,4.375,4.375,0,0,1-.745.9c-0.447.654-.755,1.446-1.2,2.1-0.074.924-.363,1.635-0.445,2.551v3.754a5.87,5.87,0,0,1,.3,1.652c0.015,0.065.268,0.366,0.3,0.451,0.079,0.224.1,0.45,0.15,0.6a4.118,4.118,0,0,1,.3,1.053c0.008,0.149.133,0.095,0.149,0.149,0.284,0.834.412,1.686,0.747,2.4a10.462,10.462,0,0,0,.6.9,2.286,2.286,0,0,0,.6.749c0.051,0.041-.041.249,0,0.3a13.04,13.04,0,0,1,1.642,1.651,8.687,8.687,0,0,0,4.177,1.351c0.113,0.337.838,0.057,1.2,0.15a2.018,2.018,0,0,0,1.192.149,8.081,8.081,0,0,0,2.54.3,14.5,14.5,0,0,1-1.046,1.2c-0.281.515-.932,0.661-1.046,1.351-0.471.424-.264,1.533-0.745,1.95a8.389,8.389,0,0,1-4.18-.6c-1.441-1.6-2.078-4.012-4.03-5.1-1.489-.273-3.011.116-4.625,0.15-0.63.517-1.458,0.836-2.09,1.35-0.76.386-1.635,0.659-1.643,1.8,1.528,1.148,2.8-.952,4.48-1.05,0.98-.036,1.627.265,2.686,0.149a10.984,10.984,0,0,1,1.494,2.851,15.842,15.842,0,0,1,1.492,1.954,0.607,0.607,0,0,1,.6.45,9.471,9.471,0,0,0,3.729,1.05h2.242a4.241,4.241,0,0,1,.744,3.453,6.323,6.323,0,0,1-.3.752c-0.152.463-.215,0.854-0.3,1.2a6.2,6.2,0,0,0-.6,1.5c-0.96.733-1.74,1.649-3.433,1.652-1.027-.021-1.008-1.086-2.236-0.9-0.134-.566-0.208-1.192-1.044-1.05-0.643.262-.717,1.536-0.451,2.254,0.246,0.754.612,1.387,0.9,2.1,1.148,0.947,3.438.75,5.523,0.751a2.648,2.648,0,0,1,1.2-.6c1.057-1.289,1.977-2.712,2.983-4.053,0.1-.695.494-1.107,0.6-1.8,0.174-.489.77-1.14,1.194-0.9,0.293,2.211.093,4.91,0.149,7.354-0.33.52-.46,1.241-0.745,1.8a2.282,2.282,0,0,0-1.793.6,2.834,2.834,0,0,0,1.195,1.8,4.629,4.629,0,0,0,3.285-.9,15.514,15.514,0,0,0,1.044-3c0.056-1.9-.031-4.171,0-6.456a10.956,10.956,0,0,0,.447-2.7c0.318-.733.021-2.082,0.448-2.7a21.506,21.506,0,0,1,.151,2.852c0.519,3.431,2.369,5.525,3.431,8.407a5.864,5.864,0,0,0,4.029,2.1,1.224,1.224,0,0,1,.747-0.3,2.414,2.414,0,0,0,.6-1.951,0.231,0.231,0,0,1-.148-0.3c-0.41-.888-1.7-0.9-2.39-1.5a25.3,25.3,0,0,0-1.788-3.457,18.4,18.4,0,0,0-1.2-3.3c0.043-.793-0.384-1.112-0.3-1.95-0.31-.039-0.039-0.659-0.3-0.752-0.11-.512.609-0.19,0.45-0.749a6.792,6.792,0,0,1,1.192,2.55,14.555,14.555,0,0,0,3.282,4.054,8.457,8.457,0,0,0,4.779,2.7h1.939c0.023-.278.507-0.1,0.6-0.3a0.658,0.658,0,0,1,.6-0.3,13.246,13.246,0,0,0,1.341-1.954c0.3-.694.573-2.257-0.148-2.7-1.871-.033-2.042,1.65-3.582,1.951-2.8-.649-4.641-2.9-5.818-4.954-0.09-.15-0.059-0.281-0.151-0.451a33.8,33.8,0,0,1-2.389-4.655,6.555,6.555,0,0,1-1.044-1.348,1.341,1.341,0,0,1-.6-0.6c-0.289.07-.763-0.406-0.448-0.453h0Zm8.808-22.668c0.006,0.01.136-.28,0.149-0.3a1.231,1.231,0,0,1,0-.149c0.532-.093.013,0.666-0.149,0.45h0Zm-0.9,3.755c-0.305-.047-0.292-0.408-0.6-0.451,0.209-.79.672-1.328,0.895-2.1,0.268-.021.314,0.182,0.6,0.151,0.246,1.346-.683,1.514-0.9,2.4h0Zm1.046,1.5a2.425,2.425,0,0,1,.6-1.352,2.111,2.111,0,0,1,.447.749c0.039,0.541-.447.551-0.447,1.055-0.3-.046-0.292-0.409-0.6-0.452h0Zm4.475,5.854c0.319,0.049-.021.656-0.146,0.751a1.542,1.542,0,0,1-.3.9c-0.443.355-.42,1.181-1.194,1.2-0.7-.013.176-0.345,0.148-0.6a3.817,3.817,0,0,0,.45-0.749,5.3,5.3,0,0,0,1.042-1.5h0Zm-1.193-1.351a1.827,1.827,0,0,1,.448-0.9c0.724,0.19-.107,1.322-0.448.9h0Zm0.151-6c0.376,0.545,1.087,1.757.445,2.4-0.6-.151-0.6-0.9-1.043-1.2a2.938,2.938,0,0,1,.6-1.2h0Zm-0.45,7.055a8.388,8.388,0,0,0-1.344,1.8c-0.48-.4.129-0.965,0.3-1.2a7.991,7.991,0,0,0,.744-1.053,0.417,0.417,0,0,1,.3.453h0Zm-0.448-8.108c0,0.3-.406.19-0.3,0.6a1.134,1.134,0,0,1-.748-1.2,1.1,1.1,0,0,1,1.044.6h0Zm-0.6,3.605a1.247,1.247,0,0,1,.448,1.8c-0.471-.129-0.425-0.778-0.9-0.9,0.141-.306.305-0.6,0.448-0.9h0Zm-0.9,3.451c-0.547-.309-0.007-0.782-0.15-1.5a2.039,2.039,0,0,1,.6.752c0.072,0.471-.4.394-0.448,0.749h0Zm0.3-16.364c0.433,0.494-.289,1.107-0.148,1.8-0.64.039-.65-0.548-1.047-0.754a7.613,7.613,0,0,0,1.2-1.05h0Zm-2.241,1.652h0.45c0,1.024,1.5,1.076,1.044,2.1a4.853,4.853,0,0,1-1.642-1.5,0.982,0.982,0,0,1,.148-0.6h0Zm-0.9,1.953a1.16,1.16,0,0,1,.451.149c0.048,0.7.847,0.649,0.895,1.351a2.639,2.639,0,0,0-.45.6c-0.755-.088-0.757-0.934-1.343-1.2a4.4,4.4,0,0,0,.447-0.9h0Zm0,7.955c-0.514.1-.534-0.525-0.3-0.752,0.3,0.111.609,0.453,0.3,0.752h0Zm-1.34-8.258c0.077-.232.154-0.008,0.148,0.151-0.266.044-.307-0.141-0.148-0.151h0Zm0.148,2.553a1.232,1.232,0,0,1,.448.148c0,0.649.744,0.554,0.747,1.2-0.468.63-.755,1.444-1.2,2.1a3.485,3.485,0,0,1-1.494-.749c0.527-.872.967-1.832,1.494-2.7h0Zm-0.747,5.105h-1.942a4.506,4.506,0,0,1,.451-0.9,1.2,1.2,0,0,1,.744.452c0.382,0.018.768,0.029,0.747,0.451h0Zm-1.192-6.454a1.186,1.186,0,0,1,.149-0.453c0.577-.129.532,0.368,0.895,0.453-0.217.63-.775,0.921-0.895,1.65-0.576.272-.448,1.25-1.2,1.351-0.585-.443-0.066-1.158.3-1.5a4.181,4.181,0,0,1,.75-1.5h0Zm-1.194-.3a21.4,21.4,0,0,0-1.195,1.954c-1.146-.474-0.4-2.448,1.195-1.954h0Zm-1.047,4.357c0.3,0,.192.406,0.6,0.3-0.056.894-.634,1.264-0.447,2.4a0.832,0.832,0,0,0-.6-0.146,0.923,0.923,0,0,0-.3-1.2,5.956,5.956,0,0,1,.745-1.351h0Zm-1.044-1.052c-0.164.784-.767,1.126-0.9,1.95-0.3-.141-0.588-0.306-0.893-0.45a19.009,19.009,0,0,0,1.044-2.1,0.943,0.943,0,0,1,.747.6h0Zm-0.6-3.153c0.077,0.078-.107.19-0.151,0.152-0.076-.08.11-0.193,0.151-0.152h0Zm-2.538,2.4a12.347,12.347,0,0,1,.747-1.05,1.151,1.151,0,0,1,.151-0.45c0.305,0.044.289,0.407,0.594,0.45a6.148,6.148,0,0,1-.745,1.2c-0.335.314-.366,0.934-0.895,1.052-0.494-.37-0.036-0.73.148-1.2h0Zm1.193,4.053c-0.064.34-.735,0.062-1.044,0.152a4.1,4.1,0,0,0,.3-0.451c0.46-.113.286,0.412,0.745,0.3h0Zm-5.373-6.454h4.029c-0.186,1.012-1.038,1.356-1.34,2.252a4.214,4.214,0,0,1-.9-0.45c0.113-.639.7-0.8,0.6-1.65-0.758-.062-0.875.522-1.344,0.746a0.6,0.6,0,0,1-.6-0.45c-0.141-.157-0.55-0.044-0.45-0.448h0Zm3.285,6.606c-0.256.344-1.138,0.054-1.645,0.152a10.1,10.1,0,0,0,1.049-1.954c0.22,0.078.376,0.224,0.6,0.3a1.159,1.159,0,0,0,0,1.5h0Zm-2.389-1.5a0.942,0.942,0,0,1-.745-0.6,11.078,11.078,0,0,1,.745-1.35c0.348,0.1.4,0.5,0.744,0.6a7.944,7.944,0,0,1-.744,1.351h0Zm-0.745,1.655c-0.4.09-1.185-.191-1.343,0.146-0.446-.311.373-0.609,0.3-1.049,0.376,0.272,1.024.272,1.047,0.9h0Zm-1.343-5.407a4.533,4.533,0,0,1,1.044.752c-0.123.673-.771,0.823-0.9,1.5a3.549,3.549,0,0,1-1.044-.6c0.074-.778.783-0.916,0.9-1.655h0ZM741,305.964v0.152c1.228-.36,1.671.6,2.837,0.146,0.029,0.528-.5.5-0.6,0.9-0.391.1-.315,0.682-0.744,0.749a4.529,4.529,0,0,1-1.643-1.2c-0.033-.283.169-0.33,0.148-0.6a2.52,2.52,0,0,1-.746.146c-0.152-.5.465-0.231,0.746-0.3h0Zm2.541,4.8c-0.21.988-1.141,1.257-1.195,2.4a1.5,1.5,0,0,1-1.046-.6c0.23-.919.911-1.387,1.2-2.252,0.578-.082.614,0.384,1.046,0.45h0Zm-3.584-2.7c0.079,0.077-.107.193-0.151,0.149-0.074-.077.11-0.191,0.151-0.149h0Zm0.3,0.3a4.155,4.155,0,0,1,1.044.9,28.541,28.541,0,0,0-1.494,2.553,9.241,9.241,0,0,1-1.64-.9c0.361-1.187,1.64-1.454,2.09-2.553h0Zm-1.494,6.158a12.367,12.367,0,0,0-1.19.6,10.282,10.282,0,0,1-1.345-.752,12.792,12.792,0,0,1,1.046-2.1c0.87,0.026,1.108.684,1.789,0.9a2.435,2.435,0,0,0-.3,1.353h0Zm-3.282-2.105c-0.276.265-.451,1.122-0.895,0.752a9.372,9.372,0,0,1,1.194-2.252,4.073,4.073,0,0,0,.448.3,6.15,6.15,0,0,1-.747,1.2h0Zm1.194-2.7c0.077,0.08-.107.191-0.15,0.152-0.077-.077.109-0.193,0.15-0.152h0Zm2.986-4.352c-0.4.443-.829-0.363-1.2-0.45,0.353-.393.778,0.412,1.2,0.45h0Zm-1.2,1.349c-0.442.911-1.258,1.439-1.642,2.4-0.3-.044-0.292-0.407-0.6-0.451a11.548,11.548,0,0,1,1.492-2.7c0.393,0.1.316,0.682,0.746,0.749h0Zm-3.284-1.5v-2.254c0.708,0.391,1.55.643,2.238,1.052a1.807,1.807,0,0,0-.6.749c0.082,0.53-.53.371-0.448,0.9a4.306,4.306,0,0,0-1.044,1.652c-0.345-.4-0.053-1.448-0.15-2.1h0Zm-0.446,3.451c0.077-.232.154-0.01,0.149,0.152-0.269.041-.307-0.144-0.149-0.152h0Zm-0.3,1.05c0.686,0.273-.35.659-0.3,1.2-0.435.213-.34,0.962-0.9,1.053,0.1-1.05.786-1.514,1.195-2.255h0Zm-1.791,7.807c0.379-1.067.788-2.107,1.192-3.152h0.45c-0.286.878-.882,2.025-0.45,3.152a2.622,2.622,0,0,0-.895,1.352c-0.381-.165-0.294-0.806-0.3-1.352h0Zm3.282-1.2c-0.412.033-.34,0.555-0.6,0.751a2.688,2.688,0,0,1,.149.748c-1.279,1.4-1.66,5.227-.6,7.206,0.179-.015.089,0.219,0,0a6.707,6.707,0,0,1-1.643-3.3c0.22-1.43.916-2.382,1.192-3.754,0.346-.1.4-0.5,0.748-0.6-0.105-.556.252-0.644,0.15-1.2,0.174-.089.218-1.057,0.6-0.45,0.658-.023.041,0.425,0,0.6h0Zm7.614,11.407c-1.507-.188-3-0.383-4.479-0.6a7.321,7.321,0,0,1-1.492-1.654,5.739,5.739,0,0,1-.6-1.047c-0.263-.237-0.194-0.806-0.447-1.053a29.363,29.363,0,0,1,.3-4.053c0.215-.883.933-1.261,1.343-1.953a15.38,15.38,0,0,1,1.791-1.5,5.607,5.607,0,0,0,1.043-.3,3.5,3.5,0,0,0,1.047-.3c3.635,0.2,6.214-.656,9.849-0.452,0.768,0.12.98-.317,1.643-0.3h3.282a1.191,1.191,0,0,0,.448-0.152c0.456-.108.442,0.26,0.9,0.152a0.56,0.56,0,0,1,.6.6c0.2,0.154.548,0.146,0.747,0.3,0.445,1.356,1,2.6,1.343,4.056v2.4a17.938,17.938,0,0,1-1.939,4.354c-0.53.42-1.384,0.509-1.942,0.9a2.371,2.371,0,0,1-1.046.3c-0.052.4-.76,0.139-0.893,0.453-4.021.339-7.5-.105-11.492-0.152h0Zm12.237-4.653c1.2,0.1,1.36-.833,1.79-1.5-0.023-1.879.3-4.108-1.491-4.2h-0.3a5.471,5.471,0,0,0-1.643,2.1,8.554,8.554,0,0,0,.151,2.249c0.563,0.386.563,1.335,1.492,1.353h0Zm-15.225.448a2.234,2.234,0,0,0,2.241.152c1.082-1.1.58-4.038-.151-5.106-2.5-.751-3.032,3.119-2.09,4.954h0Zm8.509,0.152c0.025-.175.235-0.162,0.448-0.152a1.466,1.466,0,0,0,.15-1.5,0.968,0.968,0,0,0-1.645.6,1.133,1.133,0,0,0,1.047,1.05h0Zm0.6,1.652a5.086,5.086,0,0,1-1.345.149c-0.975-.069-1.031-1.062-2.088-1.049a0.746,0.746,0,0,1-.45.447c0.236,1.567,1.617,1.976,3.285,2.106a2.429,2.429,0,0,1,1.044-.153c0.726-.486,2.43-1.2,1.494-2.4-1.036-.1-1.274.617-1.94,0.9h0Zm0,0" transform="translate(-724 -298.25)"/>
</svg>
