<svg xmlns="http://www.w3.org/2000/svg" width="23.53" height="44.437" viewBox="0 0 23.53 44.437">
  <defs>
    <style>
      .cls-1 {
        fill: #7d5bff;
        fill-rule: evenodd;
      }
    </style>
  </defs>
  <path id="Фигура_7" data-name="Фигура 7" class="cls-1" d="M1463.75,335.913a10.278,10.278,0,0,0,4.21-.48,13.14,13.14,0,0,0,.98-4.8c-0.3-.022-0.1-0.541-0.33-0.641-0.05-.324-0.44-0.311-0.48-0.638-0.44-.263-0.72-0.677-1.14-0.96-1.14-.259-2.27-0.537-3.4-0.8a20.773,20.773,0,0,0-4.06.159c-4.12-.064-6.29,1.8-8.27,3.837-0.04.125-.01,0.316-0.16,0.319-0.91,2.546-.2,5.808-0.33,8.952,0.16,0.7.17,1.538,0.33,2.238a28.948,28.948,0,0,1-5.36.8c-0.49.521-.27,1.747-0.32,2.718,0.14,0.935.44,1.7,0.65,2.556a5.534,5.534,0,0,0,1.3.8,0.812,0.812,0,0,1,.16.161c0.8,0.429,2.28.013,3.57,0.158-0.22,3.176.4,6.282,0,9.112,0.01,0.525.46,0.612,0.32,1.279a13.585,13.585,0,0,0,.33,4.317,4.276,4.276,0,0,0-.65,2.879c0.19,0.025.18,0.252,0.16,0.477-0.12.756,1.01,0.281,0.81,1.121,0.26,0.731-.67.294-0.65,0.8v1.44c0.83,0.457,2.3.291,3.57,0.319,1.43-.672,3.44-0.769,4.38-1.918a2,2,0,0,0,1.95-.32c-0.03-.5.43-0.536,0.32-1.121a5.284,5.284,0,0,1-.16-1.438v-4.636c-0.33-3.675-.08-7.918-0.49-11.509,1.4-.169,3.02-0.12,4.06-0.639,0.56-.722.59-1.974,0.81-3.039a2.54,2.54,0,0,0,.32-1.6,3.847,3.847,0,0,0,.16-1.757c-0.22-.955-0.26-2.087-1.29-2.237-1.39-.378-3.22.952-4.71,0.477,0.08-1.821-.46-3.757,0-5.435,1.18-.281,2.28-0.634,3.41-0.958h0Zm-6,7.673a5.44,5.44,0,0,0,.65,1.118c0.12,0.036.32,0.006,0.32,0.162a15.869,15.869,0,0,0,4.87-.481,12.135,12.135,0,0,1-.82,4,15.344,15.344,0,0,1-3.08.32,12.392,12.392,0,0,0-.97,1.119c-0.08.708,0.22,0.794,0,1.277-0.32.22-.09,0.981-0.32,1.28v2.4c0.13,0.449-.23.411-0.16,0.8v5.594c-0.14.453,0.22,0.414,0.16,0.8v4.8c0.1,0.434-.21,1.266.16,1.438-0.11.582-.65-0.034-1.3,0.158a11.63,11.63,0,0,1-2.43.641,4.735,4.735,0,0,0,.49-1.757c0.07-.611-0.58-0.5-0.81-0.8,0.3-1.032.88-1.793,1.13-2.878,0.31-.823,1.12-2.08.49-2.876-0.83-.169-0.82.472-1.3,0.638-0.04.126,0,.317-0.16,0.319-0.04.126-.01,0.315-0.16,0.323,0.01,0.191-.24.1,0,0,0.03-.126,0-0.318.16-0.323,0.03-.122,0-0.314.16-0.319v-0.48a9.314,9.314,0,0,0,1.3-3.2,7.692,7.692,0,0,0,.64-1.6,2.091,2.091,0,0,0,.17-1.919,1.509,1.509,0,0,0-1.46,1.119c-0.51-.3.25-0.694,0.16-1.119,0.22-.37.27-0.907,0.49-1.277,0.32-.664.88-2.092,0-2.559a1.037,1.037,0,0,0-1.14.8,2.285,2.285,0,0,0-.81,1.121c-0.59-.112-0.22-1.167-0.32-1.76a14.992,14.992,0,0,0,0-1.915c-0.89-1.282-3.19-.171-5.03-0.481a3.616,3.616,0,0,1-.16-1.918c1.64-.14,3.89.322,5.02-0.319,0.04-.125.01-0.317,0.17-0.319a2.934,2.934,0,0,0-.81-2.24c0.36-1.293.06-3.239,0.16-4.8a5.371,5.371,0,0,0,.81-0.958c0.18-1.532,1.06-2.367,1.13-4-0.43,0-.95-0.09-0.97.319-0.47-.184-0.6.766-0.81,0.32-0.18-.869.39-1.006,0.49-1.6,0.94-.671,1.9-1.317,2.92-1.918,2.73-.39,7.3-0.72,9.56.32,0.08,0.986-.44,1.369-0.32,2.4h-2.43a47.738,47.738,0,0,0-4.71,1.6c-0.37.107-.43,0.531-0.8,0.639a10.463,10.463,0,0,1-.49,1.6c-0.13,2.306.21,4.163,0.16,6.393h0Zm0,0" transform="translate(-1445.41 -327.594)"/>
</svg>
