<svg xmlns="http://www.w3.org/2000/svg" width="54.216" height="49.625" viewBox="0 0 54.216 49.625">
  <defs>
    <style>
      .cls-1 {
        fill: #7d5bff;
        fill-rule: evenodd;
      }
    </style>
  </defs>
  <path id="Фигура_11" data-name="Фигура 11" class="cls-1" d="M1037.03,726.9c-0.95-.558-2.64-0.384-3.93-0.6a33.334,33.334,0,0,1-4.08-.451,14.1,14.1,0,0,1-3.32.151c-1.13.044-2.32,0.148-3.47,0.148-7.37,0-14.47.164-21.44,0.3-0.847.159-1.818,0.192-2.718,0.3a18.941,18.941,0,0,1-1.059-4.926c-0.122-.88-0.31-1.682-0.45-2.541a5.163,5.163,0,0,1-.455-1.046,3.513,3.513,0,0,1-.6-1.046c-0.85,0-1.247-.457-2.263-0.3a0.985,0.985,0,0,1-.755.151c-1.685.624-3.034,1.577-4.679,2.242-1.719.243-3.073,0.844-3.474,2.388a2.449,2.449,0,0,0,.45,1.943c0.1,0.7.8,0.8,1.209,1.194h1.815c0.02-.276.508-0.092,0.6-0.3,0.035-.263.258-0.34,0.6-0.3-0.057-.655.431-0.769,0.452-1.344v-1.943c1.946,0.033,2.372-1.437,4.381-1.343,0.806,5.024,2.16,9.513,3.018,14.488,1.064,4.775,1.956,9.717,3.02,14.49a6.988,6.988,0,0,0-2.113.3,13.464,13.464,0,0,1-2.117,1.5,8.615,8.615,0,0,0-1.808,1.943v2.538a7.876,7.876,0,0,1,.9,1.046,4.718,4.718,0,0,1,1.209.747c4.642,0.961,9.842-.346,14.042-1.194,4.06,0.312,8.55.2,12.68,0.447h6.65c0.2,0.34,1.05.054,1.51,0.149h1.66c1.12,0.02,1.96-.246,2.11-1.195a1.556,1.556,0,0,0-1.51-1.791c-3.41-.016-6.92.076-10.11-0.151H1009.4c-1.09.168-2.03,0.488-3.17,0.6-0.79.465-2.33,0.192-3.03,0.746-1.36-.1-2.26.253-3.619,0.149-1.269.012-2.592,0.076-3.018-.744,0.32-.974,1.481-1.125,1.962-1.943a9.393,9.393,0,0,1,1.515-.447c0.01-.282.5-0.1,0.45-0.448a0.609,0.609,0,0,1,.6-0.45c0.22,0.55.79-.115,1.21,0.3a1.127,1.127,0,0,0,1.21.6c6.82-.105,13.28-1.261,20.08-0.9,0.91-.194,1.91-0.3,2.87-0.447h3.62c1.45,0.148,3.43.611,4.53-.148,0.68-.795,0-2.158.91-2.838,0.02-1.373.44-2.347,0.45-3.735a25.938,25.938,0,0,0,1.06-2.989c0.46-.933.67-2.119,1.21-2.986,0.41-3.454.69-8.275-1.21-10.307h0Zm-19.48,2.088c0.07,1.074.26,2.04,0.3,3.137a5.277,5.277,0,0,1,.15,1.644c0.36,0.189-.08,1.178.3,1.345-0.06.332-.74,0.061-1.05,0.148h-1.21a39.147,39.147,0,0,1-5.44.3c-0.59-2.2-1.39-4.2-1.81-6.573h8.76Zm-16.91,8.516c-0.72-2.973-1.565-5.824-2.115-8.963a63.888,63.888,0,0,0,8.915.447c-0.08,2.659.91,4.27,0.75,7.023-2.01,0-3.53.491-5.44,0.6-0.74.258-1.38,0.623-2.11,0.9h0Zm4.68,11.052a13.586,13.586,0,0,0-2.27.6c-0.7-3.384-1.54-6.644-2.11-10.157,2.4,0.688,5.03-.071,7.7,0,0.56,2.434-.01,5.98.61,8.362a4.552,4.552,0,0,0,1.2.6c2.46-.353,1.21-4.139,1.36-6.422a14.177,14.177,0,0,1-.45-2.838,48.6,48.6,0,0,1,7.1-.45,90.213,90.213,0,0,0,.6,9.111c-4.56.42-9.03,0.924-13.74,1.2h0Zm20.38-1.642a26.74,26.74,0,0,1-5.13.447c-0.14-3.044-.49-5.894-0.45-9.111H1026c0.21,2.61-.47,5.594-0.3,8.664h0Zm0.61-11.652c-1.97.394-4.21-.21-6.49,0-0.07-2.224-.5-4.088-0.61-6.274a56.392,56.392,0,0,1,7.25,0,61.171,61.171,0,0,0-.15,6.274h0Zm8.91,1.943c-1.08,1.58-1.41,3.888-2.42,5.527a31.535,31.535,0,0,1-.61,4.33c-1.47-.181-3.05-0.258-4.68-0.3,0.68-2.418.64-5.544,0.91-8.362,1.86-.355,4.29-0.143,5.29-1.345-1.12-.987-3.13-1.1-5.14-1.2v-7.02c2.22,0.143,4.33.4,6.65,0.447a24.461,24.461,0,0,1,0,7.918h0Zm-30.2,20.017a7.6,7.6,0,0,0-3.47,1.191,4.536,4.536,0,0,0-1.36,2.542,3.428,3.428,0,0,0,.6,2.09c-0.47.647,0.25,1.19,0.15,1.943,0.67,0.338.87,1.128,1.66,1.343,1.43,0.4,2.85-.185,4.08-0.445a0.812,0.812,0,0,1,.76-0.45,6.766,6.766,0,0,0,2.41-4.331v-0.9a6.079,6.079,0,0,0-1.81-2.838c-0.97.01-2.06-.649-3.02-0.148h0Zm1.51,4.63c-0.57.237-.67,0.928-1.36,1.045a10.3,10.3,0,0,1-2.57-1.344c0.2-1.708,2.63-2.419,4.38-1.644a2.7,2.7,0,0,1-.45,1.943h0Zm24-4.482a4.207,4.207,0,0,0-2.41,0c-0.86-.051-1.3.312-2.12,0.3a8.139,8.139,0,0,1-1.65.895c-0.3.608-1.05,0.765-1.21,1.5a15.758,15.758,0,0,0-.15,3.433,4.088,4.088,0,0,0,.75.9c0.13,0.424.69,0.412,0.76,0.9,0.66-.164.75,0.253,1.2,0.3a7.391,7.391,0,0,0,3.17-.445,2.736,2.736,0,0,0,1.21-.6c0.57-.092.62-0.687,1.21-0.749,0.47-1.128,1.18-2.014,1.21-3.584a8.73,8.73,0,0,1-.45-1.795c-0.7-.15-0.8-0.907-1.52-1.043h0Zm-2.56,5.08c-1-.212-2.51.092-2.27-1.345a1.5,1.5,0,0,1,1.06-.746c0.29-.266.97-0.141,1.21-0.448a8.442,8.442,0,0,1,1.66,0c0.05,1.447-.81,1.989-1.66,2.539h0Zm0,0" transform="translate(-984.344 -716.844)"/>
</svg>
