<svg xmlns="http://www.w3.org/2000/svg" width="52.563" height="48.875" viewBox="0 0 52.563 48.875">
  <defs>
    <style>
      .cls-1 {
        fill: #7d5bff;
        fill-rule: evenodd;
      }
    </style>
  </defs>
  <path id="Фигура_9" data-name="Фигура 9" class="cls-1" d="M935.833,248.269v-5.2a13.325,13.325,0,0,1-.15-2.969,2.143,2.143,0,0,1-.3-0.891c-0.814-1.553-3.139-2.018-4.9-1.484a8.111,8.111,0,0,1-1.186.146c0.154-1.089-.28-2.062,0-2.819a4.554,4.554,0,0,1-.447-1.782c-1.332-.447-3.208-0.355-4.6-0.745-3.465-.154-5.885.306-8.906,0.3a19.56,19.56,0,0,1-.146-2.673c0.888-.149,1.93-0.147,2.818-0.3,0.646,0.1.837-.251,1.483-0.148,0.452-.093,1.281.189,1.487-0.15,0.5,0.337.718,0.963,1.778,0.745a1.92,1.92,0,0,0,.6-0.595,3.653,3.653,0,0,1,.295-1.04V217.531c0.167-.97.673-1.6,0.6-2.819-0.559-1.024-2.14-1.027-3.119-1.633a2.758,2.758,0,0,1-1.185-.149c-6.116-.03-11.686.483-17.366,0.891,0.226-1.116-.69-1.088-1.036-1.633,0.266-.77,1.075-1,1.036-2.08-0.02-.423-0.618-0.27-1.036-0.3-0.17-.278-0.578-0.316-0.742-0.593a9.612,9.612,0,0,1,1.629-1.19,2.192,2.192,0,0,0,.3-2.225c-1.694-.629-3.711.246-2.967,2.077-0.772.17-1.625,0.256-1.483,1.338,0.033,0.606.618,0.665,1.188,0.742,0.216,0.474,1.068.315,1.481,0.593-0.313.922-1.676,0.8-1.781,1.931a1.371,1.371,0,0,0,.446,1.037c0.129,0.185.955,0.414,0.593,0.6-1.367.511-3.282,0.473-4.748,0.889-0.734,1.494-.465,3.99-0.742,5.942v4.9c-0.118,1.258-.449,2.881,0,3.86a1.466,1.466,0,0,0,1.484.148,3.612,3.612,0,0,0,1.486.447h7.417c0.006,0.932.293,1.587,0.3,2.525a33.915,33.915,0,0,1-4.155-.15c-3.689.316-6.622,1.393-10.537,1.485-0.025.172-.235,0.161-0.446,0.146-0.282.511-1.09,0.491-1.337,1.04-0.152,1.269.657,2.278,0.446,3.117a3.48,3.48,0,0,0-1.632-.3,5.754,5.754,0,0,0-3.562,2.227,21.9,21.9,0,0,0-.891,7.128c0.278,0.364.154,1.132,0.447,1.484,0.084,0.26-.18.87,0.149,0.891,0.084,0.262-.18.871,0.148,0.891,0.229,1.156.18,2.591,1.335,2.819,1.581-.064,1.117-1.782.744-2.819-0.2-1.332-.443-2.627-0.744-3.862a16.047,16.047,0,0,1,.744-5.939,7.272,7.272,0,0,1,3.709-1.187c0.283,2.142.765,4.086,1.04,6.235a26.853,26.853,0,0,0,.592,6.535c0.147,0.493.773,0.514,0.891,1.037a0.907,0.907,0,0,0,1.037.892,1.076,1.076,0,0,0,1.042-1.189v-2.376a7.519,7.519,0,0,1-.449-1.633,67.477,67.477,0,0,0-1.037-11.432c2.466-.5,4.448-1.489,6.973-1.931,2.449-.57,5.534-0.506,8.165-0.891,5.2-.164,9.822-0.349,15.137-0.146a21.1,21.1,0,0,0,4.156.742c0.418,4.329-.126,9.627.295,13.956v2.524c0.213,0.681.2,1.587,1.04,1.634,0.895-.388.72-1.855,0.744-3.12V239.06c1.7,0.083,3.94-.377,4.45.894v9.352c-0.151.837-.5,2.643,0.6,2.674a1.029,1.029,0,0,0,1.185-1.338,11.168,11.168,0,0,0,.15-2.373h0ZM890.866,236.39h-0.3v-0.3h0.3v0.3Zm21.664-5.939c-0.441-.213-0.9.521-0.888-0.149h1.928a12.072,12.072,0,0,0,.148,2.524c-1.47.285-.767-1.6-1.188-2.375h0Zm-0.149-2.525c-0.354.09-1.075-.187-1.186,0.149-3.629.018-6.965-.256-10.684-0.149-0.8.239-2.074,0.006-2.523,0.593-0.418-.148.041-0.629,0-0.888v-3.564c-0.07-1.518-.223-2.946-0.149-4.6a15.013,15.013,0,0,1-.149-2.969c2.89-.031,5.136-0.7,8.013-0.742,2.916,0.047,5.716-.023,8.462-0.149a1.136,1.136,0,0,0,.444-0.149c2.382,0.144,5.413-.367,7.123.447-0.814,3.233-.331,7.724-0.3,11.432a29.876,29.876,0,0,0-5.045.447c-1.053-.113-1.694.185-2.673,0.146h-1.337Zm6.679-9.8a0.227,0.227,0,0,1-.146-0.3c-0.152-.391-0.588-0.5-0.742-0.891a2.745,2.745,0,0,0-4.007,1.931,5.166,5.166,0,0,0,.593,2.822c2.528,0.991,4.463-.909,4.3-3.564h0Zm-1.482,1.186a1.5,1.5,0,0,1-2.078,1.338c0.293-.935,1.378-3,2.078-1.338h0Zm-12.021-.742a2.935,2.935,0,0,0-3.119-1.189,4.453,4.453,0,0,0-1.334.745,0.407,0.407,0,0,1-.3.444c0.023,0.914-.318,1.461-0.3,2.378,0.218,0.025.133,0.357,0.149,0.593a0.4,0.4,0,0,1,.3.444,3.2,3.2,0,0,0,3.711.3,5.3,5.3,0,0,0,.891-3.713h0Zm-1.633,2.821A2.459,2.459,0,0,1,902,221.1a8.154,8.154,0,0,0,.592-1.635,2.08,2.08,0,0,1,1.484-.295,2.777,2.777,0,0,1-.147,2.225h0Zm10.388,1.783c-1.053-.321-2.272.226-3.414-0.149-1.081.583-2.182,0.256-3.709,0.3-0.318.278-.988,0.2-1.188,0.6a2.266,2.266,0,0,0-.891,1.04,3.67,3.67,0,0,0,.3,1.928c0.9,0.735,2.659.36,3.858,0.149,1.96-.018,4.119.162,5.194-0.742,0.619-.665.657-2.64-0.148-3.117h0Zm-6.381,2.375a1.387,1.387,0,0,1-1.484.149c0.054-.84.732-1.05,1.484-1.189v1.04Zm2.374,0h-0.89a6.778,6.778,0,0,0-.149-1.04,1.612,1.612,0,0,1,1.042-.146v1.186h0Zm3.265-.149a1.915,1.915,0,0,1-1.633.149v-1.186h1.633V225.4Zm-13.059,19.154a46.327,46.327,0,0,1,5.934-.892c0.539-2.621-.069-5.366-1.779-6.234h-2.523a15.506,15.506,0,0,0-4.6,2.673,2.829,2.829,0,0,1-.592,1.037c-0.026.224,0.053,0.55-.15,0.6,0.17,1-.282,2.034,0,2.673,0.8,0.462,2.331-.015,3.712.147h0Zm-2.375-1.484a4.346,4.346,0,0,1,.3-1.932,13.178,13.178,0,0,1,3.119-2.08h2.52a4.265,4.265,0,0,1,.742,3.269c-0.527-.125-0.889.429-1.037-0.148a2.042,2.042,0,0,1-.742-0.594c-0.711-.077-1.276-0.94-2.079-0.447a1.534,1.534,0,0,0,.295,1.041c0.167,0.1.77,0.493,0.446,0.593a11.666,11.666,0,0,1-3.56.3h0Zm24.933-4.751a2.337,2.337,0,0,0-.3,2.078c0.4,0.67,1.912.754,2.821,0.446a3.683,3.683,0,0,0,.3-1.931,2.278,2.278,0,0,0-2.821-.593h0Zm1.632,1.633c-0.385.09-.534-0.061-0.444-0.447,0.138,0.159.546,0.046,0.444,0.447h0Zm-7.271-1.04c-0.206.958-.26,2.229,0.3,2.82a5.712,5.712,0,0,0,2.672.3,2.564,2.564,0,0,0,1.186-2.673c-0.637-1.161-3.214-1.659-4.153-.445h0Zm1.484,1.189a0.925,0.925,0,0,1,1.039,0c0.082,0.357-1.16.537-1.039,0h0Zm-6.977.3a2.685,2.685,0,0,0,.745,1.483c0.018,0.013.328,0.16,0.295,0.15,1.111,0.334,2.8-.406,2.967-1.633a2.808,2.808,0,0,0-.444-1.634,2.273,2.273,0,0,0-3.563,1.634h0Zm1.781-.3v-0.447c0.19-.205.886-0.259,0.891,0.149,0.044,0.475-.649.54-0.891,0.3h0Zm19,0.3a1.084,1.084,0,0,0-1.633,1.335,3.949,3.949,0,0,0,.893.595,6.2,6.2,0,0,0,.889-0.595,2.518,2.518,0,0,0-.149-1.335h0Zm-45.562,3.12a1.6,1.6,0,0,0,1.042,0,1.663,1.663,0,0,0,.146-1.932c-1.106-.639-1.62,1.043-1.188,1.932h0Zm24.49,4.008c-0.326.318-1.216,0.069-1.484,0.444a6.225,6.225,0,0,0-1.783.149c-1.33,0-2.356.313-3.709,0.295a34.673,34.673,0,0,1-3.562.3c-0.747-.1-1.035.252-1.779,0.149-0.7,0-1.209.18-1.189,0.891,0.493,0.7,1.753.447,2.819,0.447h3.264a31.3,31.3,0,0,1,4.751-.447c0.111-.337.832-0.057,1.186-0.149a3.522,3.522,0,0,1,1.039-.3c0.681-.21,1.584-0.2,1.633-1.037a0.9,0.9,0,0,0-1.186-.742h0Zm5.639,2.968a1.133,1.133,0,0,0,1.186.593,1.52,1.52,0,0,0,.89-1.782c-0.629-1.363-2.25-.331-2.076,1.189h0Zm-11.429.891c-0.953.085-1.738,0.339-2.669,0.444H901.4c-0.523.219-1.391,0.1-1.781,0.447a17.169,17.169,0,0,0,2.375.448h3.562c0.955-.383,2.751.079,2.672-1.339-0.478-.721-1.687-0.013-2.377,0h0Zm0,0" transform="translate(-883.281 -205.625)"/>
</svg>
