<svg xmlns="http://www.w3.org/2000/svg" width="40.62" height="59.438" viewBox="0 0 40.62 59.438">
  <defs>
    <style>
      .cls-1 {
        fill: #5bf5ff;
        fill-rule: evenodd;
      }
    </style>
  </defs>
  <path id="Фигура_17" data-name="Фигура 17" class="cls-1" d="M1284.48,230.108c0.64,0.155,1.37.22,1.49,0.907-0.22.886-.96,1.242-1.34,1.961-0.28,1.017-.91,2.348-0.15,3.17,0.11,0.033.29,0.005,0.3,0.152,1.48,0.2,1.65-.943,2.23-1.661,0.46-.842,1.18-1.426,1.65-2.266a7.1,7.1,0,0,0,0-2.867c-0.42-.437-0.82-0.886-1.2-1.359-0.55-.093-0.94-0.359-1.49-0.452a3.656,3.656,0,0,1-1.34-.755c0.26-1.046,1.28-1.317,1.79-2.113,0.56-.744,1.75-0.84,1.64-2.265-0.27-.912-1.31-0.46-2.24-0.452a34.1,34.1,0,0,0-3.13,2.565,18.863,18.863,0,0,0-.9,1.963,3.338,3.338,0,0,0,1.05,2.718c0.48,0.315,1.44.147,1.64,0.754h0Zm9.85,3.17c-0.27.339-.36,0.85-0.6,1.206a2.545,2.545,0,0,0-.3,1.512,7.058,7.058,0,0,1,.75.6c1.72-.184,2.02-2.044,1.64-3.922-0.39-.713-1.34-0.86-1.49-1.813,0.32-.522.98-0.718,1.04-1.509-0.53-.641-1.39.07-1.94,0.3a3.489,3.489,0,0,0-.45,2.113c0.32,0.633,1.13.767,1.35,1.509h0Zm-17.61,2.263c0.23,0.426,1.06.233,1.19,0.757,0.47,1.155-.88,2.2-0.3,3.472,0.12,0.033.3,0,.3,0.15,1.87-.124,1.88-2.444,1.94-4.074-0.17-.026-0.16-0.24-0.15-0.455-0.35-.646-1.36-0.64-1.49-1.509,0.68-.217.77-1.027,0.75-1.963-1.74-.359-2.77,1.2-3.14,2.718,0.28,0.323.31,0.9,0.9,0.9h0Zm34.31,21.284c-0.18-1.578-.81-2.7-0.89-4.376a2.845,2.845,0,0,1-.75-1.359,6.665,6.665,0,0,1-1.19-1.056c-2.24-.153-5.23.462-6.41-0.755-0.22-1.573.24-3.613-.16-5.283-0.31-.775.77-0.139,0.6-0.754-0.39-.106-0.31-0.687-0.74-0.757-0.1-.46-0.81-0.294-0.9-0.755a12.133,12.133,0,0,1-1.94-1.206,34.753,34.753,0,0,0-5.52-1.661c-2.8.163-4.78-.491-7.61-0.3-4.45.578-8.41,1.656-11.49,3.622a5.3,5.3,0,0,0-1.49-.15,9.355,9.355,0,0,0-1.94,3.169c-0.02.179,0.03,0.43-.15,0.453a136.78,136.78,0,0,0,.9,19.623,54.859,54.859,0,0,0,1.19,12.981,2.97,2.97,0,0,0,1.19.754,13.471,13.471,0,0,0,1.2.907,43.986,43.986,0,0,0,8.35,1.207,91.148,91.148,0,0,0,9.25.3,18.773,18.773,0,0,0,7.76-3.322c0.65-.853,1.27-1.731,1.94-2.566a2.421,2.421,0,0,1,.75-1.811c0-.624-0.38-1.431,0-1.963a7.669,7.669,0,0,0,3.58-.6,9.6,9.6,0,0,0,2.09-.152,4.578,4.578,0,0,0,2.38-2.416c-0.39-3.849.15-7.7,0-11.772h0Zm-36.1-13.131a6.117,6.117,0,0,1,3.28-.754,15.691,15.691,0,0,1,8.95-1.814,14.193,14.193,0,0,0,1.64-.452,10.752,10.752,0,0,0,3.44-.15,8.619,8.619,0,0,1,4.02,1.057c1.36,0.336,2.58.813,3.14,1.961,0.09,0.855-.6.906-0.6,1.66-0.52.184-.5,0.905-1.34,0.755a2.429,2.429,0,0,0,0-1.661c-1.12-1.028-3.35-.935-5.22-1.207h-6.12c-3.07.068-5.28,1-8.51,0.907a11.822,11.822,0,0,1-1.19.6c-0.2.349-.26,0.843-0.9,0.757a3.314,3.314,0,0,1-.44,1.206,2.113,2.113,0,0,1-1.35-.754,1.326,1.326,0,0,1-.74-1.209,13.523,13.523,0,0,0,1.94-.9h0Zm20.74,3.017c-0.08-.078.11-0.191,0.15-0.15,0.07,0.078-.11.194-0.15,0.15h0Zm-1.05.3c-0.07-.077.11-0.191,0.15-0.15,0.08,0.077-.1.191-0.15,0.15h0Zm-6.71-1.961c0.8,0.095,1.59-.429,2.24,0a6.3,6.3,0,0,1-1.49.452,1.262,1.262,0,0,1-1.35-.15c-0.1-.41.71,0.106,0.6-0.3h0Zm3.13,2.263a18.723,18.723,0,0,1,2.69-.3,9.371,9.371,0,0,1-5.82.754c0.66-.535,1.95-0.437,3.13-0.452h0Zm-15.22,30.339a1.48,1.48,0,0,1-.89-0.3c0.14-.324,1.08-0.2.89,0.3h0Zm24.32-3.018a0.409,0.409,0,0,0-.29.452,11.351,11.351,0,0,1-2.54,1.811c-2.37-.274-5.34.14-8.36,0-3.82-.176-7.81-0.023-10.74-0.907,0.4-.952,1.25-1.451,1.34-2.714-0.17-.582-0.64-0.409-1.19-0.3a2.215,2.215,0,0,0-.89.754c-0.29.269-.47,0.639-0.75,0.907-0.03.333-.43,1.057-0.75,0.6-0.84-.007-0.09-0.958.15-1.206a4.705,4.705,0,0,1,.9-1.359c0.45-1.044,1.46-1.54,1.64-2.867-0.77-.466-1.48.265-1.94,0.6-0.79.359-.89,1.416-1.79,1.661v-1.814a26.8,26.8,0,0,0,2.24-4.376,2.591,2.591,0,0,0,.44-0.6c0.22-.132.58-0.119,0.45-0.6,0.1-.47-0.85-0.63-1.04-0.305a0.962,0.962,0,0,0-.9.757,4.113,4.113,0,0,0-.74.905c-0.19.131-.42,0.97-0.6,0.6,0.07-.62-0.4.144-0.45-0.452a0.622,0.622,0,0,0,.45-0.605v-1.359c0.61-.886.99-2.015,1.64-2.867,0.38-1.078,1.11-1.8,1.49-2.868a1.262,1.262,0,0,0-1.79.452,3.881,3.881,0,0,0-1.19,1.512c-0.5,0-.16-0.856-0.45-1.057a2.7,2.7,0,0,0-.6,1.359c-0.42-.53-0.27-1.638-0.29-2.568a10.447,10.447,0,0,0,.74-4.376c-0.12-.357-0.77.01-0.9,0.15-0.32-.274-0.02-1.18-0.29-1.509v-3.774a15.75,15.75,0,0,0,8.35,1.814,20.56,20.56,0,0,1,3.29-.153c0.31-.072.28,0.214,0.29,0.452a0.883,0.883,0,0,1,.45.3,14.6,14.6,0,0,0,9.25-2.415c0.81,0.013,1.24-.357,2.09-0.3a15.11,15.11,0,0,1,1.94-.9h0.15c0.5-.155.23,0.468,0.3,0.755a2.784,2.784,0,0,1,.15.754,6.234,6.234,0,0,0,.3,1.512,19.028,19.028,0,0,0,.44,3.167c0.03,4.861-.47,11.281-0.15,16.6,0.07,1.039.3,2.064,0.45,3.021a4.53,4.53,0,0,0-.3,1.358h0Zm5.67-5.435a27.338,27.338,0,0,1-3.13.605c-0.44-.938.26-1.923,0.3-2.868a16.912,16.912,0,0,0,2.98-.452,1.294,1.294,0,0,0,.45-1.209,5.858,5.858,0,0,0,.6-1.057,0.961,0.961,0,0,1,.15-0.754c0.17-3.648-.55-6.4-0.6-9.811-0.22-.729-1.3-0.595-1.79-1.057a2.5,2.5,0,0,1-1.34.15,1.142,1.142,0,0,1-1.05.152,6.759,6.759,0,0,0-.15-1.057,20.446,20.446,0,0,1,2.84.3c0.99,0.087,1.57-.313,2.38,0,0.8,1.155.71,3.208,1.35,4.528-0.11,4.245-.1,7.719.15,11.773-0.66.638-1.99,0.612-3.14,0.754h0Zm-1.19-13.281v2.715c0.17,1.687.25,3.467,0.45,5.133a3.446,3.446,0,0,1-2.09,1.207c0.04-3.212-.02-6.322-0.15-9.358,0.33-.265,1.12-0.074,1.49-0.3,0.45-.152.26,0.336,0.3,0.6h0Zm0,0" transform="translate(-1270.44 -222)"/>
</svg>
